<?xml version="1.0" encoding="UTF-8"?>
<svg id="Layer_1" data-name="Layer 1" xmlns="http://www.w3.org/2000/svg" viewBox="0 0 594.78 68.14">
  <defs>
    <style>
      .navlhtcls-1, .navlhtcls-2 {
        fill: #fff;
      }

      .navlhtcls-3 {
        fill: #c2c4d8;
      }

      .navlhtcls-4, .navlhtcls-2 {
        font-family: RobotoSlab-Regular, 'Roboto Slab';
        font-size: 19.35px;
      }

      .navlhtcls-5 {
        fill: #d9e6ea;
      }

      .navlhtcls-6 {
        letter-spacing: 0em;
      }

      .navlhtcls-7 {
        letter-spacing: -.02em;
      }

      .navlhtcls-8 {
        fill: #f5fffa;
      }

      .navlhtcls-9 {
        fill: #b4a7c5;
      }

      .navlhtcls-10 {
        letter-spacing: 0em;
      }
    </style>
  </defs>
  <g>
    <path class="navlhtcls-9" d="M60.6,34.07c0-10.4,4.09-19.85,10.74-26.86H30.47C13.64,7.21,0,20.85,0,37.68H0c0,16.83,13.64,30.47,30.47,30.47h42.8c2.13,0,4.21-.22,6.22-.64-11.31-6.85-18.88-19.28-18.88-33.44Z"/>
    <path class="navlhtcls-1" d="M18.06,50.42V31.39l12.69-9.52,12.69,9.52v19.03h-9.52v-11.1h-6.34v11.1h-9.52Z"/>
  </g>
  <g>
    <rect class="navlhtcls-9" x="65.6" y="0" width="194.03" height="68.14" rx="34.07" ry="34.07"/>
    <text class="navlhtcls-4" transform="translate(86.93 40.13)"><tspan class="navlhtcls-7" x="0" y="0">F</tspan><tspan x="11.7" y="0">alconifor</tspan><tspan class="navlhtcls-6" x="94.27" y="0">m</tspan><tspan x="112.46" y="0">es</tspan></text>
  </g>
  <g>
    <rect class="navlhtcls-3" x="228.76" y="0" width="153.65" height="68.14" rx="34.07" ry="34.07"/>
    <text class="navlhtcls-4" transform="translate(247.84 40.13)"><tspan class="navlhtcls-7" x="0" y="0">F</tspan><tspan x="11.7" y="0">alconidae</tspan></text>
  </g>
  <g>
    <rect class="navlhtcls-5" x="355.86" y="0" width="105.61" height="68.14" rx="34.07" ry="34.07"/>
    <text class="navlhtcls-4" transform="translate(374.88 40.13)"><tspan class="navlhtcls-7" x="0" y="0">F</tspan><tspan x="11.7" y="0">alco</tspan></text>
  </g>
  <g>
    <text class="navlhtcls-2" transform="translate(459.55 40.13)"><tspan x="0" y="0">c</tspan><tspan class="navlhtcls-10" x="10.43" y="0">o</tspan><tspan x="21.09" y="0">lumbarius</tspan></text>
    <rect class="navlhtcls-8" x="438.68" y="0" width="156.09" height="68.14" rx="34.07" ry="34.07"/>
    <text class="navlhtcls-4" transform="translate(459.55 40.13)"><tspan x="0" y="0">c</tspan><tspan class="navlhtcls-10" x="10.43" y="0">o</tspan><tspan x="21.09" y="0">lumbarius</tspan></text>
  </g>
</svg>