<?xml version="1.0" encoding="UTF-8"?>
<svg id="Layer_1" data-name="Layer 1" xmlns="http://www.w3.org/2000/svg" viewBox="0 0 226.09 185.2">
  <defs>
    <style>
      .tax2cls-1 {
        fill: #e4f4eb;
      }

      .tax2cls-2 {
        fill: #fff;
      }

      .tax2cls-3 {
        fill: #c2c4d8;
      }

      .tax2cls-4 {
        fill: #746b89;
      }

      .tax2cls-5 {
        fill: #d9e6ea;
      }

      .tax2cls-6 {
        fill: #b4a7c5;
      }

      .tax2cls-7 {
        fill: #444463;
      }

      .tax2cls-8 {
        fill: #2a2a44;
      }
    </style>
  </defs>
  <g>
    <rect class="tax2cls-8" x="0" y="0" width="77.22" height="41.14" rx="20.57" ry="20.57"/>
    <g>
      <path class="tax2cls-2" d="M11.77,13.14l.96-.16V6.26l-.96-.16v-.74h3.06v.74l-.96,.16v2.87h.88l2.38-2.95-.64-.08v-.74h2.71v.74l-.8,.15-2.61,3.23,2.85,3.52,.8,.15v.74h-2.8v-.74l.65-.08-2.43-3.03h-1v2.95l.96,.16v.74h-3.06v-.74Z"/>
      <path class="tax2cls-2" d="M20.38,13.14l.96-.16v-4.53l-.96-.16v-.74h2.11v5.44l.96,.16v.74h-3.06v-.74Zm2.11-7.22h-1.15v-1.18h1.15v1.18Z"/>
      <path class="tax2cls-2" d="M24.16,13.14l.96-.16v-4.53l-.96-.16v-.74h1.99l.08,.94c.21-.34,.48-.6,.79-.78s.68-.28,1.09-.28c.68,0,1.21,.2,1.59,.6s.56,1.02,.56,1.85v3.1l.96,.16v.74h-3.06v-.74l.96-.16v-3.08c0-.56-.11-.96-.33-1.19s-.56-.35-1.01-.35c-.33,0-.63,.08-.88,.24s-.46,.38-.61,.66v3.72l.96,.16v.74h-3.06v-.74Z"/>
      <path class="tax2cls-2" d="M32,10.83c0-1.02,.22-1.84,.67-2.47s1.06-.94,1.85-.94c.4,0,.75,.08,1.05,.23s.55,.38,.76,.68l.11-.8h.97v6.26c0,.82-.23,1.47-.69,1.94s-1.11,.71-1.95,.71c-.3,0-.63-.04-.99-.13s-.67-.2-.94-.34l.3-.9c.21,.11,.47,.21,.76,.28s.58,.11,.86,.11c.52,0,.89-.14,1.13-.43s.36-.7,.36-1.24v-.6c-.21,.27-.46,.47-.74,.6s-.62,.21-1,.21c-.78,0-1.39-.28-1.83-.84s-.67-1.3-.67-2.21v-.12Zm1.15,.12c0,.64,.13,1.15,.4,1.54s.68,.58,1.23,.58c.35,0,.64-.08,.87-.24s.43-.38,.58-.67v-2.92c-.15-.27-.34-.48-.58-.64s-.53-.24-.86-.24c-.55,0-.96,.23-1.24,.69s-.41,1.05-.41,1.78v.12Z"/>
      <path class="tax2cls-2" d="M43.05,13.12c-.21,.29-.46,.51-.76,.66s-.65,.22-1.04,.22c-.77,0-1.38-.28-1.81-.84s-.65-1.3-.65-2.21v-.12c0-1.02,.22-1.84,.65-2.47s1.04-.94,1.83-.94c.38,0,.71,.07,.99,.21s.53,.34,.74,.6v-2.58l-.96-.16v-.74h2.11V12.98l.96,.16v.74h-1.96l-.09-.76Zm-3.11-2.17c0,.64,.13,1.15,.39,1.54s.67,.58,1.21,.58c.34,0,.63-.08,.87-.23s.43-.38,.58-.66v-2.94c-.15-.27-.34-.48-.58-.63s-.52-.23-.86-.23c-.55,0-.96,.23-1.22,.69s-.4,1.05-.4,1.78v.12Z"/>
      <path class="tax2cls-2" d="M45.99,10.65c0-.94,.25-1.71,.76-2.32s1.2-.91,2.07-.91,1.57,.3,2.08,.91,.76,1.38,.76,2.32v.13c0,.95-.25,1.72-.76,2.32s-1.2,.9-2.07,.9-1.57-.3-2.08-.91-.76-1.38-.76-2.32v-.13Zm1.15,.13c0,.67,.14,1.23,.42,1.66s.7,.66,1.26,.66,.96-.22,1.25-.66,.43-.99,.43-1.66v-.13c0-.66-.14-1.22-.43-1.66s-.71-.66-1.26-.66-.97,.22-1.25,.66-.42,.99-.42,1.66v.13Z"/>
      <path class="tax2cls-2" d="M52.49,13.14l.96-.16v-4.53l-.96-.16v-.74h1.99l.08,.83c.2-.3,.46-.53,.79-.7s.69-.25,1.11-.25,.78,.1,1.09,.29,.53,.49,.68,.88c.2-.36,.46-.64,.79-.86s.71-.32,1.15-.32c.65,0,1.16,.22,1.54,.67s.56,1.11,.56,2v2.89l.96,.16v.74h-3.07v-.74l.96-.16v-2.9c0-.62-.11-1.07-.32-1.33s-.53-.39-.96-.39-.73,.14-.97,.42-.39,.64-.42,1.07v3.12l.96,.16v.74h-3.06v-.74l.96-.16v-2.9c0-.59-.11-1.03-.33-1.3s-.54-.41-.96-.41c-.35,0-.64,.07-.87,.22s-.4,.35-.52,.61v3.79l.96,.16v.74h-3.06v-.74Z"/>
      <path class="tax2cls-2" d="M65.54,8.72h-1.15v-1.18h1.15v1.18Zm0,5.16h-1.15v-1.18h1.15v1.18Z"/>
      <path class="tax2cls-2" d="M11.68,27.54l.63-.09,2.98-7.71h.99l2.93,7.71,.63,.09v.74h-2.45v-.74l.64-.11-.56-1.57h-3.42l-.58,1.57,.64,.11v.74h-2.44v-.74Zm2.74-2.65h2.71l-1.32-3.66h-.04l-1.35,3.66Z"/>
      <path class="tax2cls-2" d="M20.5,27.54l.96-.16v-4.53l-.96-.16v-.74h1.99l.08,.94c.21-.34,.48-.6,.79-.78s.68-.28,1.09-.28c.68,0,1.21,.2,1.59,.6s.56,1.02,.56,1.85v3.1l.96,.16v.74h-3.06v-.74l.96-.16v-3.08c0-.56-.11-.96-.33-1.19s-.56-.35-1.01-.35c-.33,0-.63,.08-.88,.24s-.46,.38-.61,.66v3.72l.96,.16v.74h-3.06v-.74Z"/>
      <path class="tax2cls-2" d="M28.39,27.54l.96-.16v-4.53l-.96-.16v-.74h2.11v5.44l.96,.16v.74h-3.06v-.74Zm2.11-7.22h-1.15v-1.18h1.15v1.18Z"/>
      <path class="tax2cls-2" d="M32.1,27.54l.96-.16v-4.53l-.96-.16v-.74h1.99l.08,.83c.2-.3,.46-.53,.79-.7s.69-.25,1.11-.25,.78,.1,1.09,.29,.53,.49,.68,.88c.2-.36,.46-.64,.79-.86s.71-.32,1.15-.32c.65,0,1.16,.22,1.54,.67s.56,1.11,.56,2v2.89l.96,.16v.74h-3.07v-.74l.96-.16v-2.9c0-.62-.11-1.07-.32-1.33s-.53-.39-.96-.39-.73,.14-.97,.42-.39,.64-.42,1.07v3.12l.96,.16v.74h-3.06v-.74l.96-.16v-2.9c0-.59-.11-1.03-.33-1.3s-.54-.41-.96-.41c-.35,0-.64,.07-.87,.22s-.4,.35-.52,.61v3.79l.96,.16v.74h-3.06v-.74Z"/>
      <path class="tax2cls-2" d="M47.81,28.28c-.04-.17-.06-.33-.08-.46s-.03-.27-.04-.41c-.22,.29-.5,.52-.83,.71s-.69,.28-1.07,.28c-.66,0-1.16-.16-1.51-.48s-.52-.78-.52-1.36,.24-1.07,.73-1.39,1.15-.49,2-.49h1.19v-.74c0-.37-.12-.67-.35-.88s-.56-.33-.98-.33c-.29,0-.54,.04-.76,.11s-.4,.18-.54,.3l-.12,.67h-.89v-1.23c.29-.23,.64-.42,1.05-.55s.86-.21,1.34-.21c.72,0,1.3,.18,1.75,.55s.67,.89,.67,1.58v3.05c0,.08,0,.16,0,.24s0,.16,.01,.23l.47,.06v.74h-1.51Zm-1.86-.84c.38,0,.73-.09,1.05-.28s.54-.4,.68-.66v-1.04h-1.23c-.47,0-.85,.11-1.12,.33s-.41,.48-.41,.8c0,.28,.09,.49,.26,.64s.43,.22,.78,.22Z"/>
      <path class="tax2cls-2" d="M50.12,19.88v-.74h2.11v8.24l.96,.16v.74h-3.06v-.74l.96-.16v-7.33l-.96-.16Z"/>
      <path class="tax2cls-2" d="M54.06,27.54l.96-.16v-4.53l-.96-.16v-.74h2.11v5.44l.96,.16v.74h-3.06v-.74Zm2.11-7.22h-1.15v-1.18h1.15v1.18Z"/>
      <path class="tax2cls-2" d="M62.14,28.28c-.04-.17-.06-.33-.08-.46s-.03-.27-.04-.41c-.22,.29-.5,.52-.83,.71s-.69,.28-1.07,.28c-.66,0-1.16-.16-1.51-.48s-.52-.78-.52-1.36,.24-1.07,.73-1.39,1.15-.49,2-.49h1.19v-.74c0-.37-.12-.67-.35-.88s-.56-.33-.98-.33c-.29,0-.54,.04-.76,.11s-.4,.18-.54,.3l-.12,.67h-.89v-1.23c.29-.23,.64-.42,1.05-.55s.86-.21,1.34-.21c.72,0,1.3,.18,1.75,.55s.67,.89,.67,1.58v3.05c0,.08,0,.16,0,.24s0,.16,.01,.23l.47,.06v.74h-1.51Zm-1.86-.84c.38,0,.73-.09,1.05-.28s.54-.4,.68-.66v-1.04h-1.23c-.47,0-.85,.11-1.12,.33s-.41,.48-.41,.8c0,.28,.09,.49,.26,.64s.43,.22,.78,.22Z"/>
    </g>
  </g>
  <g>
    <rect class="tax2cls-7" x="24.51" y="33.78" width="71.7" height="41.14" rx="20.57" ry="20.57"/>
    <g>
      <path class="tax2cls-2" d="M38.8,39.13c.91,0,1.62,.23,2.12,.7s.76,1.09,.76,1.85-.25,1.39-.76,1.86-1.21,.7-2.12,.7h-1.81v2.52l.96,.16v.74h-3.06v-.74l.96-.16v-6.72l-.96-.16v-.74h3.92Zm-1.81,4.21h1.81c.58,0,1.01-.16,1.3-.47s.43-.7,.43-1.17-.14-.87-.43-1.18-.72-.47-1.3-.47h-1.81v3.3Z"/>
      <path class="tax2cls-2" d="M42.45,46.92l.96-.16v-7.33l-.96-.16v-.74h2.11v3.64c.22-.3,.49-.54,.8-.71s.67-.25,1.05-.25c.68,0,1.21,.2,1.58,.61s.56,1.03,.56,1.88v3.07l.96,.16v.74h-3.06v-.74l.96-.16v-3.08c0-.52-.11-.91-.34-1.16s-.56-.38-1-.38c-.32,0-.6,.08-.86,.23s-.47,.35-.64,.61v3.78l.96,.16v.74h-3.06v-.74Z"/>
      <path class="tax2cls-2" d="M56.38,42.06l-.57,.09-2.41,6.48c-.16,.43-.39,.8-.69,1.11s-.71,.47-1.21,.47c-.09,0-.21-.01-.35-.03s-.26-.04-.33-.06l.12-.91s.05,0,.21,.01,.26,.02,.31,.02c.25,0,.45-.11,.6-.32s.29-.46,.4-.74l.28-.66-2.09-5.38-.58-.09v-.74h2.56v.74l-.71,.12,1.1,3.13,.21,.81h.04l1.32-3.94-.72-.12v-.74h2.55v.74Z"/>
      <path class="tax2cls-2" d="M57,39.26v-.74h2.11v8.24l.96,.16v.74h-3.06v-.74l.96-.16v-7.33l-.96-.16Z"/>
      <path class="tax2cls-2" d="M65.48,46.72c-.2,.34-.46,.6-.77,.79s-.68,.28-1.09,.28c-.69,0-1.22-.22-1.61-.66s-.58-1.13-.58-2.06v-2.83l-.73-.16v-.74h1.88v3.75c0,.68,.1,1.14,.3,1.39s.51,.38,.93,.38,.75-.08,1.02-.25,.47-.4,.61-.71v-3.66l-.85-.16v-.74h2v5.44l.73,.16v.74h-1.76l-.08-.94Z"/>
      <path class="tax2cls-2" d="M68,46.92l.96-.16v-4.53l-.96-.16v-.74h1.99l.08,.83c.2-.3,.46-.53,.79-.7s.69-.25,1.11-.25,.78,.1,1.09,.29,.53,.49,.68,.88c.2-.36,.46-.64,.79-.86s.71-.32,1.15-.32c.65,0,1.16,.22,1.54,.67s.56,1.11,.56,2v2.89l.96,.16v.74h-3.07v-.74l.96-.16v-2.9c0-.62-.11-1.07-.32-1.33s-.53-.39-.96-.39-.73,.14-.97,.42-.39,.64-.42,1.07v3.12l.96,.16v.74h-3.06v-.74l.96-.16v-2.9c0-.59-.11-1.03-.33-1.3s-.54-.41-.96-.41c-.35,0-.64,.07-.87,.22s-.4,.35-.52,.61v3.79l.96,.16v.74h-3.06v-.74Z"/>
      <path class="tax2cls-2" d="M81.05,42.5h-1.15v-1.18h1.15v1.18Zm0,5.16h-1.15v-1.18h1.15v1.18Z"/>
      <path class="tax2cls-2" d="M41.49,56.15h-.81l-.22-1.21c-.19-.18-.42-.33-.69-.45s-.6-.18-.98-.18c-.89,0-1.57,.32-2.04,.96s-.71,1.46-.71,2.45v.13c0,.99,.23,1.81,.7,2.45s1.11,.97,1.94,.97c.39,0,.74-.06,1.05-.18s.56-.27,.73-.45l.22-1.21h.81v1.52c-.25,.32-.62,.6-1.11,.85s-1.06,.37-1.71,.37c-1.11,0-2.02-.41-2.73-1.23s-1.07-1.85-1.07-3.09v-.12c0-1.25,.35-2.28,1.05-3.1s1.62-1.23,2.75-1.23c.65,0,1.22,.13,1.71,.38s.86,.53,1.11,.85v1.52Z"/>
      <path class="tax2cls-2" d="M42.57,61.32l.96-.16v-7.33l-.96-.16v-.74h2.11v3.64c.22-.3,.49-.54,.8-.71s.67-.25,1.05-.25c.68,0,1.21,.2,1.58,.61s.56,1.03,.56,1.88v3.07l.96,.16v.74h-3.06v-.74l.96-.16v-3.08c0-.52-.11-.91-.34-1.16s-.56-.38-1-.38c-.32,0-.6,.08-.86,.23s-.47,.35-.64,.61v3.78l.96,.16v.74h-3.06v-.74Z"/>
      <path class="tax2cls-2" d="M50.42,58.83c0-.94,.25-1.71,.76-2.32s1.2-.91,2.07-.91,1.57,.3,2.08,.91,.76,1.38,.76,2.32v.13c0,.95-.25,1.72-.76,2.32s-1.2,.9-2.07,.9-1.57-.3-2.08-.91-.76-1.38-.76-2.32v-.13Zm1.15,.13c0,.67,.14,1.23,.42,1.66s.7,.66,1.26,.66,.96-.22,1.25-.66,.43-.99,.43-1.66v-.13c0-.66-.14-1.22-.43-1.66s-.71-.66-1.26-.66-.97,.22-1.25,.66-.42,.99-.42,1.66v.13Z"/>
      <path class="tax2cls-2" d="M57.14,56.46v-.74h1.99l.11,.92c.18-.32,.4-.58,.67-.76s.57-.28,.91-.28c.09,0,.18,0,.28,.02s.17,.03,.22,.04l-.15,1.07-.66-.04c-.3,0-.56,.07-.77,.21s-.37,.34-.48,.6v3.64l.96,.16v.74h-3.06v-.74l.96-.16v-4.53l-.96-.16Z"/>
      <path class="tax2cls-2" d="M66.27,61.3c-.21,.29-.46,.51-.76,.66s-.65,.22-1.04,.22c-.77,0-1.38-.28-1.81-.84s-.65-1.3-.65-2.21v-.12c0-1.02,.22-1.84,.65-2.47s1.04-.94,1.83-.94c.38,0,.71,.07,.99,.21s.53,.34,.74,.6v-2.58l-.96-.16v-.74h2.11v8.24l.96,.16v.74h-1.96l-.09-.76Zm-3.11-2.17c0,.64,.13,1.15,.39,1.54s.67,.58,1.21,.58c.34,0,.63-.08,.87-.23s.43-.38,.58-.66v-2.94c-.15-.27-.34-.48-.58-.63s-.52-.23-.86-.23c-.55,0-.96,.23-1.22,.69s-.4,1.05-.4,1.78v.12Z"/>
      <path class="tax2cls-2" d="M73.33,62.06c-.04-.17-.06-.33-.08-.46s-.03-.27-.04-.41c-.22,.29-.5,.52-.83,.71s-.69,.28-1.07,.28c-.66,0-1.16-.16-1.51-.48s-.52-.78-.52-1.36,.24-1.07,.73-1.39,1.15-.49,2-.49h1.19v-.74c0-.37-.12-.67-.35-.88s-.56-.33-.98-.33c-.29,0-.54,.04-.76,.11s-.4,.18-.54,.3l-.12,.67h-.89v-1.23c.29-.23,.64-.42,1.05-.55s.86-.21,1.34-.21c.72,0,1.3,.18,1.75,.55s.67,.89,.67,1.58v3.05c0,.08,0,.16,0,.24s0,.16,.01,.23l.47,.06v.74h-1.51Zm-1.86-.84c.38,0,.73-.09,1.05-.28s.54-.4,.68-.66v-1.04h-1.23c-.47,0-.85,.11-1.12,.33s-.41,.48-.41,.8c0,.28,.09,.49,.26,.64s.43,.22,.78,.22Z"/>
      <path class="tax2cls-2" d="M77.82,54.19v1.53h1.2v.86h-1.2v3.85c0,.3,.06,.51,.18,.63s.29,.18,.49,.18c.1,0,.22,0,.34-.03s.23-.04,.32-.06l.16,.79c-.11,.07-.27,.13-.48,.17s-.42,.07-.63,.07c-.47,0-.84-.14-1.12-.42s-.42-.73-.42-1.33v-3.85h-1v-.86h1v-1.53h1.15Z"/>
      <path class="tax2cls-2" d="M84.34,62.06c-.04-.17-.06-.33-.08-.46s-.03-.27-.04-.41c-.22,.29-.5,.52-.83,.71s-.69,.28-1.07,.28c-.66,0-1.16-.16-1.51-.48s-.52-.78-.52-1.36,.24-1.07,.73-1.39,1.15-.49,2-.49h1.19v-.74c0-.37-.12-.67-.35-.88s-.56-.33-.98-.33c-.29,0-.54,.04-.76,.11s-.4,.18-.54,.3l-.12,.67h-.89v-1.23c.29-.23,.64-.42,1.05-.55s.86-.21,1.34-.21c.72,0,1.3,.18,1.75,.55s.67,.89,.67,1.58v3.05c0,.08,0,.16,0,.24s0,.16,.01,.23l.47,.06v.74h-1.51Zm-1.86-.84c.38,0,.73-.09,1.05-.28s.54-.4,.68-.66v-1.04h-1.23c-.47,0-.85,.11-1.12,.33s-.41,.48-.41,.8c0,.28,.09,.49,.26,.64s.43,.22,.78,.22Z"/>
    </g>
  </g>
  <g>
    <rect class="tax2cls-4" x="54.77" y="67.56" width="60.45" height="41.14" rx="20.57" ry="20.57"/>
    <g>
      <path class="tax2cls-2" d="M75.68,78.53h-.81l-.22-1.21c-.19-.18-.42-.33-.69-.45s-.6-.18-.98-.18c-.89,0-1.57,.32-2.04,.96s-.71,1.46-.71,2.45v.13c0,.99,.23,1.81,.7,2.45s1.11,.97,1.94,.97c.39,0,.74-.06,1.05-.18s.56-.27,.73-.45l.22-1.21h.81v1.52c-.25,.32-.62,.6-1.11,.85s-1.06,.37-1.71,.37c-1.11,0-2.02-.41-2.73-1.23s-1.07-1.85-1.07-3.09v-.12c0-1.25,.35-2.28,1.05-3.1s1.62-1.23,2.75-1.23c.65,0,1.22,.13,1.71,.38s.86,.53,1.11,.85v1.52Z"/>
      <path class="tax2cls-2" d="M76.75,76.04v-.74h2.11v8.24l.96,.16v.74h-3.06v-.74l.96-.16v-7.33l-.96-.16Z"/>
      <path class="tax2cls-2" d="M84.83,84.44c-.04-.17-.06-.33-.08-.46s-.03-.27-.04-.41c-.22,.29-.5,.52-.83,.71s-.69,.28-1.07,.28c-.66,0-1.16-.16-1.51-.48s-.52-.78-.52-1.36,.24-1.07,.73-1.39,1.15-.49,2-.49h1.19v-.74c0-.37-.12-.67-.35-.88s-.56-.33-.98-.33c-.29,0-.54,.04-.76,.11s-.4,.18-.54,.3l-.12,.67h-.89v-1.23c.29-.23,.64-.42,1.05-.55s.86-.21,1.34-.21c.72,0,1.3,.18,1.75,.55s.67,.89,.67,1.58v3.05c0,.08,0,.16,0,.24s0,.16,.01,.23l.47,.06v.74h-1.51Zm-1.86-.84c.38,0,.73-.09,1.05-.28s.54-.4,.68-.66v-1.04h-1.23c-.47,0-.85,.11-1.12,.33s-.41,.48-.41,.8c0,.28,.09,.49,.26,.64s.43,.22,.78,.22Z"/>
      <path class="tax2cls-2" d="M92.15,80.09h-.87l-.19-.76c-.14-.13-.32-.24-.53-.32s-.45-.12-.72-.12c-.41,0-.71,.09-.91,.27s-.3,.4-.3,.65,.09,.45,.26,.59,.53,.27,1.07,.39c.8,.17,1.4,.41,1.79,.7s.59,.69,.59,1.19c0,.56-.23,1.02-.68,1.37s-1.05,.52-1.78,.52c-.48,0-.91-.06-1.29-.17s-.72-.27-1.03-.48v-1.45s.86,0,.86,0l.22,.85c.13,.12,.31,.21,.54,.26s.46,.08,.7,.08c.41,0,.73-.08,.96-.25s.35-.38,.35-.65c0-.25-.1-.46-.29-.63s-.56-.31-1.1-.43c-.77-.17-1.35-.4-1.74-.69s-.59-.68-.59-1.17,.22-.96,.66-1.32,1.01-.54,1.71-.54c.48,0,.91,.06,1.29,.19s.7,.3,.96,.52l.06,1.4Z"/>
      <path class="tax2cls-2" d="M98.27,80.09h-.87l-.19-.76c-.14-.13-.32-.24-.53-.32s-.45-.12-.72-.12c-.41,0-.71,.09-.91,.27s-.3,.4-.3,.65,.09,.45,.26,.59,.53,.27,1.07,.39c.8,.17,1.4,.41,1.79,.7s.59,.69,.59,1.19c0,.56-.23,1.02-.68,1.37s-1.05,.52-1.78,.52c-.48,0-.91-.06-1.29-.17s-.72-.27-1.03-.48v-1.45s.86,0,.86,0l.22,.85c.13,.12,.31,.21,.54,.26s.46,.08,.7,.08c.41,0,.73-.08,.96-.25s.35-.38,.35-.65c0-.25-.1-.46-.29-.63s-.56-.31-1.1-.43c-.77-.17-1.35-.4-1.74-.69s-.59-.68-.59-1.17,.22-.96,.66-1.32,1.01-.54,1.71-.54c.48,0,.91,.06,1.29,.19s.7,.3,.96,.52l.06,1.4Z"/>
      <path class="tax2cls-2" d="M101.02,79.28h-1.15v-1.18h1.15v1.18Zm0,5.16h-1.15v-1.18h1.15v1.18Z"/>
      <path class="tax2cls-2" d="M68.97,98.1l.63-.09,2.98-7.71h.99l2.93,7.71,.63,.09v.74h-2.45v-.74l.64-.11-.56-1.57h-3.42l-.58,1.57,.64,.11v.74h-2.44v-.74Zm2.74-2.65h2.71l-1.32-3.66h-.04l-1.35,3.66Z"/>
      <path class="tax2cls-2" d="M79.43,93.24l-.76,.12,1.31,3.61,.11,.46h.04l.11-.46,1.27-3.61-.77-.12v-.74h2.45v.74l-.52,.09-2.13,5.51h-.87l-2.15-5.51-.52-.09v-.74h2.45v.74Z"/>
      <path class="tax2cls-2" d="M86.77,98.96c-.88,0-1.58-.29-2.11-.88s-.78-1.35-.78-2.29v-.26c0-.9,.27-1.65,.81-2.25s1.17-.9,1.91-.9c.85,0,1.5,.26,1.94,.77s.66,1.2,.66,2.06v.72h-4.11l-.02,.03c.01,.61,.17,1.11,.46,1.5s.71,.59,1.25,.59c.39,0,.73-.06,1.03-.17s.55-.26,.76-.46l.45,.75c-.23,.22-.53,.4-.9,.55s-.82,.23-1.34,.23Zm-.18-5.67c-.39,0-.72,.16-.99,.49s-.44,.74-.5,1.23v.03h2.94v-.15c0-.45-.12-.83-.36-1.14s-.6-.46-1.08-.46Z"/>
      <path class="tax2cls-2" d="M95.18,94.49h-.87l-.19-.76c-.14-.13-.32-.24-.53-.32s-.45-.12-.72-.12c-.41,0-.71,.09-.91,.27s-.3,.4-.3,.65,.09,.45,.26,.59,.53,.27,1.07,.39c.8,.17,1.4,.41,1.79,.7s.59,.69,.59,1.19c0,.56-.23,1.02-.68,1.37s-1.05,.52-1.78,.52c-.48,0-.91-.06-1.29-.17s-.72-.27-1.03-.48v-1.45s.86,0,.86,0l.22,.85c.13,.12,.31,.21,.54,.26s.46,.08,.7,.08c.41,0,.73-.08,.96-.25s.35-.38,.35-.65c0-.25-.1-.46-.29-.63s-.56-.31-1.1-.43c-.77-.17-1.35-.4-1.74-.69s-.59-.68-.59-1.17,.22-.96,.66-1.32,1.01-.54,1.71-.54c.48,0,.91,.06,1.29,.19s.7,.3,.96,.52l.06,1.4Z"/>
    </g>
  </g>
  <g>
    <g>
      <rect class="tax2cls-6" x="104.5" y="95.96" width="46.83" height="34.96" rx="15.44" ry="15.44"/>
      <g>
        <path d="M120.39,107.64c0,1.06-.3,1.93-.91,2.63s-1.39,1.05-2.35,1.05-1.7-.35-2.28-1.05-.88-1.57-.88-2.63v-.1c0-1.05,.29-1.93,.88-2.63s1.34-1.05,2.28-1.05,1.75,.35,2.35,1.05,.91,1.58,.91,2.63v.1Zm-.98-.11c0-.84-.2-1.53-.61-2.06s-.96-.8-1.68-.8-1.22,.27-1.6,.8-.58,1.22-.58,2.06v.11c0,.85,.19,1.54,.58,2.07s.92,.8,1.6,.8c.72,0,1.28-.27,1.68-.8s.6-1.22,.6-2.08v-.11Z"/>
        <path d="M121.22,106.45v-.63h1.69l.09,.78c.15-.28,.34-.49,.57-.65s.48-.23,.77-.23c.08,0,.16,0,.24,.02s.14,.02,.19,.04l-.13,.91-.56-.03c-.26,0-.48,.06-.65,.18s-.31,.29-.41,.51v3.09l.81,.14v.63h-2.6v-.63l.81-.14v-3.85l-.81-.14Z"/>
        <path d="M128.97,110.56c-.18,.25-.39,.43-.64,.56s-.55,.19-.88,.19c-.66,0-1.17-.24-1.54-.71s-.56-1.1-.56-1.88v-.1c0-.87,.19-1.57,.56-2.1s.89-.8,1.55-.8c.32,0,.6,.06,.84,.18s.45,.29,.62,.51v-2.2l-.81-.14v-.63h1.79v7l.81,.14v.63h-1.66l-.08-.64Zm-2.64-1.85c0,.54,.11,.98,.33,1.3s.57,.49,1.03,.49c.29,0,.54-.07,.74-.2s.36-.32,.49-.56v-2.5c-.13-.23-.29-.4-.49-.54s-.44-.2-.73-.2c-.47,0-.81,.19-1.04,.58s-.34,.89-.34,1.51v.1Z"/>
        <path d="M133.92,111.31c-.75,0-1.35-.25-1.79-.75s-.66-1.15-.66-1.94v-.22c0-.77,.23-1.41,.68-1.91s1-.76,1.62-.76c.72,0,1.27,.22,1.65,.66s.56,1.02,.56,1.75v.61h-3.5v.02c0,.52,.13,.94,.38,1.28s.61,.5,1.06,.5c.33,0,.62-.05,.87-.14s.47-.22,.65-.39l.38,.64c-.19,.19-.45,.34-.76,.47s-.7,.19-1.14,.19Zm-.15-4.82c-.33,0-.61,.14-.84,.42s-.38,.62-.43,1.04v.02h2.49v-.13c0-.39-.1-.71-.31-.97s-.51-.39-.92-.39Z"/>
        <path d="M136.94,106.45v-.63h1.69l.09,.78c.15-.28,.34-.49,.57-.65s.48-.23,.77-.23c.08,0,.16,0,.24,.02s.14,.02,.19,.04l-.13,.91-.56-.03c-.26,0-.48,.06-.65,.18s-.31,.29-.41,.51v3.09l.81,.14v.63h-2.6v-.63l.81-.14v-3.85l-.81-.14Z"/>
        <path d="M142.42,106.82h-.98v-1.01h.98v1.01Zm0,4.38h-.98v-1.01h.98v1.01Z"/>
        <path d="M125.24,121.4c0-.48,.04-.82,.12-1s.29-.43,.62-.73c.33-.39,.56-.69,.7-.9s.21-.46,.21-.76c0-.35-.09-.62-.28-.81s-.46-.28-.8-.28c-.3,0-.56,.08-.77,.25s-.32,.41-.32,.72h-.94v-.03c-.02-.53,.16-.96,.55-1.28s.88-.48,1.47-.48c.65,0,1.16,.17,1.52,.5s.54,.8,.54,1.4c0,.43-.12,.82-.35,1.18s-.54,.72-.93,1.09c-.18,.18-.28,.34-.32,.48s-.06,.37-.06,.67h-.98Zm1.01,2.04h-1.02v-1.04h1.02v1.04Z"/>
        <path d="M129.98,121.4c0-.48,.04-.82,.12-1s.29-.43,.62-.73c.33-.39,.56-.69,.7-.9s.21-.46,.21-.76c0-.35-.09-.62-.28-.81s-.46-.28-.8-.28c-.3,0-.56,.08-.77,.25s-.32,.41-.32,.72h-.94v-.03c-.02-.53,.16-.96,.55-1.28s.88-.48,1.47-.48c.65,0,1.16,.17,1.52,.5s.54,.8,.54,1.4c0,.43-.12,.82-.35,1.18s-.54,.72-.93,1.09c-.18,.18-.28,.34-.32,.48s-.06,.37-.06,.67h-.98Zm1.01,2.04h-1.02v-1.04h1.02v1.04Z"/>
      </g>
    </g>
    <g>
      <rect class="tax2cls-6" x="104.5" y="52.87" width="46.83" height="34.96" rx="15.44" ry="15.44"/>
      <g>
        <path d="M120.39,64.54c0,1.06-.3,1.93-.91,2.63s-1.39,1.05-2.35,1.05-1.7-.35-2.28-1.05-.88-1.57-.88-2.63v-.1c0-1.05,.29-1.93,.88-2.63s1.34-1.05,2.28-1.05,1.75,.35,2.35,1.05,.91,1.58,.91,2.63v.1Zm-.98-.11c0-.84-.2-1.53-.61-2.06s-.96-.8-1.68-.8-1.22,.27-1.6,.8-.58,1.22-.58,2.06v.11c0,.85,.19,1.54,.58,2.07s.92,.8,1.6,.8c.72,0,1.28-.27,1.68-.8s.6-1.22,.6-2.08v-.11Z"/>
        <path d="M121.22,63.36v-.63h1.69l.09,.78c.15-.28,.34-.49,.57-.65s.48-.23,.77-.23c.08,0,.16,0,.24,.02s.14,.02,.19,.04l-.13,.91-.56-.03c-.26,0-.48,.06-.65,.18s-.31,.29-.41,.51v3.09l.81,.14v.63h-2.6v-.63l.81-.14v-3.85l-.81-.14Z"/>
        <path d="M128.97,67.47c-.18,.25-.39,.43-.64,.56s-.55,.19-.88,.19c-.66,0-1.17-.24-1.54-.71s-.56-1.1-.56-1.88v-.1c0-.87,.19-1.57,.56-2.1s.89-.8,1.55-.8c.32,0,.6,.06,.84,.18s.45,.29,.62,.51v-2.2l-.81-.14v-.63h1.79v7l.81,.14v.63h-1.66l-.08-.64Zm-2.64-1.85c0,.54,.11,.98,.33,1.3s.57,.49,1.03,.49c.29,0,.54-.07,.74-.2s.36-.32,.49-.56v-2.5c-.13-.23-.29-.4-.49-.54s-.44-.2-.73-.2c-.47,0-.81,.19-1.04,.58s-.34,.89-.34,1.51v.1Z"/>
        <path d="M133.92,68.22c-.75,0-1.35-.25-1.79-.75s-.66-1.15-.66-1.94v-.22c0-.77,.23-1.41,.68-1.91s1-.76,1.62-.76c.72,0,1.27,.22,1.65,.66s.56,1.02,.56,1.75v.61h-3.5v.02c0,.52,.13,.94,.38,1.28s.61,.5,1.06,.5c.33,0,.62-.05,.87-.14s.47-.22,.65-.39l.38,.64c-.19,.19-.45,.34-.76,.47s-.7,.19-1.14,.19Zm-.15-4.82c-.33,0-.61,.14-.84,.42s-.38,.62-.43,1.04v.02h2.49v-.13c0-.39-.1-.71-.31-.97s-.51-.39-.92-.39Z"/>
        <path d="M136.94,63.36v-.63h1.69l.09,.78c.15-.28,.34-.49,.57-.65s.48-.23,.77-.23c.08,0,.16,0,.24,.02s.14,.02,.19,.04l-.13,.91-.56-.03c-.26,0-.48,.06-.65,.18s-.31,.29-.41,.51v3.09l.81,.14v.63h-2.6v-.63l.81-.14v-3.85l-.81-.14Z"/>
        <path d="M142.42,63.73h-.98v-1.01h.98v1.01Zm0,4.38h-.98v-1.01h.98v1.01Z"/>
        <path d="M125.24,78.31c0-.48,.04-.82,.12-1s.29-.43,.62-.73c.33-.39,.56-.69,.7-.9s.21-.46,.21-.76c0-.35-.09-.62-.28-.81s-.46-.28-.8-.28c-.3,0-.56,.08-.77,.25s-.32,.41-.32,.72h-.94v-.03c-.02-.53,.16-.96,.55-1.28s.88-.48,1.47-.48c.65,0,1.16,.17,1.52,.5s.54,.8,.54,1.4c0,.43-.12,.82-.35,1.18s-.54,.72-.93,1.09c-.18,.18-.28,.34-.32,.48s-.06,.37-.06,.67h-.98Zm1.01,2.04h-1.02v-1.04h1.02v1.04Z"/>
        <path d="M129.98,78.31c0-.48,.04-.82,.12-1s.29-.43,.62-.73c.33-.39,.56-.69,.7-.9s.21-.46,.21-.76c0-.35-.09-.62-.28-.81s-.46-.28-.8-.28c-.3,0-.56,.08-.77,.25s-.32,.41-.32,.72h-.94v-.03c-.02-.53,.16-.96,.55-1.28s.88-.48,1.47-.48c.65,0,1.16,.17,1.52,.5s.54,.8,.54,1.4c0,.43-.12,.82-.35,1.18s-.54,.72-.93,1.09c-.18,.18-.28,.34-.32,.48s-.06,.37-.06,.67h-.98Zm1.01,2.04h-1.02v-1.04h1.02v1.04Z"/>
      </g>
    </g>
  </g>
  <g>
    <g>
      <rect class="tax2cls-3" x="138.33" y="32.43" width="43.6" height="28.7" rx="14.35" ry="14.35"/>
      <g>
        <path d="M145.71,44.43l.67-.11v-4.69l-.67-.11v-.52h4.6v1.43h-.69l-.07-.8h-2.37v2.05h2.3v.63h-2.3v2l.67,.11v.52h-2.14v-.52Z"/>
        <path d="M153.74,44.94c-.02-.12-.04-.23-.06-.32s-.02-.19-.03-.29c-.16,.2-.35,.36-.58,.5s-.48,.2-.75,.2c-.46,0-.81-.11-1.05-.34s-.36-.54-.36-.95,.17-.74,.51-.97,.8-.34,1.4-.34h.83v-.52c0-.26-.08-.46-.25-.62-.16-.15-.39-.23-.68-.23-.2,0-.38,.03-.53,.08s-.28,.12-.37,.21l-.09,.47h-.62v-.86c.2-.16,.45-.29,.73-.39s.6-.15,.93-.15c.5,0,.91,.13,1.22,.38s.47,.62,.47,1.1v2.13c0,.06,0,.11,0,.17s0,.11,.01,.16l.33,.04v.52h-1.05Zm-1.3-.59c.27,0,.51-.06,.73-.19,.22-.13,.38-.28,.47-.46v-.73h-.86c-.33,0-.59,.08-.78,.23s-.29,.34-.29,.56c0,.19,.06,.34,.18,.44s.3,.15,.54,.15Z"/>
        <path d="M155.3,44.43l.67-.11v-3.16l-.67-.11v-.52h1.39l.05,.58c.14-.21,.32-.37,.55-.49s.48-.17,.78-.17,.55,.07,.76,.2,.37,.34,.48,.61c.14-.25,.32-.45,.55-.6s.5-.22,.8-.22c.45,0,.81,.15,1.07,.46s.39,.77,.39,1.4v2.02l.67,.11v.52h-2.14v-.52l.67-.11v-2.02c0-.44-.07-.74-.22-.93s-.37-.27-.67-.27-.51,.1-.68,.3-.27,.45-.3,.75v2.18l.67,.11v.52h-2.14v-.52l.67-.11v-2.02c0-.41-.08-.72-.23-.91s-.38-.29-.67-.29c-.25,0-.45,.05-.6,.15s-.28,.24-.36,.43v2.64l.67,.11v.52h-2.14v-.52Z"/>
        <path d="M163.37,44.43l.67-.11v-3.16l-.67-.11v-.52h1.47v3.79l.67,.11v.52h-2.14v-.52Zm1.47-5.04h-.81v-.82h.81v.82Z"/>
        <path d="M166.01,39.08v-.52h1.47v5.75l.67,.11v.52h-2.14v-.52l.67-.11v-5.11l-.67-.11Z"/>
        <path d="M172.96,41.04l-.4,.06-1.68,4.52c-.11,.3-.27,.56-.48,.78s-.49,.33-.85,.33c-.06,0-.14,0-.25-.02s-.18-.03-.23-.04l.08-.63s.03,0,.15,0,.18,.01,.21,.01c.17,0,.31-.07,.42-.22s.2-.32,.28-.51l.19-.46-1.46-3.75-.4-.07v-.52h1.79v.52l-.5,.08,.76,2.18,.15,.56h.02l.92-2.75-.5-.08v-.52h1.78v.52Z"/>
        <path d="M174.54,41.35h-.81v-.83h.81v.83Zm0,3.6h-.81v-.83h.81v.83Z"/>
        <path d="M157.71,53.31c0-.4,.04-.67,.1-.82s.24-.35,.51-.6c.27-.32,.46-.56,.58-.74s.17-.38,.17-.62c0-.29-.08-.51-.23-.67s-.37-.23-.66-.23c-.25,0-.46,.07-.63,.2s-.26,.33-.26,.59h-.77v-.02c-.02-.44,.13-.79,.45-1.05s.72-.4,1.21-.4c.54,0,.95,.14,1.25,.41s.45,.66,.45,1.15c0,.35-.1,.67-.29,.96s-.45,.59-.76,.9c-.14,.15-.23,.28-.26,.4s-.05,.3-.05,.55h-.81Zm.83,1.68h-.84v-.85h.84v.85Z"/>
        <path d="M161.61,53.31c0-.4,.04-.67,.1-.82s.24-.35,.51-.6c.27-.32,.46-.56,.58-.74s.17-.38,.17-.62c0-.29-.08-.51-.23-.67s-.37-.23-.66-.23c-.25,0-.46,.07-.63,.2s-.26,.33-.26,.59h-.77v-.02c-.02-.44,.13-.79,.45-1.05s.72-.4,1.21-.4c.54,0,.95,.14,1.25,.41s.45,.66,.45,1.15c0,.35-.1,.67-.29,.96s-.45,.59-.76,.9c-.14,.15-.23,.28-.26,.4s-.05,.3-.05,.55h-.81Zm.83,1.68h-.84v-.85h.84v.85Z"/>
      </g>
    </g>
    <g>
      <rect class="tax2cls-3" x="138.33" y="66.51" width="43.6" height="28.7" rx="14.35" ry="14.35"/>
      <g>
        <path d="M145.71,78.51l.67-.11v-4.69l-.67-.11v-.52h4.6v1.43h-.69l-.07-.8h-2.37v2.05h2.3v.63h-2.3v2l.67,.11v.52h-2.14v-.52Z"/>
        <path d="M153.74,79.03c-.02-.12-.04-.23-.06-.32s-.02-.19-.03-.29c-.16,.2-.35,.36-.58,.5s-.48,.2-.75,.2c-.46,0-.81-.11-1.05-.34s-.36-.54-.36-.95,.17-.74,.51-.97,.8-.34,1.4-.34h.83v-.52c0-.26-.08-.46-.25-.62-.16-.15-.39-.23-.68-.23-.2,0-.38,.03-.53,.08s-.28,.12-.37,.21l-.09,.47h-.62v-.86c.2-.16,.45-.29,.73-.39s.6-.15,.93-.15c.5,0,.91,.13,1.22,.38s.47,.62,.47,1.1v2.13c0,.06,0,.11,0,.17s0,.11,.01,.16l.33,.04v.52h-1.05Zm-1.3-.59c.27,0,.51-.06,.73-.19,.22-.13,.38-.28,.47-.46v-.73h-.86c-.33,0-.59,.08-.78,.23s-.29,.34-.29,.56c0,.19,.06,.34,.18,.44s.3,.15,.54,.15Z"/>
        <path d="M155.3,78.51l.67-.11v-3.16l-.67-.11v-.52h1.39l.05,.58c.14-.21,.32-.37,.55-.49s.48-.17,.78-.17,.55,.07,.76,.2,.37,.34,.48,.61c.14-.25,.32-.45,.55-.6s.5-.22,.8-.22c.45,0,.81,.15,1.07,.46s.39,.77,.39,1.4v2.02l.67,.11v.52h-2.14v-.52l.67-.11v-2.02c0-.44-.07-.74-.22-.93s-.37-.27-.67-.27-.51,.1-.68,.3-.27,.45-.3,.75v2.18l.67,.11v.52h-2.14v-.52l.67-.11v-2.02c0-.41-.08-.72-.23-.91s-.38-.29-.67-.29c-.25,0-.45,.05-.6,.15s-.28,.24-.36,.43v2.64l.67,.11v.52h-2.14v-.52Z"/>
        <path d="M163.37,78.51l.67-.11v-3.16l-.67-.11v-.52h1.47v3.79l.67,.11v.52h-2.14v-.52Zm1.47-5.04h-.81v-.82h.81v.82Z"/>
        <path d="M166.01,73.17v-.52h1.47v5.75l.67,.11v.52h-2.14v-.52l.67-.11v-5.11l-.67-.11Z"/>
        <path d="M172.96,75.12l-.4,.06-1.68,4.52c-.11,.3-.27,.56-.48,.78s-.49,.33-.85,.33c-.06,0-.14,0-.25-.02s-.18-.03-.23-.04l.08-.63s.03,0,.15,0,.18,.01,.21,.01c.17,0,.31-.07,.42-.22s.2-.32,.28-.51l.19-.46-1.46-3.75-.4-.07v-.52h1.79v.52l-.5,.08,.76,2.18,.15,.56h.02l.92-2.75-.5-.08v-.52h1.78v.52Z"/>
        <path d="M174.54,75.43h-.81v-.83h.81v.83Zm0,3.6h-.81v-.83h.81v.83Z"/>
        <path d="M157.71,87.39c0-.4,.04-.67,.1-.82s.24-.35,.51-.6c.27-.32,.46-.56,.58-.74s.17-.38,.17-.62c0-.29-.08-.51-.23-.67s-.37-.23-.66-.23c-.25,0-.46,.07-.63,.2s-.26,.33-.26,.59h-.77v-.02c-.02-.44,.13-.79,.45-1.05s.72-.4,1.21-.4c.54,0,.95,.14,1.25,.41s.45,.66,.45,1.15c0,.35-.1,.67-.29,.96s-.45,.59-.76,.9c-.14,.15-.23,.28-.26,.4s-.05,.3-.05,.55h-.81Zm.83,1.68h-.84v-.85h.84v.85Z"/>
        <path d="M161.61,87.39c0-.4,.04-.67,.1-.82s.24-.35,.51-.6c.27-.32,.46-.56,.58-.74s.17-.38,.17-.62c0-.29-.08-.51-.23-.67s-.37-.23-.66-.23c-.25,0-.46,.07-.63,.2s-.26,.33-.26,.59h-.77v-.02c-.02-.44,.13-.79,.45-1.05s.72-.4,1.21-.4c.54,0,.95,.14,1.25,.41s.45,.66,.45,1.15c0,.35-.1,.67-.29,.96s-.45,.59-.76,.9c-.14,.15-.23,.28-.26,.4s-.05,.3-.05,.55h-.81Zm.83,1.68h-.84v-.85h.84v.85Z"/>
      </g>
    </g>
    <g>
      <rect class="tax2cls-3" x="138.33" y="134.67" width="43.6" height="28.7" rx="14.35" ry="14.35"/>
      <g>
        <path d="M145.71,146.68l.67-.11v-4.69l-.67-.11v-.52h4.6v1.43h-.69l-.07-.8h-2.37v2.05h2.3v.63h-2.3v2l.67,.11v.52h-2.14v-.52Z"/>
        <path d="M153.74,147.19c-.02-.12-.04-.23-.06-.32s-.02-.19-.03-.29c-.16,.2-.35,.36-.58,.5s-.48,.2-.75,.2c-.46,0-.81-.11-1.05-.34s-.36-.54-.36-.95,.17-.74,.51-.97,.8-.34,1.4-.34h.83v-.52c0-.26-.08-.46-.25-.62-.16-.15-.39-.23-.68-.23-.2,0-.38,.03-.53,.08s-.28,.12-.37,.21l-.09,.47h-.62v-.86c.2-.16,.45-.29,.73-.39s.6-.15,.93-.15c.5,0,.91,.13,1.22,.38s.47,.62,.47,1.1v2.13c0,.06,0,.11,0,.17s0,.11,.01,.16l.33,.04v.52h-1.05Zm-1.3-.59c.27,0,.51-.06,.73-.19,.22-.13,.38-.28,.47-.46v-.73h-.86c-.33,0-.59,.08-.78,.23s-.29,.34-.29,.56c0,.19,.06,.34,.18,.44s.3,.15,.54,.15Z"/>
        <path d="M155.3,146.68l.67-.11v-3.16l-.67-.11v-.52h1.39l.05,.58c.14-.21,.32-.37,.55-.49s.48-.17,.78-.17,.55,.07,.76,.2,.37,.34,.48,.61c.14-.25,.32-.45,.55-.6s.5-.22,.8-.22c.45,0,.81,.15,1.07,.46s.39,.77,.39,1.4v2.02l.67,.11v.52h-2.14v-.52l.67-.11v-2.02c0-.44-.07-.74-.22-.93s-.37-.27-.67-.27-.51,.1-.68,.3-.27,.45-.3,.75v2.18l.67,.11v.52h-2.14v-.52l.67-.11v-2.02c0-.41-.08-.72-.23-.91s-.38-.29-.67-.29c-.25,0-.45,.05-.6,.15s-.28,.24-.36,.43v2.64l.67,.11v.52h-2.14v-.52Z"/>
        <path d="M163.37,146.68l.67-.11v-3.16l-.67-.11v-.52h1.47v3.79l.67,.11v.52h-2.14v-.52Zm1.47-5.04h-.81v-.82h.81v.82Z"/>
        <path d="M166.01,141.33v-.52h1.47v5.75l.67,.11v.52h-2.14v-.52l.67-.11v-5.11l-.67-.11Z"/>
        <path d="M172.96,143.29l-.4,.06-1.68,4.52c-.11,.3-.27,.56-.48,.78s-.49,.33-.85,.33c-.06,0-.14,0-.25-.02s-.18-.03-.23-.04l.08-.63s.03,0,.15,0,.18,.01,.21,.01c.17,0,.31-.07,.42-.22s.2-.32,.28-.51l.19-.46-1.46-3.75-.4-.07v-.52h1.79v.52l-.5,.08,.76,2.18,.15,.56h.02l.92-2.75-.5-.08v-.52h1.78v.52Z"/>
        <path d="M174.54,143.59h-.81v-.83h.81v.83Zm0,3.6h-.81v-.83h.81v.83Z"/>
        <path d="M157.71,155.56c0-.4,.04-.67,.1-.82s.24-.35,.51-.6c.27-.32,.46-.56,.58-.74s.17-.38,.17-.62c0-.29-.08-.51-.23-.67s-.37-.23-.66-.23c-.25,0-.46,.07-.63,.2s-.26,.33-.26,.59h-.77v-.02c-.02-.44,.13-.79,.45-1.05s.72-.4,1.21-.4c.54,0,.95,.14,1.25,.41s.45,.66,.45,1.15c0,.35-.1,.67-.29,.96s-.45,.59-.76,.9c-.14,.15-.23,.28-.26,.4s-.05,.3-.05,.55h-.81Zm.83,1.68h-.84v-.85h.84v.85Z"/>
        <path d="M161.61,155.56c0-.4,.04-.67,.1-.82s.24-.35,.51-.6c.27-.32,.46-.56,.58-.74s.17-.38,.17-.62c0-.29-.08-.51-.23-.67s-.37-.23-.66-.23c-.25,0-.46,.07-.63,.2s-.26,.33-.26,.59h-.77v-.02c-.02-.44,.13-.79,.45-1.05s.72-.4,1.21-.4c.54,0,.95,.14,1.25,.41s.45,.66,.45,1.15c0,.35-.1,.67-.29,.96s-.45,.59-.76,.9c-.14,.15-.23,.28-.26,.4s-.05,.3-.05,.55h-.81Zm.83,1.68h-.84v-.85h.84v.85Z"/>
      </g>
    </g>
    <g>
      <rect class="tax2cls-3" x="138.33" y="100.59" width="43.6" height="28.7" rx="14.35" ry="14.35"/>
      <g>
        <path d="M145.71,112.59l.67-.11v-4.69l-.67-.11v-.52h4.6v1.43h-.69l-.07-.8h-2.37v2.05h2.3v.63h-2.3v2l.67,.11v.52h-2.14v-.52Z"/>
        <path d="M153.74,113.11c-.02-.12-.04-.23-.06-.32s-.02-.19-.03-.29c-.16,.2-.35,.36-.58,.5s-.48,.2-.75,.2c-.46,0-.81-.11-1.05-.34s-.36-.54-.36-.95,.17-.74,.51-.97,.8-.34,1.4-.34h.83v-.52c0-.26-.08-.46-.25-.62-.16-.15-.39-.23-.68-.23-.2,0-.38,.03-.53,.08s-.28,.12-.37,.21l-.09,.47h-.62v-.86c.2-.16,.45-.29,.73-.39s.6-.15,.93-.15c.5,0,.91,.13,1.22,.38s.47,.62,.47,1.1v2.13c0,.06,0,.11,0,.17s0,.11,.01,.16l.33,.04v.52h-1.05Zm-1.3-.59c.27,0,.51-.06,.73-.19,.22-.13,.38-.28,.47-.46v-.73h-.86c-.33,0-.59,.08-.78,.23s-.29,.34-.29,.56c0,.19,.06,.34,.18,.44s.3,.15,.54,.15Z"/>
        <path d="M155.3,112.59l.67-.11v-3.16l-.67-.11v-.52h1.39l.05,.58c.14-.21,.32-.37,.55-.49s.48-.17,.78-.17,.55,.07,.76,.2,.37,.34,.48,.61c.14-.25,.32-.45,.55-.6s.5-.22,.8-.22c.45,0,.81,.15,1.07,.46s.39,.77,.39,1.4v2.02l.67,.11v.52h-2.14v-.52l.67-.11v-2.02c0-.44-.07-.74-.22-.93s-.37-.27-.67-.27-.51,.1-.68,.3-.27,.45-.3,.75v2.18l.67,.11v.52h-2.14v-.52l.67-.11v-2.02c0-.41-.08-.72-.23-.91s-.38-.29-.67-.29c-.25,0-.45,.05-.6,.15s-.28,.24-.36,.43v2.64l.67,.11v.52h-2.14v-.52Z"/>
        <path d="M163.37,112.59l.67-.11v-3.16l-.67-.11v-.52h1.47v3.79l.67,.11v.52h-2.14v-.52Zm1.47-5.04h-.81v-.82h.81v.82Z"/>
        <path d="M166.01,107.25v-.52h1.47v5.75l.67,.11v.52h-2.14v-.52l.67-.11v-5.11l-.67-.11Z"/>
        <path d="M172.96,109.2l-.4,.06-1.68,4.52c-.11,.3-.27,.56-.48,.78s-.49,.33-.85,.33c-.06,0-.14,0-.25-.02s-.18-.03-.23-.04l.08-.63s.03,0,.15,0,.18,.01,.21,.01c.17,0,.31-.07,.42-.22s.2-.32,.28-.51l.19-.46-1.46-3.75-.4-.07v-.52h1.79v.52l-.5,.08,.76,2.18,.15,.56h.02l.92-2.75-.5-.08v-.52h1.78v.52Z"/>
        <path d="M174.54,109.51h-.81v-.83h.81v.83Zm0,3.6h-.81v-.83h.81v.83Z"/>
        <path d="M157.71,121.48c0-.4,.04-.67,.1-.82s.24-.35,.51-.6c.27-.32,.46-.56,.58-.74s.17-.38,.17-.62c0-.29-.08-.51-.23-.67s-.37-.23-.66-.23c-.25,0-.46,.07-.63,.2s-.26,.33-.26,.59h-.77v-.02c-.02-.44,.13-.79,.45-1.05s.72-.4,1.21-.4c.54,0,.95,.14,1.25,.41s.45,.66,.45,1.15c0,.35-.1,.67-.29,.96s-.45,.59-.76,.9c-.14,.15-.23,.28-.26,.4s-.05,.3-.05,.55h-.81Zm.83,1.68h-.84v-.85h.84v.85Z"/>
        <path d="M161.61,121.48c0-.4,.04-.67,.1-.82s.24-.35,.51-.6c.27-.32,.46-.56,.58-.74s.17-.38,.17-.62c0-.29-.08-.51-.23-.67s-.37-.23-.66-.23c-.25,0-.46,.07-.63,.2s-.26,.33-.26,.59h-.77v-.02c-.02-.44,.13-.79,.45-1.05s.72-.4,1.21-.4c.54,0,.95,.14,1.25,.41s.45,.66,.45,1.15c0,.35-.1,.67-.29,.96s-.45,.59-.76,.9c-.14,.15-.23,.28-.26,.4s-.05,.3-.05,.55h-.81Zm.83,1.68h-.84v-.85h.84v.85Z"/>
      </g>
    </g>
  </g>
  <g>
    <g>
      <rect class="tax2cls-5" x="178.2" y="20.02" width="28.27" height="20.81" rx="10.41" ry="10.41"/>
      <g>
        <path d="M186.3,28.48c-.13,.13-.31,.26-.56,.37s-.57,.18-.96,.18c-.58,0-1.05-.2-1.41-.61s-.55-.93-.55-1.58v-.07c0-.65,.18-1.18,.54-1.58s.84-.6,1.44-.6c.32,0,.6,.05,.84,.15s.45,.23,.61,.4v.78h-.41l-.14-.6c-.1-.08-.21-.14-.35-.2s-.3-.08-.49-.08c-.47,0-.83,.16-1.08,.48s-.38,.73-.38,1.24v.08c0,.52,.12,.93,.37,1.25s.58,.48,1.01,.48c.24,0,.43-.02,.58-.07s.27-.1,.36-.16v-.95l-.71-.03v-.43h1.29v1.55Z"/>
        <path d="M188.49,29.04c-.45,0-.8-.15-1.07-.45s-.4-.68-.4-1.16v-.13c0-.46,.14-.84,.41-1.14s.59-.46,.96-.46c.43,0,.76,.13,.98,.39s.33,.61,.33,1.04v.36h-2.09c0,.32,.08,.58,.23,.78s.36,.3,.63,.3c.2,0,.37-.03,.52-.08s.28-.13,.39-.23l.23,.38c-.11,.11-.27,.2-.46,.28s-.42,.11-.68,.11Zm-.09-2.87c-.2,0-.36,.08-.5,.25s-.22,.37-.25,.62h0s1.48,.01,1.48,.01v-.08c0-.23-.06-.42-.18-.58s-.3-.23-.55-.23Z"/>
        <path d="M190.21,28.6l.48-.08v-2.29l-.48-.08v-.38h1l.04,.48c.11-.17,.24-.3,.4-.4s.34-.14,.55-.14c.35,0,.61,.1,.8,.3s.28,.52,.28,.94v1.57l.48,.08v.37h-1.55v-.37l.48-.08v-1.56c0-.28-.06-.48-.17-.6s-.28-.18-.51-.18c-.17,0-.32,.04-.45,.12s-.23,.19-.31,.33v1.88l.48,.08v.37h-1.55v-.37Z"/>
        <path d="M196.49,28.5c-.1,.17-.23,.3-.39,.4s-.34,.14-.55,.14c-.35,0-.62-.11-.82-.33s-.29-.57-.29-1.04v-1.43l-.37-.08v-.38h.95v1.9c0,.34,.05,.58,.15,.71s.26,.19,.47,.19,.38-.04,.51-.13,.24-.2,.31-.36v-1.85l-.43-.08v-.38h1.01v2.75l.37,.08v.37h-.89l-.04-.47Z"/>
        <path d="M200.34,26.77h-.44l-.09-.39c-.07-.07-.16-.12-.27-.16s-.23-.06-.37-.06c-.21,0-.36,.05-.46,.14s-.15,.2-.15,.33,.04,.23,.13,.3,.27,.14,.54,.2c.41,.09,.71,.21,.9,.35s.3,.35,.3,.6c0,.28-.12,.51-.35,.69s-.53,.26-.9,.26c-.24,0-.46-.03-.66-.08s-.37-.14-.52-.24v-.73s.44,0,.44,0l.11,.43c.07,.06,.16,.11,.27,.13s.23,.04,.35,.04c.21,0,.37-.04,.49-.13s.18-.19,.18-.33c0-.13-.05-.23-.15-.32s-.28-.16-.56-.22c-.39-.08-.68-.2-.88-.35s-.3-.34-.3-.59,.11-.48,.33-.67,.51-.28,.87-.28c.24,0,.46,.03,.66,.09s.35,.15,.48,.26l.03,.71Z"/>
        <path d="M201.73,26.37h-.58v-.6h.58v.6Zm0,2.61h-.58v-.6h.58v.6Z"/>
        <path d="M190.55,35.04c0-.29,.03-.49,.07-.6s.17-.26,.37-.44c.2-.23,.33-.41,.42-.53s.12-.27,.12-.45c0-.21-.06-.37-.17-.48s-.27-.17-.48-.17c-.18,0-.33,.05-.46,.15s-.19,.24-.19,.43h-.56v-.02c-.01-.32,.1-.57,.33-.76s.52-.29,.88-.29c.39,0,.69,.1,.91,.3s.32,.48,.32,.83c0,.25-.07,.49-.21,.7s-.32,.43-.55,.65c-.1,.11-.17,.2-.19,.29s-.03,.22-.03,.4h-.58Zm.6,1.22h-.61v-.62h.61v.62Z"/>
        <path d="M193.37,35.04c0-.29,.03-.49,.07-.6s.17-.26,.37-.44c.2-.23,.33-.41,.42-.53s.12-.27,.12-.45c0-.21-.06-.37-.17-.48s-.27-.17-.48-.17c-.18,0-.33,.05-.46,.15s-.19,.24-.19,.43h-.56v-.02c-.01-.32,.1-.57,.33-.76s.52-.29,.88-.29c.39,0,.69,.1,.91,.3s.32,.48,.32,.83c0,.25-.07,.49-.21,.7s-.32,.43-.55,.65c-.1,.11-.17,.2-.19,.29s-.03,.22-.03,.4h-.58Zm.6,1.22h-.61v-.62h.61v.62Z"/>
      </g>
    </g>
    <g>
      <rect class="tax2cls-5" x="178.2" y="45.38" width="28.27" height="20.81" rx="10.41" ry="10.41"/>
      <g>
        <path d="M186.3,53.85c-.13,.13-.31,.26-.56,.37s-.57,.18-.96,.18c-.58,0-1.05-.2-1.41-.61s-.55-.93-.55-1.58v-.07c0-.65,.18-1.18,.54-1.58s.84-.6,1.44-.6c.32,0,.6,.05,.84,.15s.45,.23,.61,.4v.78h-.41l-.14-.6c-.1-.08-.21-.14-.35-.2s-.3-.08-.49-.08c-.47,0-.83,.16-1.08,.48s-.38,.73-.38,1.24v.08c0,.52,.12,.93,.37,1.25s.58,.48,1.01,.48c.24,0,.43-.02,.58-.07s.27-.1,.36-.16v-.95l-.71-.03v-.43h1.29v1.55Z"/>
        <path d="M188.49,54.4c-.45,0-.8-.15-1.07-.45s-.4-.68-.4-1.16v-.13c0-.46,.14-.84,.41-1.14s.59-.46,.96-.46c.43,0,.76,.13,.98,.39s.33,.61,.33,1.04v.36h-2.09c0,.32,.08,.58,.23,.78s.36,.3,.63,.3c.2,0,.37-.03,.52-.08s.28-.13,.39-.23l.23,.38c-.11,.11-.27,.2-.46,.28s-.42,.11-.68,.11Zm-.09-2.87c-.2,0-.36,.08-.5,.25s-.22,.37-.25,.62h0s1.48,.01,1.48,.01v-.08c0-.23-.06-.42-.18-.58s-.3-.23-.55-.23Z"/>
        <path d="M190.21,53.96l.48-.08v-2.29l-.48-.08v-.38h1l.04,.48c.11-.17,.24-.3,.4-.4s.34-.14,.55-.14c.35,0,.61,.1,.8,.3s.28,.52,.28,.94v1.57l.48,.08v.37h-1.55v-.37l.48-.08v-1.56c0-.28-.06-.48-.17-.6s-.28-.18-.51-.18c-.17,0-.32,.04-.45,.12s-.23,.19-.31,.33v1.88l.48,.08v.37h-1.55v-.37Z"/>
        <path d="M196.49,53.86c-.1,.17-.23,.3-.39,.4s-.34,.14-.55,.14c-.35,0-.62-.11-.82-.33s-.29-.57-.29-1.04v-1.43l-.37-.08v-.38h.95v1.9c0,.34,.05,.58,.15,.71s.26,.19,.47,.19,.38-.04,.51-.13,.24-.2,.31-.36v-1.85l-.43-.08v-.38h1.01v2.75l.37,.08v.37h-.89l-.04-.47Z"/>
        <path d="M200.34,52.14h-.44l-.09-.39c-.07-.07-.16-.12-.27-.16s-.23-.06-.37-.06c-.21,0-.36,.05-.46,.14s-.15,.2-.15,.33,.04,.23,.13,.3,.27,.14,.54,.2c.41,.09,.71,.21,.9,.35s.3,.35,.3,.6c0,.28-.12,.51-.35,.69s-.53,.26-.9,.26c-.24,0-.46-.03-.66-.08s-.37-.14-.52-.24v-.73s.44,0,.44,0l.11,.43c.07,.06,.16,.11,.27,.13s.23,.04,.35,.04c.21,0,.37-.04,.49-.13s.18-.19,.18-.33c0-.13-.05-.23-.15-.32s-.28-.16-.56-.22c-.39-.08-.68-.2-.88-.35s-.3-.34-.3-.59,.11-.48,.33-.67,.51-.28,.87-.28c.24,0,.46,.03,.66,.09s.35,.15,.48,.26l.03,.71Z"/>
        <path d="M201.73,51.73h-.58v-.6h.58v.6Zm0,2.61h-.58v-.6h.58v.6Z"/>
        <path d="M190.55,60.4c0-.29,.03-.49,.07-.6s.17-.26,.37-.44c.2-.23,.33-.41,.42-.53s.12-.27,.12-.45c0-.21-.06-.37-.17-.48s-.27-.17-.48-.17c-.18,0-.33,.05-.46,.15s-.19,.24-.19,.43h-.56v-.02c-.01-.32,.1-.57,.33-.76s.52-.29,.88-.29c.39,0,.69,.1,.91,.3s.32,.48,.32,.83c0,.25-.07,.49-.21,.7s-.32,.43-.55,.65c-.1,.11-.17,.2-.19,.29s-.03,.22-.03,.4h-.58Zm.6,1.22h-.61v-.62h.61v.62Z"/>
        <path d="M193.37,60.4c0-.29,.03-.49,.07-.6s.17-.26,.37-.44c.2-.23,.33-.41,.42-.53s.12-.27,.12-.45c0-.21-.06-.37-.17-.48s-.27-.17-.48-.17c-.18,0-.33,.05-.46,.15s-.19,.24-.19,.43h-.56v-.02c-.01-.32,.1-.57,.33-.76s.52-.29,.88-.29c.39,0,.69,.1,.91,.3s.32,.48,.32,.83c0,.25-.07,.49-.21,.7s-.32,.43-.55,.65c-.1,.11-.17,.2-.19,.29s-.03,.22-.03,.4h-.58Zm.6,1.22h-.61v-.62h.61v.62Z"/>
      </g>
    </g>
    <g>
      <rect class="tax2cls-5" x="178.2" y="70.74" width="28.27" height="20.81" rx="10.41" ry="10.41"/>
      <g>
        <path d="M186.3,79.21c-.13,.13-.31,.26-.56,.37s-.57,.18-.96,.18c-.58,0-1.05-.2-1.41-.61s-.55-.93-.55-1.58v-.07c0-.65,.18-1.18,.54-1.58s.84-.6,1.44-.6c.32,0,.6,.05,.84,.15s.45,.23,.61,.4v.78h-.41l-.14-.6c-.1-.08-.21-.14-.35-.2s-.3-.08-.49-.08c-.47,0-.83,.16-1.08,.48s-.38,.73-.38,1.24v.08c0,.52,.12,.93,.37,1.25s.58,.48,1.01,.48c.24,0,.43-.02,.58-.07s.27-.1,.36-.16v-.95l-.71-.03v-.43h1.29v1.55Z"/>
        <path d="M188.49,79.76c-.45,0-.8-.15-1.07-.45s-.4-.68-.4-1.16v-.13c0-.46,.14-.84,.41-1.14s.59-.46,.96-.46c.43,0,.76,.13,.98,.39s.33,.61,.33,1.04v.36h-2.09c0,.32,.08,.58,.23,.78s.36,.3,.63,.3c.2,0,.37-.03,.52-.08s.28-.13,.39-.23l.23,.38c-.11,.11-.27,.2-.46,.28s-.42,.11-.68,.11Zm-.09-2.87c-.2,0-.36,.08-.5,.25s-.22,.37-.25,.62h0s1.48,.01,1.48,.01v-.08c0-.23-.06-.42-.18-.58s-.3-.23-.55-.23Z"/>
        <path d="M190.21,79.32l.48-.08v-2.29l-.48-.08v-.38h1l.04,.48c.11-.17,.24-.3,.4-.4s.34-.14,.55-.14c.35,0,.61,.1,.8,.3s.28,.52,.28,.94v1.57l.48,.08v.37h-1.55v-.37l.48-.08v-1.56c0-.28-.06-.48-.17-.6s-.28-.18-.51-.18c-.17,0-.32,.04-.45,.12s-.23,.19-.31,.33v1.88l.48,.08v.37h-1.55v-.37Z"/>
        <path d="M196.49,79.22c-.1,.17-.23,.3-.39,.4s-.34,.14-.55,.14c-.35,0-.62-.11-.82-.33s-.29-.57-.29-1.04v-1.43l-.37-.08v-.38h.95v1.9c0,.34,.05,.58,.15,.71s.26,.19,.47,.19,.38-.04,.51-.13,.24-.2,.31-.36v-1.85l-.43-.08v-.38h1.01v2.75l.37,.08v.37h-.89l-.04-.47Z"/>
        <path d="M200.34,77.5h-.44l-.09-.39c-.07-.07-.16-.12-.27-.16s-.23-.06-.37-.06c-.21,0-.36,.05-.46,.14s-.15,.2-.15,.33,.04,.23,.13,.3,.27,.14,.54,.2c.41,.09,.71,.21,.9,.35s.3,.35,.3,.6c0,.28-.12,.51-.35,.69s-.53,.26-.9,.26c-.24,0-.46-.03-.66-.08s-.37-.14-.52-.24v-.73s.44,0,.44,0l.11,.43c.07,.06,.16,.11,.27,.13s.23,.04,.35,.04c.21,0,.37-.04,.49-.13s.18-.19,.18-.33c0-.13-.05-.23-.15-.32s-.28-.16-.56-.22c-.39-.08-.68-.2-.88-.35s-.3-.34-.3-.59,.11-.48,.33-.67,.51-.28,.87-.28c.24,0,.46,.03,.66,.09s.35,.15,.48,.26l.03,.71Z"/>
        <path d="M201.73,77.09h-.58v-.6h.58v.6Zm0,2.61h-.58v-.6h.58v.6Z"/>
        <path d="M190.55,85.77c0-.29,.03-.49,.07-.6s.17-.26,.37-.44c.2-.23,.33-.41,.42-.53s.12-.27,.12-.45c0-.21-.06-.37-.17-.48s-.27-.17-.48-.17c-.18,0-.33,.05-.46,.15s-.19,.24-.19,.43h-.56v-.02c-.01-.32,.1-.57,.33-.76s.52-.29,.88-.29c.39,0,.69,.1,.91,.3s.32,.48,.32,.83c0,.25-.07,.49-.21,.7s-.32,.43-.55,.65c-.1,.11-.17,.2-.19,.29s-.03,.22-.03,.4h-.58Zm.6,1.22h-.61v-.62h.61v.62Z"/>
        <path d="M193.37,85.77c0-.29,.03-.49,.07-.6s.17-.26,.37-.44c.2-.23,.33-.41,.42-.53s.12-.27,.12-.45c0-.21-.06-.37-.17-.48s-.27-.17-.48-.17c-.18,0-.33,.05-.46,.15s-.19,.24-.19,.43h-.56v-.02c-.01-.32,.1-.57,.33-.76s.52-.29,.88-.29c.39,0,.69,.1,.91,.3s.32,.48,.32,.83c0,.25-.07,.49-.21,.7s-.32,.43-.55,.65c-.1,.11-.17,.2-.19,.29s-.03,.22-.03,.4h-.58Zm.6,1.22h-.61v-.62h.61v.62Z"/>
      </g>
    </g>
    <g>
      <rect class="tax2cls-5" x="178.2" y="96.11" width="28.27" height="20.81" rx="10.41" ry="10.41"/>
      <g>
        <path d="M186.3,104.57c-.13,.13-.31,.26-.56,.37s-.57,.18-.96,.18c-.58,0-1.05-.2-1.41-.61s-.55-.93-.55-1.58v-.07c0-.65,.18-1.18,.54-1.58s.84-.6,1.44-.6c.32,0,.6,.05,.84,.15s.45,.23,.61,.4v.78h-.41l-.14-.6c-.1-.08-.21-.14-.35-.2s-.3-.08-.49-.08c-.47,0-.83,.16-1.08,.48s-.38,.73-.38,1.24v.08c0,.52,.12,.93,.37,1.25s.58,.48,1.01,.48c.24,0,.43-.02,.58-.07s.27-.1,.36-.16v-.95l-.71-.03v-.43h1.29v1.55Z"/>
        <path d="M188.49,105.12c-.45,0-.8-.15-1.07-.45s-.4-.68-.4-1.16v-.13c0-.46,.14-.84,.41-1.14s.59-.46,.96-.46c.43,0,.76,.13,.98,.39s.33,.61,.33,1.04v.36h-2.09c0,.32,.08,.58,.23,.78s.36,.3,.63,.3c.2,0,.37-.03,.52-.08s.28-.13,.39-.23l.23,.38c-.11,.11-.27,.2-.46,.28s-.42,.11-.68,.11Zm-.09-2.87c-.2,0-.36,.08-.5,.25s-.22,.37-.25,.62h0s1.48,.01,1.48,.01v-.08c0-.23-.06-.42-.18-.58s-.3-.23-.55-.23Z"/>
        <path d="M190.21,104.69l.48-.08v-2.29l-.48-.08v-.38h1l.04,.48c.11-.17,.24-.3,.4-.4s.34-.14,.55-.14c.35,0,.61,.1,.8,.3s.28,.52,.28,.94v1.57l.48,.08v.37h-1.55v-.37l.48-.08v-1.56c0-.28-.06-.48-.17-.6s-.28-.18-.51-.18c-.17,0-.32,.04-.45,.12s-.23,.19-.31,.33v1.88l.48,.08v.37h-1.55v-.37Z"/>
        <path d="M196.49,104.58c-.1,.17-.23,.3-.39,.4s-.34,.14-.55,.14c-.35,0-.62-.11-.82-.33s-.29-.57-.29-1.04v-1.43l-.37-.08v-.38h.95v1.9c0,.34,.05,.58,.15,.71s.26,.19,.47,.19,.38-.04,.51-.13,.24-.2,.31-.36v-1.85l-.43-.08v-.38h1.01v2.75l.37,.08v.37h-.89l-.04-.47Z"/>
        <path d="M200.34,102.86h-.44l-.09-.39c-.07-.07-.16-.12-.27-.16s-.23-.06-.37-.06c-.21,0-.36,.05-.46,.14s-.15,.2-.15,.33,.04,.23,.13,.3,.27,.14,.54,.2c.41,.09,.71,.21,.9,.35s.3,.35,.3,.6c0,.28-.12,.51-.35,.69s-.53,.26-.9,.26c-.24,0-.46-.03-.66-.08s-.37-.14-.52-.24v-.73s.44,0,.44,0l.11,.43c.07,.06,.16,.11,.27,.13s.23,.04,.35,.04c.21,0,.37-.04,.49-.13s.18-.19,.18-.33c0-.13-.05-.23-.15-.32s-.28-.16-.56-.22c-.39-.08-.68-.2-.88-.35s-.3-.34-.3-.59,.11-.48,.33-.67,.51-.28,.87-.28c.24,0,.46,.03,.66,.09s.35,.15,.48,.26l.03,.71Z"/>
        <path d="M201.73,102.45h-.58v-.6h.58v.6Zm0,2.61h-.58v-.6h.58v.6Z"/>
        <path d="M190.55,111.13c0-.29,.03-.49,.07-.6s.17-.26,.37-.44c.2-.23,.33-.41,.42-.53s.12-.27,.12-.45c0-.21-.06-.37-.17-.48s-.27-.17-.48-.17c-.18,0-.33,.05-.46,.15s-.19,.24-.19,.43h-.56v-.02c-.01-.32,.1-.57,.33-.76s.52-.29,.88-.29c.39,0,.69,.1,.91,.3s.32,.48,.32,.83c0,.25-.07,.49-.21,.7s-.32,.43-.55,.65c-.1,.11-.17,.2-.19,.29s-.03,.22-.03,.4h-.58Zm.6,1.22h-.61v-.62h.61v.62Z"/>
        <path d="M193.37,111.13c0-.29,.03-.49,.07-.6s.17-.26,.37-.44c.2-.23,.33-.41,.42-.53s.12-.27,.12-.45c0-.21-.06-.37-.17-.48s-.27-.17-.48-.17c-.18,0-.33,.05-.46,.15s-.19,.24-.19,.43h-.56v-.02c-.01-.32,.1-.57,.33-.76s.52-.29,.88-.29c.39,0,.69,.1,.91,.3s.32,.48,.32,.83c0,.25-.07,.49-.21,.7s-.32,.43-.55,.65c-.1,.11-.17,.2-.19,.29s-.03,.22-.03,.4h-.58Zm.6,1.22h-.61v-.62h.61v.62Z"/>
      </g>
    </g>
    <g>
      <rect class="tax2cls-5" x="178.2" y="121.47" width="28.27" height="20.81" rx="10.41" ry="10.41"/>
      <g>
        <path d="M186.3,129.93c-.13,.13-.31,.26-.56,.37s-.57,.18-.96,.18c-.58,0-1.05-.2-1.41-.61s-.55-.93-.55-1.58v-.07c0-.65,.18-1.18,.54-1.58s.84-.6,1.44-.6c.32,0,.6,.05,.84,.15s.45,.23,.61,.4v.78h-.41l-.14-.6c-.1-.08-.21-.14-.35-.2s-.3-.08-.49-.08c-.47,0-.83,.16-1.08,.48s-.38,.73-.38,1.24v.08c0,.52,.12,.93,.37,1.25s.58,.48,1.01,.48c.24,0,.43-.02,.58-.07s.27-.1,.36-.16v-.95l-.71-.03v-.43h1.29v1.55Z"/>
        <path d="M188.49,130.48c-.45,0-.8-.15-1.07-.45s-.4-.68-.4-1.16v-.13c0-.46,.14-.84,.41-1.14s.59-.46,.96-.46c.43,0,.76,.13,.98,.39s.33,.61,.33,1.04v.36h-2.09c0,.32,.08,.58,.23,.78s.36,.3,.63,.3c.2,0,.37-.03,.52-.08s.28-.13,.39-.23l.23,.38c-.11,.11-.27,.2-.46,.28s-.42,.11-.68,.11Zm-.09-2.87c-.2,0-.36,.08-.5,.25s-.22,.37-.25,.62h0s1.48,.01,1.48,.01v-.08c0-.23-.06-.42-.18-.58s-.3-.23-.55-.23Z"/>
        <path d="M190.21,130.05l.48-.08v-2.29l-.48-.08v-.38h1l.04,.48c.11-.17,.24-.3,.4-.4s.34-.14,.55-.14c.35,0,.61,.1,.8,.3s.28,.52,.28,.94v1.57l.48,.08v.37h-1.55v-.37l.48-.08v-1.56c0-.28-.06-.48-.17-.6s-.28-.18-.51-.18c-.17,0-.32,.04-.45,.12s-.23,.19-.31,.33v1.88l.48,.08v.37h-1.55v-.37Z"/>
        <path d="M196.49,129.95c-.1,.17-.23,.3-.39,.4s-.34,.14-.55,.14c-.35,0-.62-.11-.82-.33s-.29-.57-.29-1.04v-1.43l-.37-.08v-.38h.95v1.9c0,.34,.05,.58,.15,.71s.26,.19,.47,.19,.38-.04,.51-.13,.24-.2,.31-.36v-1.85l-.43-.08v-.38h1.01v2.75l.37,.08v.37h-.89l-.04-.47Z"/>
        <path d="M200.34,128.22h-.44l-.09-.39c-.07-.07-.16-.12-.27-.16s-.23-.06-.37-.06c-.21,0-.36,.05-.46,.14s-.15,.2-.15,.33,.04,.23,.13,.3,.27,.14,.54,.2c.41,.09,.71,.21,.9,.35s.3,.35,.3,.6c0,.28-.12,.51-.35,.69s-.53,.26-.9,.26c-.24,0-.46-.03-.66-.08s-.37-.14-.52-.24v-.73s.44,0,.44,0l.11,.43c.07,.06,.16,.11,.27,.13s.23,.04,.35,.04c.21,0,.37-.04,.49-.13s.18-.19,.18-.33c0-.13-.05-.23-.15-.32s-.28-.16-.56-.22c-.39-.08-.68-.2-.88-.35s-.3-.34-.3-.59,.11-.48,.33-.67,.51-.28,.87-.28c.24,0,.46,.03,.66,.09s.35,.15,.48,.26l.03,.71Z"/>
        <path d="M201.73,127.81h-.58v-.6h.58v.6Zm0,2.61h-.58v-.6h.58v.6Z"/>
        <path d="M190.55,136.49c0-.29,.03-.49,.07-.6s.17-.26,.37-.44c.2-.23,.33-.41,.42-.53s.12-.27,.12-.45c0-.21-.06-.37-.17-.48s-.27-.17-.48-.17c-.18,0-.33,.05-.46,.15s-.19,.24-.19,.43h-.56v-.02c-.01-.32,.1-.57,.33-.76s.52-.29,.88-.29c.39,0,.69,.1,.91,.3s.32,.48,.32,.83c0,.25-.07,.49-.21,.7s-.32,.43-.55,.65c-.1,.11-.17,.2-.19,.29s-.03,.22-.03,.4h-.58Zm.6,1.22h-.61v-.62h.61v.62Z"/>
        <path d="M193.37,136.49c0-.29,.03-.49,.07-.6s.17-.26,.37-.44c.2-.23,.33-.41,.42-.53s.12-.27,.12-.45c0-.21-.06-.37-.17-.48s-.27-.17-.48-.17c-.18,0-.33,.05-.46,.15s-.19,.24-.19,.43h-.56v-.02c-.01-.32,.1-.57,.33-.76s.52-.29,.88-.29c.39,0,.69,.1,.91,.3s.32,.48,.32,.83c0,.25-.07,.49-.21,.7s-.32,.43-.55,.65c-.1,.11-.17,.2-.19,.29s-.03,.22-.03,.4h-.58Zm.6,1.22h-.61v-.62h.61v.62Z"/>
      </g>
    </g>
    <g>
      <rect class="tax2cls-5" x="178.2" y="146.83" width="28.27" height="20.81" rx="10.41" ry="10.41"/>
      <g>
        <path d="M186.3,155.29c-.13,.13-.31,.26-.56,.37s-.57,.18-.96,.18c-.58,0-1.05-.2-1.41-.61s-.55-.93-.55-1.58v-.07c0-.65,.18-1.18,.54-1.58s.84-.6,1.44-.6c.32,0,.6,.05,.84,.15s.45,.23,.61,.4v.78h-.41l-.14-.6c-.1-.08-.21-.14-.35-.2s-.3-.08-.49-.08c-.47,0-.83,.16-1.08,.48s-.38,.73-.38,1.24v.08c0,.52,.12,.93,.37,1.25s.58,.48,1.01,.48c.24,0,.43-.02,.58-.07s.27-.1,.36-.16v-.95l-.71-.03v-.43h1.29v1.55Z"/>
        <path d="M188.49,155.84c-.45,0-.8-.15-1.07-.45s-.4-.68-.4-1.16v-.13c0-.46,.14-.84,.41-1.14s.59-.46,.96-.46c.43,0,.76,.13,.98,.39s.33,.61,.33,1.04v.36h-2.09c0,.32,.08,.58,.23,.78s.36,.3,.63,.3c.2,0,.37-.03,.52-.08s.28-.13,.39-.23l.23,.38c-.11,.11-.27,.2-.46,.28s-.42,.11-.68,.11Zm-.09-2.87c-.2,0-.36,.08-.5,.25s-.22,.37-.25,.62h0s1.48,.01,1.48,.01v-.08c0-.23-.06-.42-.18-.58s-.3-.23-.55-.23Z"/>
        <path d="M190.21,155.41l.48-.08v-2.29l-.48-.08v-.38h1l.04,.48c.11-.17,.24-.3,.4-.4s.34-.14,.55-.14c.35,0,.61,.1,.8,.3s.28,.52,.28,.94v1.57l.48,.08v.37h-1.55v-.37l.48-.08v-1.56c0-.28-.06-.48-.17-.6s-.28-.18-.51-.18c-.17,0-.32,.04-.45,.12s-.23,.19-.31,.33v1.88l.48,.08v.37h-1.55v-.37Z"/>
        <path d="M196.49,155.31c-.1,.17-.23,.3-.39,.4s-.34,.14-.55,.14c-.35,0-.62-.11-.82-.33s-.29-.57-.29-1.04v-1.43l-.37-.08v-.38h.95v1.9c0,.34,.05,.58,.15,.71s.26,.19,.47,.19,.38-.04,.51-.13,.24-.2,.31-.36v-1.85l-.43-.08v-.38h1.01v2.75l.37,.08v.37h-.89l-.04-.47Z"/>
        <path d="M200.34,153.58h-.44l-.09-.39c-.07-.07-.16-.12-.27-.16s-.23-.06-.37-.06c-.21,0-.36,.05-.46,.14s-.15,.2-.15,.33,.04,.23,.13,.3,.27,.14,.54,.2c.41,.09,.71,.21,.9,.35s.3,.35,.3,.6c0,.28-.12,.51-.35,.69s-.53,.26-.9,.26c-.24,0-.46-.03-.66-.08s-.37-.14-.52-.24v-.73s.44,0,.44,0l.11,.43c.07,.06,.16,.11,.27,.13s.23,.04,.35,.04c.21,0,.37-.04,.49-.13s.18-.19,.18-.33c0-.13-.05-.23-.15-.32s-.28-.16-.56-.22c-.39-.08-.68-.2-.88-.35s-.3-.34-.3-.59,.11-.48,.33-.67,.51-.28,.87-.28c.24,0,.46,.03,.66,.09s.35,.15,.48,.26l.03,.71Z"/>
        <path d="M201.73,153.17h-.58v-.6h.58v.6Zm0,2.61h-.58v-.6h.58v.6Z"/>
        <path d="M190.55,161.85c0-.29,.03-.49,.07-.6s.17-.26,.37-.44c.2-.23,.33-.41,.42-.53s.12-.27,.12-.45c0-.21-.06-.37-.17-.48s-.27-.17-.48-.17c-.18,0-.33,.05-.46,.15s-.19,.24-.19,.43h-.56v-.02c-.01-.32,.1-.57,.33-.76s.52-.29,.88-.29c.39,0,.69,.1,.91,.3s.32,.48,.32,.83c0,.25-.07,.49-.21,.7s-.32,.43-.55,.65c-.1,.11-.17,.2-.19,.29s-.03,.22-.03,.4h-.58Zm.6,1.22h-.61v-.62h.61v.62Z"/>
        <path d="M193.37,161.85c0-.29,.03-.49,.07-.6s.17-.26,.37-.44c.2-.23,.33-.41,.42-.53s.12-.27,.12-.45c0-.21-.06-.37-.17-.48s-.27-.17-.48-.17c-.18,0-.33,.05-.46,.15s-.19,.24-.19,.43h-.56v-.02c-.01-.32,.1-.57,.33-.76s.52-.29,.88-.29c.39,0,.69,.1,.91,.3s.32,.48,.32,.83c0,.25-.07,.49-.21,.7s-.32,.43-.55,.65c-.1,.11-.17,.2-.19,.29s-.03,.22-.03,.4h-.58Zm.6,1.22h-.61v-.62h.61v.62Z"/>
      </g>
    </g>
  </g>
  <g>
    <g>
      <rect class="tax2cls-1" x="205" y="1.54" width="21.08" height="14.35" rx="7.17" ry="7.17"/>
      <g>
        <path d="M209.4,6.28h-.3l-.07-.27s-.11-.08-.18-.11-.16-.04-.25-.04c-.14,0-.25,.03-.32,.09s-.1,.14-.1,.23,.03,.16,.09,.21,.19,.1,.37,.13c.28,.06,.49,.14,.62,.24s.2,.24,.2,.41c0,.2-.08,.35-.24,.48s-.37,.18-.62,.18c-.17,0-.32-.02-.45-.06s-.25-.1-.36-.17v-.5s.3,0,.3,0l.08,.3s.11,.07,.19,.09,.16,.03,.24,.03c.14,0,.26-.03,.34-.09s.12-.13,.12-.23c0-.09-.03-.16-.1-.22s-.2-.11-.38-.15c-.27-.06-.47-.14-.61-.24s-.2-.24-.2-.41,.08-.33,.23-.46,.35-.19,.6-.19c.17,0,.32,.02,.45,.07s.24,.1,.33,.18l.02,.49Z"/>
        <path d="M209.8,8.39l.33-.06v-2.43l-.33-.06v-.26h.68l.04,.27c.07-.1,.16-.18,.27-.23s.23-.08,.37-.08c.27,0,.49,.11,.64,.33s.23,.5,.23,.86v.04c0,.32-.08,.58-.23,.77s-.36,.29-.63,.29c-.14,0-.26-.02-.36-.07s-.19-.11-.26-.2v.76l.33,.06v.26h-1.07v-.26Zm1.81-1.66c0-.25-.05-.46-.15-.62s-.24-.24-.44-.24c-.11,0-.21,.03-.29,.08s-.15,.12-.2,.21v1.08c.05,.09,.12,.16,.2,.21s.18,.07,.3,.07c.19,0,.34-.07,.43-.21s.15-.32,.15-.54v-.04Z"/>
        <path d="M213.39,7.84c-.31,0-.55-.1-.73-.31s-.27-.47-.27-.8v-.09c0-.31,.09-.58,.28-.79s.41-.31,.67-.31c.3,0,.52,.09,.68,.27s.23,.42,.23,.72v.25h-1.44c0,.22,.06,.4,.16,.53s.25,.21,.44,.21c.14,0,.26-.02,.36-.06s.19-.09,.27-.16l.16,.26c-.08,.08-.18,.14-.31,.19s-.29,.08-.47,.08Zm-.06-1.98c-.13,0-.25,.06-.35,.17s-.15,.26-.18,.43h0s1.02,.01,1.02,.01v-.05c0-.16-.04-.29-.13-.4s-.21-.16-.38-.16Z"/>
        <path d="M215.62,7.53c.13,0,.25-.04,.35-.12s.15-.18,.15-.3h.37c0,.2-.08,.37-.25,.52s-.38,.22-.62,.22c-.32,0-.57-.1-.74-.31s-.25-.47-.25-.79v-.09c0-.31,.09-.58,.26-.79s.42-.32,.74-.32c.18,0,.34,.03,.48,.09s.26,.14,.35,.24l.02,.49h-.32l-.09-.35s-.11-.08-.18-.11-.16-.04-.25-.04c-.21,0-.36,.08-.45,.23s-.14,.34-.14,.56v.09c0,.23,.04,.41,.13,.57s.24,.23,.45,.23Z"/>
        <path d="M216.89,7.54l.33-.06v-1.58l-.33-.06v-.26h.74v1.9l.33,.06v.26h-1.07v-.26Zm.74-2.52h-.4v-.41h.4v.41Z"/>
        <path d="M219.27,7.84c-.31,0-.55-.1-.73-.31s-.27-.47-.27-.8v-.09c0-.31,.09-.58,.28-.79s.41-.31,.67-.31c.3,0,.52,.09,.68,.27s.23,.42,.23,.72v.25h-1.44c0,.22,.06,.4,.16,.53s.25,.21,.44,.21c.14,0,.26-.02,.36-.06s.19-.09,.27-.16l.16,.26c-.08,.08-.18,.14-.31,.19s-.29,.08-.47,.08Zm-.06-1.98c-.13,0-.25,.06-.35,.17s-.15,.26-.18,.43h0s1.02,.01,1.02,.01v-.05c0-.16-.04-.29-.13-.4s-.21-.16-.38-.16Z"/>
        <path d="M222.2,6.28h-.3l-.07-.27s-.11-.08-.18-.11-.16-.04-.25-.04c-.14,0-.25,.03-.32,.09s-.1,.14-.1,.23,.03,.16,.09,.21,.19,.1,.37,.13c.28,.06,.49,.14,.62,.24s.2,.24,.2,.41c0,.2-.08,.35-.24,.48s-.37,.18-.62,.18c-.17,0-.32-.02-.45-.06s-.25-.1-.36-.17v-.5s.3,0,.3,0l.08,.3s.11,.07,.19,.09,.16,.03,.24,.03c.14,0,.26-.03,.34-.09s.12-.13,.12-.23c0-.09-.03-.16-.1-.22s-.2-.11-.38-.15c-.27-.06-.47-.14-.61-.24s-.2-.24-.2-.41,.08-.33,.23-.46,.35-.19,.6-.19c.17,0,.32,.02,.45,.07s.24,.1,.33,.18l.02,.49Z"/>
        <path d="M223.16,6h-.4v-.41h.4v.41Zm0,1.8h-.4v-.41h.4v.41Z"/>
        <path d="M214.21,11.98c0-.2,.02-.34,.05-.41s.12-.18,.26-.3c.13-.16,.23-.28,.29-.37s.09-.19,.09-.31c0-.14-.04-.26-.12-.33s-.19-.12-.33-.12c-.12,0-.23,.03-.32,.1s-.13,.17-.13,.3h-.39c0-.23,.07-.41,.23-.54s.36-.2,.6-.2c.27,0,.48,.07,.63,.21s.22,.33,.22,.57c0,.18-.05,.34-.14,.48s-.22,.29-.38,.45c-.07,.07-.12,.14-.13,.2s-.02,.15-.02,.27h-.4Zm.41,.84h-.42v-.43h.42v.43Z"/>
        <path d="M216.16,11.98c0-.2,.02-.34,.05-.41s.12-.18,.26-.3c.13-.16,.23-.28,.29-.37s.09-.19,.09-.31c0-.14-.04-.26-.12-.33s-.19-.12-.33-.12c-.12,0-.23,.03-.32,.1s-.13,.17-.13,.3h-.39c0-.23,.07-.41,.23-.54s.36-.2,.6-.2c.27,0,.48,.07,.63,.21s.22,.33,.22,.57c0,.18-.05,.34-.14,.48s-.22,.29-.38,.45c-.07,.07-.12,.14-.13,.2s-.02,.15-.02,.27h-.4Zm.41,.84h-.42v-.43h.42v.43Z"/>
      </g>
    </g>
    <g>
      <rect class="tax2cls-1" x="205" y="20.35" width="21.08" height="14.35" rx="7.17" ry="7.17"/>
      <g>
        <path d="M209.4,25.09h-.3l-.07-.27s-.11-.08-.18-.11-.16-.04-.25-.04c-.14,0-.25,.03-.32,.09s-.1,.14-.1,.23,.03,.16,.09,.21,.19,.1,.37,.13c.28,.06,.49,.14,.62,.24s.2,.24,.2,.41c0,.2-.08,.35-.24,.48s-.37,.18-.62,.18c-.17,0-.32-.02-.45-.06s-.25-.1-.36-.17v-.5s.3,0,.3,0l.08,.3s.11,.07,.19,.09,.16,.03,.24,.03c.14,0,.26-.03,.34-.09s.12-.13,.12-.23c0-.09-.03-.16-.1-.22s-.2-.11-.38-.15c-.27-.06-.47-.14-.61-.24s-.2-.24-.2-.41,.08-.33,.23-.46,.35-.19,.6-.19c.17,0,.32,.02,.45,.07s.24,.1,.33,.18l.02,.49Z"/>
        <path d="M209.8,27.2l.33-.06v-2.43l-.33-.06v-.26h.68l.04,.27c.07-.1,.16-.18,.27-.23s.23-.08,.37-.08c.27,0,.49,.11,.64,.33s.23,.5,.23,.86v.04c0,.32-.08,.58-.23,.77s-.36,.29-.63,.29c-.14,0-.26-.02-.36-.07s-.19-.11-.26-.2v.76l.33,.06v.26h-1.07v-.26Zm1.81-1.66c0-.25-.05-.46-.15-.62s-.24-.24-.44-.24c-.11,0-.21,.03-.29,.08s-.15,.12-.2,.21v1.08c.05,.09,.12,.16,.2,.21s.18,.07,.3,.07c.19,0,.34-.07,.43-.21s.15-.32,.15-.54v-.04Z"/>
        <path d="M213.39,26.65c-.31,0-.55-.1-.73-.31s-.27-.47-.27-.8v-.09c0-.31,.09-.58,.28-.79s.41-.31,.67-.31c.3,0,.52,.09,.68,.27s.23,.42,.23,.72v.25h-1.44c0,.22,.06,.4,.16,.53s.25,.21,.44,.21c.14,0,.26-.02,.36-.06s.19-.09,.27-.16l.16,.26c-.08,.08-.18,.14-.31,.19s-.29,.08-.47,.08Zm-.06-1.98c-.13,0-.25,.06-.35,.17s-.15,.26-.18,.43h0s1.02,.01,1.02,.01v-.05c0-.16-.04-.29-.13-.4s-.21-.16-.38-.16Z"/>
        <path d="M215.62,26.34c.13,0,.25-.04,.35-.12s.15-.18,.15-.3h.37c0,.2-.08,.37-.25,.52s-.38,.22-.62,.22c-.32,0-.57-.1-.74-.31s-.25-.47-.25-.79v-.09c0-.31,.09-.58,.26-.79s.42-.32,.74-.32c.18,0,.34,.03,.48,.09s.26,.14,.35,.24l.02,.49h-.32l-.09-.35s-.11-.08-.18-.11-.16-.04-.25-.04c-.21,0-.36,.08-.45,.23s-.14,.34-.14,.56v.09c0,.23,.04,.41,.13,.57s.24,.23,.45,.23Z"/>
        <path d="M216.89,26.35l.33-.06v-1.58l-.33-.06v-.26h.74v1.9l.33,.06v.26h-1.07v-.26Zm.74-2.52h-.4v-.41h.4v.41Z"/>
        <path d="M219.27,26.65c-.31,0-.55-.1-.73-.31s-.27-.47-.27-.8v-.09c0-.31,.09-.58,.28-.79s.41-.31,.67-.31c.3,0,.52,.09,.68,.27s.23,.42,.23,.72v.25h-1.44c0,.22,.06,.4,.16,.53s.25,.21,.44,.21c.14,0,.26-.02,.36-.06s.19-.09,.27-.16l.16,.26c-.08,.08-.18,.14-.31,.19s-.29,.08-.47,.08Zm-.06-1.98c-.13,0-.25,.06-.35,.17s-.15,.26-.18,.43h0s1.02,.01,1.02,.01v-.05c0-.16-.04-.29-.13-.4s-.21-.16-.38-.16Z"/>
        <path d="M222.2,25.09h-.3l-.07-.27s-.11-.08-.18-.11-.16-.04-.25-.04c-.14,0-.25,.03-.32,.09s-.1,.14-.1,.23,.03,.16,.09,.21,.19,.1,.37,.13c.28,.06,.49,.14,.62,.24s.2,.24,.2,.41c0,.2-.08,.35-.24,.48s-.37,.18-.62,.18c-.17,0-.32-.02-.45-.06s-.25-.1-.36-.17v-.5s.3,0,.3,0l.08,.3s.11,.07,.19,.09,.16,.03,.24,.03c.14,0,.26-.03,.34-.09s.12-.13,.12-.23c0-.09-.03-.16-.1-.22s-.2-.11-.38-.15c-.27-.06-.47-.14-.61-.24s-.2-.24-.2-.41,.08-.33,.23-.46,.35-.19,.6-.19c.17,0,.32,.02,.45,.07s.24,.1,.33,.18l.02,.49Z"/>
        <path d="M223.16,24.81h-.4v-.41h.4v.41Zm0,1.8h-.4v-.41h.4v.41Z"/>
        <path d="M214.21,30.79c0-.2,.02-.34,.05-.41s.12-.18,.26-.3c.13-.16,.23-.28,.29-.37s.09-.19,.09-.31c0-.14-.04-.26-.12-.33s-.19-.12-.33-.12c-.12,0-.23,.03-.32,.1s-.13,.17-.13,.3h-.39c0-.23,.07-.41,.23-.54s.36-.2,.6-.2c.27,0,.48,.07,.63,.21s.22,.33,.22,.57c0,.18-.05,.34-.14,.48s-.22,.29-.38,.45c-.07,.07-.12,.14-.13,.2s-.02,.15-.02,.27h-.4Zm.41,.84h-.42v-.43h.42v.43Z"/>
        <path d="M216.16,30.79c0-.2,.02-.34,.05-.41s.12-.18,.26-.3c.13-.16,.23-.28,.29-.37s.09-.19,.09-.31c0-.14-.04-.26-.12-.33s-.19-.12-.33-.12c-.12,0-.23,.03-.32,.1s-.13,.17-.13,.3h-.39c0-.23,.07-.41,.23-.54s.36-.2,.6-.2c.27,0,.48,.07,.63,.21s.22,.33,.22,.57c0,.18-.05,.34-.14,.48s-.22,.29-.38,.45c-.07,.07-.12,.14-.13,.2s-.02,.15-.02,.27h-.4Zm.41,.84h-.42v-.43h.42v.43Z"/>
      </g>
    </g>
    <g>
      <rect class="tax2cls-1" x="205" y="39.16" width="21.08" height="14.35" rx="7.17" ry="7.17"/>
      <g>
        <path d="M209.4,43.91h-.3l-.07-.27s-.11-.08-.18-.11-.16-.04-.25-.04c-.14,0-.25,.03-.32,.09s-.1,.14-.1,.23,.03,.16,.09,.21,.19,.1,.37,.13c.28,.06,.49,.14,.62,.24s.2,.24,.2,.41c0,.2-.08,.35-.24,.48s-.37,.18-.62,.18c-.17,0-.32-.02-.45-.06s-.25-.1-.36-.17v-.5s.3,0,.3,0l.08,.3s.11,.07,.19,.09,.16,.03,.24,.03c.14,0,.26-.03,.34-.09s.12-.13,.12-.23c0-.09-.03-.16-.1-.22s-.2-.11-.38-.15c-.27-.06-.47-.14-.61-.24s-.2-.24-.2-.41,.08-.33,.23-.46,.35-.19,.6-.19c.17,0,.32,.02,.45,.07s.24,.1,.33,.18l.02,.49Z"/>
        <path d="M209.8,46.01l.33-.06v-2.43l-.33-.06v-.26h.68l.04,.27c.07-.1,.16-.18,.27-.23s.23-.08,.37-.08c.27,0,.49,.11,.64,.33s.23,.5,.23,.86v.04c0,.32-.08,.58-.23,.77s-.36,.29-.63,.29c-.14,0-.26-.02-.36-.07s-.19-.11-.26-.2v.76l.33,.06v.26h-1.07v-.26Zm1.81-1.66c0-.25-.05-.46-.15-.62s-.24-.24-.44-.24c-.11,0-.21,.03-.29,.08s-.15,.12-.2,.21v1.08c.05,.09,.12,.16,.2,.21s.18,.07,.3,.07c.19,0,.34-.07,.43-.21s.15-.32,.15-.54v-.04Z"/>
        <path d="M213.39,45.46c-.31,0-.55-.1-.73-.31s-.27-.47-.27-.8v-.09c0-.31,.09-.58,.28-.79s.41-.31,.67-.31c.3,0,.52,.09,.68,.27s.23,.42,.23,.72v.25h-1.44c0,.22,.06,.4,.16,.53s.25,.21,.44,.21c.14,0,.26-.02,.36-.06s.19-.09,.27-.16l.16,.26c-.08,.08-.18,.14-.31,.19s-.29,.08-.47,.08Zm-.06-1.98c-.13,0-.25,.06-.35,.17s-.15,.26-.18,.43h0s1.02,.01,1.02,.01v-.05c0-.16-.04-.29-.13-.4s-.21-.16-.38-.16Z"/>
        <path d="M215.62,45.15c.13,0,.25-.04,.35-.12s.15-.18,.15-.3h.37c0,.2-.08,.37-.25,.52s-.38,.22-.62,.22c-.32,0-.57-.1-.74-.31s-.25-.47-.25-.79v-.09c0-.31,.09-.58,.26-.79s.42-.32,.74-.32c.18,0,.34,.03,.48,.09s.26,.14,.35,.24l.02,.49h-.32l-.09-.35s-.11-.08-.18-.11-.16-.04-.25-.04c-.21,0-.36,.08-.45,.23s-.14,.34-.14,.56v.09c0,.23,.04,.41,.13,.57s.24,.23,.45,.23Z"/>
        <path d="M216.89,45.16l.33-.06v-1.58l-.33-.06v-.26h.74v1.9l.33,.06v.26h-1.07v-.26Zm.74-2.52h-.4v-.41h.4v.41Z"/>
        <path d="M219.27,45.46c-.31,0-.55-.1-.73-.31s-.27-.47-.27-.8v-.09c0-.31,.09-.58,.28-.79s.41-.31,.67-.31c.3,0,.52,.09,.68,.27s.23,.42,.23,.72v.25h-1.44c0,.22,.06,.4,.16,.53s.25,.21,.44,.21c.14,0,.26-.02,.36-.06s.19-.09,.27-.16l.16,.26c-.08,.08-.18,.14-.31,.19s-.29,.08-.47,.08Zm-.06-1.98c-.13,0-.25,.06-.35,.17s-.15,.26-.18,.43h0s1.02,.01,1.02,.01v-.05c0-.16-.04-.29-.13-.4s-.21-.16-.38-.16Z"/>
        <path d="M222.2,43.91h-.3l-.07-.27s-.11-.08-.18-.11-.16-.04-.25-.04c-.14,0-.25,.03-.32,.09s-.1,.14-.1,.23,.03,.16,.09,.21,.19,.1,.37,.13c.28,.06,.49,.14,.62,.24s.2,.24,.2,.41c0,.2-.08,.35-.24,.48s-.37,.18-.62,.18c-.17,0-.32-.02-.45-.06s-.25-.1-.36-.17v-.5s.3,0,.3,0l.08,.3s.11,.07,.19,.09,.16,.03,.24,.03c.14,0,.26-.03,.34-.09s.12-.13,.12-.23c0-.09-.03-.16-.1-.22s-.2-.11-.38-.15c-.27-.06-.47-.14-.61-.24s-.2-.24-.2-.41,.08-.33,.23-.46,.35-.19,.6-.19c.17,0,.32,.02,.45,.07s.24,.1,.33,.18l.02,.49Z"/>
        <path d="M223.16,43.62h-.4v-.41h.4v.41Zm0,1.8h-.4v-.41h.4v.41Z"/>
        <path d="M214.21,49.61c0-.2,.02-.34,.05-.41s.12-.18,.26-.3c.13-.16,.23-.28,.29-.37s.09-.19,.09-.31c0-.14-.04-.26-.12-.33s-.19-.12-.33-.12c-.12,0-.23,.03-.32,.1s-.13,.17-.13,.3h-.39c0-.23,.07-.41,.23-.54s.36-.2,.6-.2c.27,0,.48,.07,.63,.21s.22,.33,.22,.57c0,.18-.05,.34-.14,.48s-.22,.29-.38,.45c-.07,.07-.12,.14-.13,.2s-.02,.15-.02,.27h-.4Zm.41,.84h-.42v-.43h.42v.43Z"/>
        <path d="M216.16,49.61c0-.2,.02-.34,.05-.41s.12-.18,.26-.3c.13-.16,.23-.28,.29-.37s.09-.19,.09-.31c0-.14-.04-.26-.12-.33s-.19-.12-.33-.12c-.12,0-.23,.03-.32,.1s-.13,.17-.13,.3h-.39c0-.23,.07-.41,.23-.54s.36-.2,.6-.2c.27,0,.48,.07,.63,.21s.22,.33,.22,.57c0,.18-.05,.34-.14,.48s-.22,.29-.38,.45c-.07,.07-.12,.14-.13,.2s-.02,.15-.02,.27h-.4Zm.41,.84h-.42v-.43h.42v.43Z"/>
      </g>
    </g>
    <g>
      <rect class="tax2cls-1" x="205" y="57.98" width="21.08" height="14.35" rx="7.17" ry="7.17"/>
      <g>
        <path d="M209.4,62.72h-.3l-.07-.27s-.11-.08-.18-.11-.16-.04-.25-.04c-.14,0-.25,.03-.32,.09s-.1,.14-.1,.23,.03,.16,.09,.21,.19,.1,.37,.13c.28,.06,.49,.14,.62,.24s.2,.24,.2,.41c0,.2-.08,.35-.24,.48s-.37,.18-.62,.18c-.17,0-.32-.02-.45-.06s-.25-.1-.36-.17v-.5s.3,0,.3,0l.08,.3s.11,.07,.19,.09,.16,.03,.24,.03c.14,0,.26-.03,.34-.09s.12-.13,.12-.23c0-.09-.03-.16-.1-.22s-.2-.11-.38-.15c-.27-.06-.47-.14-.61-.24s-.2-.24-.2-.41,.08-.33,.23-.46,.35-.19,.6-.19c.17,0,.32,.02,.45,.07s.24,.1,.33,.18l.02,.49Z"/>
        <path d="M209.8,64.82l.33-.06v-2.43l-.33-.06v-.26h.68l.04,.27c.07-.1,.16-.18,.27-.23s.23-.08,.37-.08c.27,0,.49,.11,.64,.33s.23,.5,.23,.86v.04c0,.32-.08,.58-.23,.77s-.36,.29-.63,.29c-.14,0-.26-.02-.36-.07s-.19-.11-.26-.2v.76l.33,.06v.26h-1.07v-.26Zm1.81-1.66c0-.25-.05-.46-.15-.62s-.24-.24-.44-.24c-.11,0-.21,.03-.29,.08s-.15,.12-.2,.21v1.08c.05,.09,.12,.16,.2,.21s.18,.07,.3,.07c.19,0,.34-.07,.43-.21s.15-.32,.15-.54v-.04Z"/>
        <path d="M213.39,64.28c-.31,0-.55-.1-.73-.31s-.27-.47-.27-.8v-.09c0-.31,.09-.58,.28-.79s.41-.31,.67-.31c.3,0,.52,.09,.68,.27s.23,.42,.23,.72v.25h-1.44c0,.22,.06,.4,.16,.53s.25,.21,.44,.21c.14,0,.26-.02,.36-.06s.19-.09,.27-.16l.16,.26c-.08,.08-.18,.14-.31,.19s-.29,.08-.47,.08Zm-.06-1.98c-.13,0-.25,.06-.35,.17s-.15,.26-.18,.43h0s1.02,.01,1.02,.01v-.05c0-.16-.04-.29-.13-.4s-.21-.16-.38-.16Z"/>
        <path d="M215.62,63.96c.13,0,.25-.04,.35-.12s.15-.18,.15-.3h.37c0,.2-.08,.37-.25,.52s-.38,.22-.62,.22c-.32,0-.57-.1-.74-.31s-.25-.47-.25-.79v-.09c0-.31,.09-.58,.26-.79s.42-.32,.74-.32c.18,0,.34,.03,.48,.09s.26,.14,.35,.24l.02,.49h-.32l-.09-.35s-.11-.08-.18-.11-.16-.04-.25-.04c-.21,0-.36,.08-.45,.23s-.14,.34-.14,.56v.09c0,.23,.04,.41,.13,.57s.24,.23,.45,.23Z"/>
        <path d="M216.89,63.98l.33-.06v-1.58l-.33-.06v-.26h.74v1.9l.33,.06v.26h-1.07v-.26Zm.74-2.52h-.4v-.41h.4v.41Z"/>
        <path d="M219.27,64.28c-.31,0-.55-.1-.73-.31s-.27-.47-.27-.8v-.09c0-.31,.09-.58,.28-.79s.41-.31,.67-.31c.3,0,.52,.09,.68,.27s.23,.42,.23,.72v.25h-1.44c0,.22,.06,.4,.16,.53s.25,.21,.44,.21c.14,0,.26-.02,.36-.06s.19-.09,.27-.16l.16,.26c-.08,.08-.18,.14-.31,.19s-.29,.08-.47,.08Zm-.06-1.98c-.13,0-.25,.06-.35,.17s-.15,.26-.18,.43h0s1.02,.01,1.02,.01v-.05c0-.16-.04-.29-.13-.4s-.21-.16-.38-.16Z"/>
        <path d="M222.2,62.72h-.3l-.07-.27s-.11-.08-.18-.11-.16-.04-.25-.04c-.14,0-.25,.03-.32,.09s-.1,.14-.1,.23,.03,.16,.09,.21,.19,.1,.37,.13c.28,.06,.49,.14,.62,.24s.2,.24,.2,.41c0,.2-.08,.35-.24,.48s-.37,.18-.62,.18c-.17,0-.32-.02-.45-.06s-.25-.1-.36-.17v-.5s.3,0,.3,0l.08,.3s.11,.07,.19,.09,.16,.03,.24,.03c.14,0,.26-.03,.34-.09s.12-.13,.12-.23c0-.09-.03-.16-.1-.22s-.2-.11-.38-.15c-.27-.06-.47-.14-.61-.24s-.2-.24-.2-.41,.08-.33,.23-.46,.35-.19,.6-.19c.17,0,.32,.02,.45,.07s.24,.1,.33,.18l.02,.49Z"/>
        <path d="M223.16,62.44h-.4v-.41h.4v.41Zm0,1.8h-.4v-.41h.4v.41Z"/>
        <path d="M214.21,68.42c0-.2,.02-.34,.05-.41s.12-.18,.26-.3c.13-.16,.23-.28,.29-.37s.09-.19,.09-.31c0-.14-.04-.26-.12-.33s-.19-.12-.33-.12c-.12,0-.23,.03-.32,.1s-.13,.17-.13,.3h-.39c0-.23,.07-.41,.23-.54s.36-.2,.6-.2c.27,0,.48,.07,.63,.21s.22,.33,.22,.57c0,.18-.05,.34-.14,.48s-.22,.29-.38,.45c-.07,.07-.12,.14-.13,.2s-.02,.15-.02,.27h-.4Zm.41,.84h-.42v-.43h.42v.43Z"/>
        <path d="M216.16,68.42c0-.2,.02-.34,.05-.41s.12-.18,.26-.3c.13-.16,.23-.28,.29-.37s.09-.19,.09-.31c0-.14-.04-.26-.12-.33s-.19-.12-.33-.12c-.12,0-.23,.03-.32,.1s-.13,.17-.13,.3h-.39c0-.23,.07-.41,.23-.54s.36-.2,.6-.2c.27,0,.48,.07,.63,.21s.22,.33,.22,.57c0,.18-.05,.34-.14,.48s-.22,.29-.38,.45c-.07,.07-.12,.14-.13,.2s-.02,.15-.02,.27h-.4Zm.41,.84h-.42v-.43h.42v.43Z"/>
      </g>
    </g>
    <g>
      <rect class="tax2cls-1" x="205" y="76.79" width="21.08" height="14.35" rx="7.17" ry="7.17"/>
      <g>
        <path d="M209.4,81.53h-.3l-.07-.27s-.11-.08-.18-.11-.16-.04-.25-.04c-.14,0-.25,.03-.32,.09s-.1,.14-.1,.23,.03,.16,.09,.21,.19,.1,.37,.13c.28,.06,.49,.14,.62,.24s.2,.24,.2,.41c0,.2-.08,.35-.24,.48s-.37,.18-.62,.18c-.17,0-.32-.02-.45-.06s-.25-.1-.36-.17v-.5s.3,0,.3,0l.08,.3s.11,.07,.19,.09,.16,.03,.24,.03c.14,0,.26-.03,.34-.09s.12-.13,.12-.23c0-.09-.03-.16-.1-.22s-.2-.11-.38-.15c-.27-.06-.47-.14-.61-.24s-.2-.24-.2-.41,.08-.33,.23-.46,.35-.19,.6-.19c.17,0,.32,.02,.45,.07s.24,.1,.33,.18l.02,.49Z"/>
        <path d="M209.8,83.64l.33-.06v-2.43l-.33-.06v-.26h.68l.04,.27c.07-.1,.16-.18,.27-.23s.23-.08,.37-.08c.27,0,.49,.11,.64,.33s.23,.5,.23,.86v.04c0,.32-.08,.58-.23,.77s-.36,.29-.63,.29c-.14,0-.26-.02-.36-.07s-.19-.11-.26-.2v.76l.33,.06v.26h-1.07v-.26Zm1.81-1.66c0-.25-.05-.46-.15-.62s-.24-.24-.44-.24c-.11,0-.21,.03-.29,.08s-.15,.12-.2,.21v1.08c.05,.09,.12,.16,.2,.21s.18,.07,.3,.07c.19,0,.34-.07,.43-.21s.15-.32,.15-.54v-.04Z"/>
        <path d="M213.39,83.09c-.31,0-.55-.1-.73-.31s-.27-.47-.27-.8v-.09c0-.31,.09-.58,.28-.79s.41-.31,.67-.31c.3,0,.52,.09,.68,.27s.23,.42,.23,.72v.25h-1.44c0,.22,.06,.4,.16,.53s.25,.21,.44,.21c.14,0,.26-.02,.36-.06s.19-.09,.27-.16l.16,.26c-.08,.08-.18,.14-.31,.19s-.29,.08-.47,.08Zm-.06-1.98c-.13,0-.25,.06-.35,.17s-.15,.26-.18,.43h0s1.02,.01,1.02,.01v-.05c0-.16-.04-.29-.13-.4s-.21-.16-.38-.16Z"/>
        <path d="M215.62,82.77c.13,0,.25-.04,.35-.12s.15-.18,.15-.3h.37c0,.2-.08,.37-.25,.52s-.38,.22-.62,.22c-.32,0-.57-.1-.74-.31s-.25-.47-.25-.79v-.09c0-.31,.09-.58,.26-.79s.42-.32,.74-.32c.18,0,.34,.03,.48,.09s.26,.14,.35,.24l.02,.49h-.32l-.09-.35s-.11-.08-.18-.11-.16-.04-.25-.04c-.21,0-.36,.08-.45,.23s-.14,.34-.14,.56v.09c0,.23,.04,.41,.13,.57s.24,.23,.45,.23Z"/>
        <path d="M216.89,82.79l.33-.06v-1.58l-.33-.06v-.26h.74v1.9l.33,.06v.26h-1.07v-.26Zm.74-2.52h-.4v-.41h.4v.41Z"/>
        <path d="M219.27,83.09c-.31,0-.55-.1-.73-.31s-.27-.47-.27-.8v-.09c0-.31,.09-.58,.28-.79s.41-.31,.67-.31c.3,0,.52,.09,.68,.27s.23,.42,.23,.72v.25h-1.44c0,.22,.06,.4,.16,.53s.25,.21,.44,.21c.14,0,.26-.02,.36-.06s.19-.09,.27-.16l.16,.26c-.08,.08-.18,.14-.31,.19s-.29,.08-.47,.08Zm-.06-1.98c-.13,0-.25,.06-.35,.17s-.15,.26-.18,.43h0s1.02,.01,1.02,.01v-.05c0-.16-.04-.29-.13-.4s-.21-.16-.38-.16Z"/>
        <path d="M222.2,81.53h-.3l-.07-.27s-.11-.08-.18-.11-.16-.04-.25-.04c-.14,0-.25,.03-.32,.09s-.1,.14-.1,.23,.03,.16,.09,.21,.19,.1,.37,.13c.28,.06,.49,.14,.62,.24s.2,.24,.2,.41c0,.2-.08,.35-.24,.48s-.37,.18-.62,.18c-.17,0-.32-.02-.45-.06s-.25-.1-.36-.17v-.5s.3,0,.3,0l.08,.3s.11,.07,.19,.09,.16,.03,.24,.03c.14,0,.26-.03,.34-.09s.12-.13,.12-.23c0-.09-.03-.16-.1-.22s-.2-.11-.38-.15c-.27-.06-.47-.14-.61-.24s-.2-.24-.2-.41,.08-.33,.23-.46,.35-.19,.6-.19c.17,0,.32,.02,.45,.07s.24,.1,.33,.18l.02,.49Z"/>
        <path d="M223.16,81.25h-.4v-.41h.4v.41Zm0,1.8h-.4v-.41h.4v.41Z"/>
        <path d="M214.21,87.23c0-.2,.02-.34,.05-.41s.12-.18,.26-.3c.13-.16,.23-.28,.29-.37s.09-.19,.09-.31c0-.14-.04-.26-.12-.33s-.19-.12-.33-.12c-.12,0-.23,.03-.32,.1s-.13,.17-.13,.3h-.39c0-.23,.07-.41,.23-.54s.36-.2,.6-.2c.27,0,.48,.07,.63,.21s.22,.33,.22,.57c0,.18-.05,.34-.14,.48s-.22,.29-.38,.45c-.07,.07-.12,.14-.13,.2s-.02,.15-.02,.27h-.4Zm.41,.84h-.42v-.43h.42v.43Z"/>
        <path d="M216.16,87.23c0-.2,.02-.34,.05-.41s.12-.18,.26-.3c.13-.16,.23-.28,.29-.37s.09-.19,.09-.31c0-.14-.04-.26-.12-.33s-.19-.12-.33-.12c-.12,0-.23,.03-.32,.1s-.13,.17-.13,.3h-.39c0-.23,.07-.41,.23-.54s.36-.2,.6-.2c.27,0,.48,.07,.63,.21s.22,.33,.22,.57c0,.18-.05,.34-.14,.48s-.22,.29-.38,.45c-.07,.07-.12,.14-.13,.2s-.02,.15-.02,.27h-.4Zm.41,.84h-.42v-.43h.42v.43Z"/>
      </g>
    </g>
    <g>
      <rect class="tax2cls-1" x="205" y="95.6" width="21.08" height="14.35" rx="7.17" ry="7.17"/>
      <g>
        <path d="M209.4,100.34h-.3l-.07-.27s-.11-.08-.18-.11-.16-.04-.25-.04c-.14,0-.25,.03-.32,.09s-.1,.14-.1,.23,.03,.16,.09,.21,.19,.1,.37,.13c.28,.06,.49,.14,.62,.24s.2,.24,.2,.41c0,.2-.08,.35-.24,.48s-.37,.18-.62,.18c-.17,0-.32-.02-.45-.06s-.25-.1-.36-.17v-.5s.3,0,.3,0l.08,.3s.11,.07,.19,.09,.16,.03,.24,.03c.14,0,.26-.03,.34-.09s.12-.13,.12-.23c0-.09-.03-.16-.1-.22s-.2-.11-.38-.15c-.27-.06-.47-.14-.61-.24s-.2-.24-.2-.41,.08-.33,.23-.46,.35-.19,.6-.19c.17,0,.32,.02,.45,.07s.24,.1,.33,.18l.02,.49Z"/>
        <path d="M209.8,102.45l.33-.06v-2.43l-.33-.06v-.26h.68l.04,.27c.07-.1,.16-.18,.27-.23s.23-.08,.37-.08c.27,0,.49,.11,.64,.33s.23,.5,.23,.86v.04c0,.32-.08,.58-.23,.77s-.36,.29-.63,.29c-.14,0-.26-.02-.36-.07s-.19-.11-.26-.2v.76l.33,.06v.26h-1.07v-.26Zm1.81-1.66c0-.25-.05-.46-.15-.62s-.24-.24-.44-.24c-.11,0-.21,.03-.29,.08s-.15,.12-.2,.21v1.08c.05,.09,.12,.16,.2,.21s.18,.07,.3,.07c.19,0,.34-.07,.43-.21s.15-.32,.15-.54v-.04Z"/>
        <path d="M213.39,101.9c-.31,0-.55-.1-.73-.31s-.27-.47-.27-.8v-.09c0-.31,.09-.58,.28-.79s.41-.31,.67-.31c.3,0,.52,.09,.68,.27s.23,.42,.23,.72v.25h-1.44c0,.22,.06,.4,.16,.53s.25,.21,.44,.21c.14,0,.26-.02,.36-.06s.19-.09,.27-.16l.16,.26c-.08,.08-.18,.14-.31,.19s-.29,.08-.47,.08Zm-.06-1.98c-.13,0-.25,.06-.35,.17s-.15,.26-.18,.43h0s1.02,.01,1.02,.01v-.05c0-.16-.04-.29-.13-.4s-.21-.16-.38-.16Z"/>
        <path d="M215.62,101.59c.13,0,.25-.04,.35-.12s.15-.18,.15-.3h.37c0,.2-.08,.37-.25,.52s-.38,.22-.62,.22c-.32,0-.57-.1-.74-.31s-.25-.47-.25-.79v-.09c0-.31,.09-.58,.26-.79s.42-.32,.74-.32c.18,0,.34,.03,.48,.09s.26,.14,.35,.24l.02,.49h-.32l-.09-.35s-.11-.08-.18-.11-.16-.04-.25-.04c-.21,0-.36,.08-.45,.23s-.14,.34-.14,.56v.09c0,.23,.04,.41,.13,.57s.24,.23,.45,.23Z"/>
        <path d="M216.89,101.6l.33-.06v-1.58l-.33-.06v-.26h.74v1.9l.33,.06v.26h-1.07v-.26Zm.74-2.52h-.4v-.41h.4v.41Z"/>
        <path d="M219.27,101.9c-.31,0-.55-.1-.73-.31s-.27-.47-.27-.8v-.09c0-.31,.09-.58,.28-.79s.41-.31,.67-.31c.3,0,.52,.09,.68,.27s.23,.42,.23,.72v.25h-1.44c0,.22,.06,.4,.16,.53s.25,.21,.44,.21c.14,0,.26-.02,.36-.06s.19-.09,.27-.16l.16,.26c-.08,.08-.18,.14-.31,.19s-.29,.08-.47,.08Zm-.06-1.98c-.13,0-.25,.06-.35,.17s-.15,.26-.18,.43h0s1.02,.01,1.02,.01v-.05c0-.16-.04-.29-.13-.4s-.21-.16-.38-.16Z"/>
        <path d="M222.2,100.34h-.3l-.07-.27s-.11-.08-.18-.11-.16-.04-.25-.04c-.14,0-.25,.03-.32,.09s-.1,.14-.1,.23,.03,.16,.09,.21,.19,.1,.37,.13c.28,.06,.49,.14,.62,.24s.2,.24,.2,.41c0,.2-.08,.35-.24,.48s-.37,.18-.62,.18c-.17,0-.32-.02-.45-.06s-.25-.1-.36-.17v-.5s.3,0,.3,0l.08,.3s.11,.07,.19,.09,.16,.03,.24,.03c.14,0,.26-.03,.34-.09s.12-.13,.12-.23c0-.09-.03-.16-.1-.22s-.2-.11-.38-.15c-.27-.06-.47-.14-.61-.24s-.2-.24-.2-.41,.08-.33,.23-.46,.35-.19,.6-.19c.17,0,.32,.02,.45,.07s.24,.1,.33,.18l.02,.49Z"/>
        <path d="M223.16,100.06h-.4v-.41h.4v.41Zm0,1.8h-.4v-.41h.4v.41Z"/>
        <path d="M214.21,106.04c0-.2,.02-.34,.05-.41s.12-.18,.26-.3c.13-.16,.23-.28,.29-.37s.09-.19,.09-.31c0-.14-.04-.26-.12-.33s-.19-.12-.33-.12c-.12,0-.23,.03-.32,.1s-.13,.17-.13,.3h-.39c0-.23,.07-.41,.23-.54s.36-.2,.6-.2c.27,0,.48,.07,.63,.21s.22,.33,.22,.57c0,.18-.05,.34-.14,.48s-.22,.29-.38,.45c-.07,.07-.12,.14-.13,.2s-.02,.15-.02,.27h-.4Zm.41,.84h-.42v-.43h.42v.43Z"/>
        <path d="M216.16,106.04c0-.2,.02-.34,.05-.41s.12-.18,.26-.3c.13-.16,.23-.28,.29-.37s.09-.19,.09-.31c0-.14-.04-.26-.12-.33s-.19-.12-.33-.12c-.12,0-.23,.03-.32,.1s-.13,.17-.13,.3h-.39c0-.23,.07-.41,.23-.54s.36-.2,.6-.2c.27,0,.48,.07,.63,.21s.22,.33,.22,.57c0,.18-.05,.34-.14,.48s-.22,.29-.38,.45c-.07,.07-.12,.14-.13,.2s-.02,.15-.02,.27h-.4Zm.41,.84h-.42v-.43h.42v.43Z"/>
      </g>
    </g>
    <g>
      <rect class="tax2cls-1" x="205" y="114.41" width="21.08" height="14.35" rx="7.17" ry="7.17"/>
      <g>
        <path d="M209.4,119.15h-.3l-.07-.27s-.11-.08-.18-.11-.16-.04-.25-.04c-.14,0-.25,.03-.32,.09s-.1,.14-.1,.23,.03,.16,.09,.21,.19,.1,.37,.13c.28,.06,.49,.14,.62,.24s.2,.24,.2,.41c0,.2-.08,.35-.24,.48s-.37,.18-.62,.18c-.17,0-.32-.02-.45-.06s-.25-.1-.36-.17v-.5s.3,0,.3,0l.08,.3s.11,.07,.19,.09,.16,.03,.24,.03c.14,0,.26-.03,.34-.09s.12-.13,.12-.23c0-.09-.03-.16-.1-.22s-.2-.11-.38-.15c-.27-.06-.47-.14-.61-.24s-.2-.24-.2-.41,.08-.33,.23-.46,.35-.19,.6-.19c.17,0,.32,.02,.45,.07s.24,.1,.33,.18l.02,.49Z"/>
        <path d="M209.8,121.26l.33-.06v-2.43l-.33-.06v-.26h.68l.04,.27c.07-.1,.16-.18,.27-.23s.23-.08,.37-.08c.27,0,.49,.11,.64,.33s.23,.5,.23,.86v.04c0,.32-.08,.58-.23,.77s-.36,.29-.63,.29c-.14,0-.26-.02-.36-.07s-.19-.11-.26-.2v.76l.33,.06v.26h-1.07v-.26Zm1.81-1.66c0-.25-.05-.46-.15-.62s-.24-.24-.44-.24c-.11,0-.21,.03-.29,.08s-.15,.12-.2,.21v1.08c.05,.09,.12,.16,.2,.21s.18,.07,.3,.07c.19,0,.34-.07,.43-.21s.15-.32,.15-.54v-.04Z"/>
        <path d="M213.39,120.71c-.31,0-.55-.1-.73-.31s-.27-.47-.27-.8v-.09c0-.31,.09-.58,.28-.79s.41-.31,.67-.31c.3,0,.52,.09,.68,.27s.23,.42,.23,.72v.25h-1.44c0,.22,.06,.4,.16,.53s.25,.21,.44,.21c.14,0,.26-.02,.36-.06s.19-.09,.27-.16l.16,.26c-.08,.08-.18,.14-.31,.19s-.29,.08-.47,.08Zm-.06-1.98c-.13,0-.25,.06-.35,.17s-.15,.26-.18,.43h0s1.02,.01,1.02,.01v-.05c0-.16-.04-.29-.13-.4s-.21-.16-.38-.16Z"/>
        <path d="M215.62,120.4c.13,0,.25-.04,.35-.12s.15-.18,.15-.3h.37c0,.2-.08,.37-.25,.52s-.38,.22-.62,.22c-.32,0-.57-.1-.74-.31s-.25-.47-.25-.79v-.09c0-.31,.09-.58,.26-.79s.42-.32,.74-.32c.18,0,.34,.03,.48,.09s.26,.14,.35,.24l.02,.49h-.32l-.09-.35s-.11-.08-.18-.11-.16-.04-.25-.04c-.21,0-.36,.08-.45,.23s-.14,.34-.14,.56v.09c0,.23,.04,.41,.13,.57s.24,.23,.45,.23Z"/>
        <path d="M216.89,120.41l.33-.06v-1.58l-.33-.06v-.26h.74v1.9l.33,.06v.26h-1.07v-.26Zm.74-2.52h-.4v-.41h.4v.41Z"/>
        <path d="M219.27,120.71c-.31,0-.55-.1-.73-.31s-.27-.47-.27-.8v-.09c0-.31,.09-.58,.28-.79s.41-.31,.67-.31c.3,0,.52,.09,.68,.27s.23,.42,.23,.72v.25h-1.44c0,.22,.06,.4,.16,.53s.25,.21,.44,.21c.14,0,.26-.02,.36-.06s.19-.09,.27-.16l.16,.26c-.08,.08-.18,.14-.31,.19s-.29,.08-.47,.08Zm-.06-1.98c-.13,0-.25,.06-.35,.17s-.15,.26-.18,.43h0s1.02,.01,1.02,.01v-.05c0-.16-.04-.29-.13-.4s-.21-.16-.38-.16Z"/>
        <path d="M222.2,119.15h-.3l-.07-.27s-.11-.08-.18-.11-.16-.04-.25-.04c-.14,0-.25,.03-.32,.09s-.1,.14-.1,.23,.03,.16,.09,.21,.19,.1,.37,.13c.28,.06,.49,.14,.62,.24s.2,.24,.2,.41c0,.2-.08,.35-.24,.48s-.37,.18-.62,.18c-.17,0-.32-.02-.45-.06s-.25-.1-.36-.17v-.5s.3,0,.3,0l.08,.3s.11,.07,.19,.09,.16,.03,.24,.03c.14,0,.26-.03,.34-.09s.12-.13,.12-.23c0-.09-.03-.16-.1-.22s-.2-.11-.38-.15c-.27-.06-.47-.14-.61-.24s-.2-.24-.2-.41,.08-.33,.23-.46,.35-.19,.6-.19c.17,0,.32,.02,.45,.07s.24,.1,.33,.18l.02,.49Z"/>
        <path d="M223.16,118.87h-.4v-.41h.4v.41Zm0,1.8h-.4v-.41h.4v.41Z"/>
        <path d="M214.21,124.86c0-.2,.02-.34,.05-.41s.12-.18,.26-.3c.13-.16,.23-.28,.29-.37s.09-.19,.09-.31c0-.14-.04-.26-.12-.33s-.19-.12-.33-.12c-.12,0-.23,.03-.32,.1s-.13,.17-.13,.3h-.39c0-.23,.07-.41,.23-.54s.36-.2,.6-.2c.27,0,.48,.07,.63,.21s.22,.33,.22,.57c0,.18-.05,.34-.14,.48s-.22,.29-.38,.45c-.07,.07-.12,.14-.13,.2s-.02,.15-.02,.27h-.4Zm.41,.84h-.42v-.43h.42v.43Z"/>
        <path d="M216.16,124.86c0-.2,.02-.34,.05-.41s.12-.18,.26-.3c.13-.16,.23-.28,.29-.37s.09-.19,.09-.31c0-.14-.04-.26-.12-.33s-.19-.12-.33-.12c-.12,0-.23,.03-.32,.1s-.13,.17-.13,.3h-.39c0-.23,.07-.41,.23-.54s.36-.2,.6-.2c.27,0,.48,.07,.63,.21s.22,.33,.22,.57c0,.18-.05,.34-.14,.48s-.22,.29-.38,.45c-.07,.07-.12,.14-.13,.2s-.02,.15-.02,.27h-.4Zm.41,.84h-.42v-.43h.42v.43Z"/>
      </g>
    </g>
    <g>
      <rect class="tax2cls-1" x="205" y="133.23" width="21.08" height="14.35" rx="7.17" ry="7.17"/>
      <g>
        <path d="M209.4,137.97h-.3l-.07-.27s-.11-.08-.18-.11-.16-.04-.25-.04c-.14,0-.25,.03-.32,.09s-.1,.14-.1,.23,.03,.16,.09,.21,.19,.1,.37,.13c.28,.06,.49,.14,.62,.24s.2,.24,.2,.41c0,.2-.08,.35-.24,.48s-.37,.18-.62,.18c-.17,0-.32-.02-.45-.06s-.25-.1-.36-.17v-.5s.3,0,.3,0l.08,.3s.11,.07,.19,.09,.16,.03,.24,.03c.14,0,.26-.03,.34-.09s.12-.13,.12-.23c0-.09-.03-.16-.1-.22s-.2-.11-.38-.15c-.27-.06-.47-.14-.61-.24s-.2-.24-.2-.41,.08-.33,.23-.46,.35-.19,.6-.19c.17,0,.32,.02,.45,.07s.24,.1,.33,.18l.02,.49Z"/>
        <path d="M209.8,140.07l.33-.06v-2.43l-.33-.06v-.26h.68l.04,.27c.07-.1,.16-.18,.27-.23s.23-.08,.37-.08c.27,0,.49,.11,.64,.33s.23,.5,.23,.86v.04c0,.32-.08,.58-.23,.77s-.36,.29-.63,.29c-.14,0-.26-.02-.36-.07s-.19-.11-.26-.2v.76l.33,.06v.26h-1.07v-.26Zm1.81-1.66c0-.25-.05-.46-.15-.62s-.24-.24-.44-.24c-.11,0-.21,.03-.29,.08s-.15,.12-.2,.21v1.08c.05,.09,.12,.16,.2,.21s.18,.07,.3,.07c.19,0,.34-.07,.43-.21s.15-.32,.15-.54v-.04Z"/>
        <path d="M213.39,139.53c-.31,0-.55-.1-.73-.31s-.27-.47-.27-.8v-.09c0-.31,.09-.58,.28-.79s.41-.31,.67-.31c.3,0,.52,.09,.68,.27s.23,.42,.23,.72v.25h-1.44c0,.22,.06,.4,.16,.53s.25,.21,.44,.21c.14,0,.26-.02,.36-.06s.19-.09,.27-.16l.16,.26c-.08,.08-.18,.14-.31,.19s-.29,.08-.47,.08Zm-.06-1.98c-.13,0-.25,.06-.35,.17s-.15,.26-.18,.43h0s1.02,.01,1.02,.01v-.05c0-.16-.04-.29-.13-.4s-.21-.16-.38-.16Z"/>
        <path d="M215.62,139.21c.13,0,.25-.04,.35-.12s.15-.18,.15-.3h.37c0,.2-.08,.37-.25,.52s-.38,.22-.62,.22c-.32,0-.57-.1-.74-.31s-.25-.47-.25-.79v-.09c0-.31,.09-.58,.26-.79s.42-.32,.74-.32c.18,0,.34,.03,.48,.09s.26,.14,.35,.24l.02,.49h-.32l-.09-.35s-.11-.08-.18-.11-.16-.04-.25-.04c-.21,0-.36,.08-.45,.23s-.14,.34-.14,.56v.09c0,.23,.04,.41,.13,.57s.24,.23,.45,.23Z"/>
        <path d="M216.89,139.23l.33-.06v-1.58l-.33-.06v-.26h.74v1.9l.33,.06v.26h-1.07v-.26Zm.74-2.52h-.4v-.41h.4v.41Z"/>
        <path d="M219.27,139.53c-.31,0-.55-.1-.73-.31s-.27-.47-.27-.8v-.09c0-.31,.09-.58,.28-.79s.41-.31,.67-.31c.3,0,.52,.09,.68,.27s.23,.42,.23,.72v.25h-1.44c0,.22,.06,.4,.16,.53s.25,.21,.44,.21c.14,0,.26-.02,.36-.06s.19-.09,.27-.16l.16,.26c-.08,.08-.18,.14-.31,.19s-.29,.08-.47,.08Zm-.06-1.98c-.13,0-.25,.06-.35,.17s-.15,.26-.18,.43h0s1.02,.01,1.02,.01v-.05c0-.16-.04-.29-.13-.4s-.21-.16-.38-.16Z"/>
        <path d="M222.2,137.97h-.3l-.07-.27s-.11-.08-.18-.11-.16-.04-.25-.04c-.14,0-.25,.03-.32,.09s-.1,.14-.1,.23,.03,.16,.09,.21,.19,.1,.37,.13c.28,.06,.49,.14,.62,.24s.2,.24,.2,.41c0,.2-.08,.35-.24,.48s-.37,.18-.62,.18c-.17,0-.32-.02-.45-.06s-.25-.1-.36-.17v-.5s.3,0,.3,0l.08,.3s.11,.07,.19,.09,.16,.03,.24,.03c.14,0,.26-.03,.34-.09s.12-.13,.12-.23c0-.09-.03-.16-.1-.22s-.2-.11-.38-.15c-.27-.06-.47-.14-.61-.24s-.2-.24-.2-.41,.08-.33,.23-.46,.35-.19,.6-.19c.17,0,.32,.02,.45,.07s.24,.1,.33,.18l.02,.49Z"/>
        <path d="M223.16,137.68h-.4v-.41h.4v.41Zm0,1.8h-.4v-.41h.4v.41Z"/>
        <path d="M214.21,143.67c0-.2,.02-.34,.05-.41s.12-.18,.26-.3c.13-.16,.23-.28,.29-.37s.09-.19,.09-.31c0-.14-.04-.26-.12-.33s-.19-.12-.33-.12c-.12,0-.23,.03-.32,.1s-.13,.17-.13,.3h-.39c0-.23,.07-.41,.23-.54s.36-.2,.6-.2c.27,0,.48,.07,.63,.21s.22,.33,.22,.57c0,.18-.05,.34-.14,.48s-.22,.29-.38,.45c-.07,.07-.12,.14-.13,.2s-.02,.15-.02,.27h-.4Zm.41,.84h-.42v-.43h.42v.43Z"/>
        <path d="M216.16,143.67c0-.2,.02-.34,.05-.41s.12-.18,.26-.3c.13-.16,.23-.28,.29-.37s.09-.19,.09-.31c0-.14-.04-.26-.12-.33s-.19-.12-.33-.12c-.12,0-.23,.03-.32,.1s-.13,.17-.13,.3h-.39c0-.23,.07-.41,.23-.54s.36-.2,.6-.2c.27,0,.48,.07,.63,.21s.22,.33,.22,.57c0,.18-.05,.34-.14,.48s-.22,.29-.38,.45c-.07,.07-.12,.14-.13,.2s-.02,.15-.02,.27h-.4Zm.41,.84h-.42v-.43h.42v.43Z"/>
      </g>
    </g>
    <g>
      <rect class="tax2cls-1" x="205" y="152.04" width="21.08" height="14.35" rx="7.17" ry="7.17"/>
      <g>
        <path d="M209.4,156.78h-.3l-.07-.27s-.11-.08-.18-.11-.16-.04-.25-.04c-.14,0-.25,.03-.32,.09s-.1,.14-.1,.23,.03,.16,.09,.21,.19,.1,.37,.13c.28,.06,.49,.14,.62,.24s.2,.24,.2,.41c0,.2-.08,.35-.24,.48s-.37,.18-.62,.18c-.17,0-.32-.02-.45-.06s-.25-.1-.36-.17v-.5s.3,0,.3,0l.08,.3s.11,.07,.19,.09,.16,.03,.24,.03c.14,0,.26-.03,.34-.09s.12-.13,.12-.23c0-.09-.03-.16-.1-.22s-.2-.11-.38-.15c-.27-.06-.47-.14-.61-.24s-.2-.24-.2-.41,.08-.33,.23-.46,.35-.19,.6-.19c.17,0,.32,.02,.45,.07s.24,.1,.33,.18l.02,.49Z"/>
        <path d="M209.8,158.89l.33-.06v-2.43l-.33-.06v-.26h.68l.04,.27c.07-.1,.16-.18,.27-.23s.23-.08,.37-.08c.27,0,.49,.11,.64,.33s.23,.5,.23,.86v.04c0,.32-.08,.58-.23,.77s-.36,.29-.63,.29c-.14,0-.26-.02-.36-.07s-.19-.11-.26-.2v.76l.33,.06v.26h-1.07v-.26Zm1.81-1.66c0-.25-.05-.46-.15-.62s-.24-.24-.44-.24c-.11,0-.21,.03-.29,.08s-.15,.12-.2,.21v1.08c.05,.09,.12,.16,.2,.21s.18,.07,.3,.07c.19,0,.34-.07,.43-.21s.15-.32,.15-.54v-.04Z"/>
        <path d="M213.39,158.34c-.31,0-.55-.1-.73-.31s-.27-.47-.27-.8v-.09c0-.31,.09-.58,.28-.79s.41-.31,.67-.31c.3,0,.52,.09,.68,.27s.23,.42,.23,.72v.25h-1.44c0,.22,.06,.4,.16,.53s.25,.21,.44,.21c.14,0,.26-.02,.36-.06s.19-.09,.27-.16l.16,.26c-.08,.08-.18,.14-.31,.19s-.29,.08-.47,.08Zm-.06-1.98c-.13,0-.25,.06-.35,.17s-.15,.26-.18,.43h0s1.02,.01,1.02,.01v-.05c0-.16-.04-.29-.13-.4s-.21-.16-.38-.16Z"/>
        <path d="M215.62,158.02c.13,0,.25-.04,.35-.12s.15-.18,.15-.3h.37c0,.2-.08,.37-.25,.52s-.38,.22-.62,.22c-.32,0-.57-.1-.74-.31s-.25-.47-.25-.79v-.09c0-.31,.09-.58,.26-.79s.42-.32,.74-.32c.18,0,.34,.03,.48,.09s.26,.14,.35,.24l.02,.49h-.32l-.09-.35s-.11-.08-.18-.11-.16-.04-.25-.04c-.21,0-.36,.08-.45,.23s-.14,.34-.14,.56v.09c0,.23,.04,.41,.13,.57s.24,.23,.45,.23Z"/>
        <path d="M216.89,158.04l.33-.06v-1.58l-.33-.06v-.26h.74v1.9l.33,.06v.26h-1.07v-.26Zm.74-2.52h-.4v-.41h.4v.41Z"/>
        <path d="M219.27,158.34c-.31,0-.55-.1-.73-.31s-.27-.47-.27-.8v-.09c0-.31,.09-.58,.28-.79s.41-.31,.67-.31c.3,0,.52,.09,.68,.27s.23,.42,.23,.72v.25h-1.44c0,.22,.06,.4,.16,.53s.25,.21,.44,.21c.14,0,.26-.02,.36-.06s.19-.09,.27-.16l.16,.26c-.08,.08-.18,.14-.31,.19s-.29,.08-.47,.08Zm-.06-1.98c-.13,0-.25,.06-.35,.17s-.15,.26-.18,.43h0s1.02,.01,1.02,.01v-.05c0-.16-.04-.29-.13-.4s-.21-.16-.38-.16Z"/>
        <path d="M222.2,156.78h-.3l-.07-.27s-.11-.08-.18-.11-.16-.04-.25-.04c-.14,0-.25,.03-.32,.09s-.1,.14-.1,.23,.03,.16,.09,.21,.19,.1,.37,.13c.28,.06,.49,.14,.62,.24s.2,.24,.2,.41c0,.2-.08,.35-.24,.48s-.37,.18-.62,.18c-.17,0-.32-.02-.45-.06s-.25-.1-.36-.17v-.5s.3,0,.3,0l.08,.3s.11,.07,.19,.09,.16,.03,.24,.03c.14,0,.26-.03,.34-.09s.12-.13,.12-.23c0-.09-.03-.16-.1-.22s-.2-.11-.38-.15c-.27-.06-.47-.14-.61-.24s-.2-.24-.2-.41,.08-.33,.23-.46,.35-.19,.6-.19c.17,0,.32,.02,.45,.07s.24,.1,.33,.18l.02,.49Z"/>
        <path d="M223.16,156.5h-.4v-.41h.4v.41Zm0,1.8h-.4v-.41h.4v.41Z"/>
        <path d="M214.21,162.48c0-.2,.02-.34,.05-.41s.12-.18,.26-.3c.13-.16,.23-.28,.29-.37s.09-.19,.09-.31c0-.14-.04-.26-.12-.33s-.19-.12-.33-.12c-.12,0-.23,.03-.32,.1s-.13,.17-.13,.3h-.39c0-.23,.07-.41,.23-.54s.36-.2,.6-.2c.27,0,.48,.07,.63,.21s.22,.33,.22,.57c0,.18-.05,.34-.14,.48s-.22,.29-.38,.45c-.07,.07-.12,.14-.13,.2s-.02,.15-.02,.27h-.4Zm.41,.84h-.42v-.43h.42v.43Z"/>
        <path d="M216.16,162.48c0-.2,.02-.34,.05-.41s.12-.18,.26-.3c.13-.16,.23-.28,.29-.37s.09-.19,.09-.31c0-.14-.04-.26-.12-.33s-.19-.12-.33-.12c-.12,0-.23,.03-.32,.1s-.13,.17-.13,.3h-.39c0-.23,.07-.41,.23-.54s.36-.2,.6-.2c.27,0,.48,.07,.63,.21s.22,.33,.22,.57c0,.18-.05,.34-.14,.48s-.22,.29-.38,.45c-.07,.07-.12,.14-.13,.2s-.02,.15-.02,.27h-.4Zm.41,.84h-.42v-.43h.42v.43Z"/>
      </g>
    </g>
    <g>
      <rect class="tax2cls-1" x="205" y="170.85" width="21.08" height="14.35" rx="7.17" ry="7.17"/>
      <g>
        <path d="M209.4,175.59h-.3l-.07-.27s-.11-.08-.18-.11-.16-.04-.25-.04c-.14,0-.25,.03-.32,.09s-.1,.14-.1,.23,.03,.16,.09,.21,.19,.1,.37,.13c.28,.06,.49,.14,.62,.24s.2,.24,.2,.41c0,.2-.08,.35-.24,.48s-.37,.18-.62,.18c-.17,0-.32-.02-.45-.06s-.25-.1-.36-.17v-.5s.3,0,.3,0l.08,.3s.11,.07,.19,.09,.16,.03,.24,.03c.14,0,.26-.03,.34-.09s.12-.13,.12-.23c0-.09-.03-.16-.1-.22s-.2-.11-.38-.15c-.27-.06-.47-.14-.61-.24s-.2-.24-.2-.41,.08-.33,.23-.46,.35-.19,.6-.19c.17,0,.32,.02,.45,.07s.24,.1,.33,.18l.02,.49Z"/>
        <path d="M209.8,177.7l.33-.06v-2.43l-.33-.06v-.26h.68l.04,.27c.07-.1,.16-.18,.27-.23s.23-.08,.37-.08c.27,0,.49,.11,.64,.33s.23,.5,.23,.86v.04c0,.32-.08,.58-.23,.77s-.36,.29-.63,.29c-.14,0-.26-.02-.36-.07s-.19-.11-.26-.2v.76l.33,.06v.26h-1.07v-.26Zm1.81-1.66c0-.25-.05-.46-.15-.62s-.24-.24-.44-.24c-.11,0-.21,.03-.29,.08s-.15,.12-.2,.21v1.08c.05,.09,.12,.16,.2,.21s.18,.07,.3,.07c.19,0,.34-.07,.43-.21s.15-.32,.15-.54v-.04Z"/>
        <path d="M213.39,177.15c-.31,0-.55-.1-.73-.31s-.27-.47-.27-.8v-.09c0-.31,.09-.58,.28-.79s.41-.31,.67-.31c.3,0,.52,.09,.68,.27s.23,.42,.23,.72v.25h-1.44c0,.22,.06,.4,.16,.53s.25,.21,.44,.21c.14,0,.26-.02,.36-.06s.19-.09,.27-.16l.16,.26c-.08,.08-.18,.14-.31,.19s-.29,.08-.47,.08Zm-.06-1.98c-.13,0-.25,.06-.35,.17s-.15,.26-.18,.43h0s1.02,.01,1.02,.01v-.05c0-.16-.04-.29-.13-.4s-.21-.16-.38-.16Z"/>
        <path d="M215.62,176.84c.13,0,.25-.04,.35-.12s.15-.18,.15-.3h.37c0,.2-.08,.37-.25,.52s-.38,.22-.62,.22c-.32,0-.57-.1-.74-.31s-.25-.47-.25-.79v-.09c0-.31,.09-.58,.26-.79s.42-.32,.74-.32c.18,0,.34,.03,.48,.09s.26,.14,.35,.24l.02,.49h-.32l-.09-.35s-.11-.08-.18-.11-.16-.04-.25-.04c-.21,0-.36,.08-.45,.23s-.14,.34-.14,.56v.09c0,.23,.04,.41,.13,.57s.24,.23,.45,.23Z"/>
        <path d="M216.89,176.85l.33-.06v-1.58l-.33-.06v-.26h.74v1.9l.33,.06v.26h-1.07v-.26Zm.74-2.52h-.4v-.41h.4v.41Z"/>
        <path d="M219.27,177.15c-.31,0-.55-.1-.73-.31s-.27-.47-.27-.8v-.09c0-.31,.09-.58,.28-.79s.41-.31,.67-.31c.3,0,.52,.09,.68,.27s.23,.42,.23,.72v.25h-1.44c0,.22,.06,.4,.16,.53s.25,.21,.44,.21c.14,0,.26-.02,.36-.06s.19-.09,.27-.16l.16,.26c-.08,.08-.18,.14-.31,.19s-.29,.08-.47,.08Zm-.06-1.98c-.13,0-.25,.06-.35,.17s-.15,.26-.18,.43h0s1.02,.01,1.02,.01v-.05c0-.16-.04-.29-.13-.4s-.21-.16-.38-.16Z"/>
        <path d="M222.2,175.59h-.3l-.07-.27s-.11-.08-.18-.11-.16-.04-.25-.04c-.14,0-.25,.03-.32,.09s-.1,.14-.1,.23,.03,.16,.09,.21,.19,.1,.37,.13c.28,.06,.49,.14,.62,.24s.2,.24,.2,.41c0,.2-.08,.35-.24,.48s-.37,.18-.62,.18c-.17,0-.32-.02-.45-.06s-.25-.1-.36-.17v-.5s.3,0,.3,0l.08,.3s.11,.07,.19,.09,.16,.03,.24,.03c.14,0,.26-.03,.34-.09s.12-.13,.12-.23c0-.09-.03-.16-.1-.22s-.2-.11-.38-.15c-.27-.06-.47-.14-.61-.24s-.2-.24-.2-.41,.08-.33,.23-.46,.35-.19,.6-.19c.17,0,.32,.02,.45,.07s.24,.1,.33,.18l.02,.49Z"/>
        <path d="M223.16,175.31h-.4v-.41h.4v.41Zm0,1.8h-.4v-.41h.4v.41Z"/>
        <path d="M214.21,181.29c0-.2,.02-.34,.05-.41s.12-.18,.26-.3c.13-.16,.23-.28,.29-.37s.09-.19,.09-.31c0-.14-.04-.26-.12-.33s-.19-.12-.33-.12c-.12,0-.23,.03-.32,.1s-.13,.17-.13,.3h-.39c0-.23,.07-.41,.23-.54s.36-.2,.6-.2c.27,0,.48,.07,.63,.21s.22,.33,.22,.57c0,.18-.05,.34-.14,.48s-.22,.29-.38,.45c-.07,.07-.12,.14-.13,.2s-.02,.15-.02,.27h-.4Zm.41,.84h-.42v-.43h.42v.43Z"/>
        <path d="M216.16,181.29c0-.2,.02-.34,.05-.41s.12-.18,.26-.3c.13-.16,.23-.28,.29-.37s.09-.19,.09-.31c0-.14-.04-.26-.12-.33s-.19-.12-.33-.12c-.12,0-.23,.03-.32,.1s-.13,.17-.13,.3h-.39c0-.23,.07-.41,.23-.54s.36-.2,.6-.2c.27,0,.48,.07,.63,.21s.22,.33,.22,.57c0,.18-.05,.34-.14,.48s-.22,.29-.38,.45c-.07,.07-.12,.14-.13,.2s-.02,.15-.02,.27h-.4Zm.41,.84h-.42v-.43h.42v.43Z"/>
      </g>
    </g>
  </g>
</svg>