<?xml version="1.0" encoding="UTF-8"?>
<svg id="Layer_1" data-name="Layer 1" title="Feather Trace" xmlns="http://www.w3.org/2000/svg" viewBox="0 0 140 140">
  <path class="cls-1" fill="currentColor" d="M75.77,43.43c-.08,1.66-1.61,2.85-3.24,2.55-3.11-.58-6.31-.89-9.59-.89-8.6,0-16.71,2.07-23.88,5.71-.03,.02-.02,.06,.01,.07,10.19,.95,19.54,4.79,27.22,10.69,1.73,1.33,2,3.83,.56,5.47h0c-6.54,7.41-16.1,12.08-26.75,12.08-19.7,0-35.68-15.97-35.68-35.68,0-.04,0-.08,0-.13C1.55,50.83-.03,58.99,0,67.52v.04c3.23,9.13,9.67,16.74,17.96,21.47,0,0,.01,.01,.02,.02,.3,1.05,.64,2.08,1.02,3.09-7.19-2.7-13.4-7.4-17.95-13.44-.02-.03-.07,0-.06,.03,.98,5.75,2.69,11.25,5.04,16.4,0,0,0,0,0,.01,5.73,4.94,12.71,8.47,20.4,10.06,0,0,.01,0,.02,.01,.74,.92,1.52,1.8,2.33,2.66,.02,.02,0,.06-.03,.06-6.6-.32-12.83-2.04-18.39-4.89-.03-.02-.07,.02-.05,.05,2.71,4.31,5.89,8.28,9.48,11.86,0,0,0,0,.02,0,4.72,1.46,9.74,2.24,14.94,2.24,1.98,0,3.93-.11,5.85-.34,0,0,.01,0,.02,0,1.13,.6,2.28,1.16,3.46,1.66,.03,.01,.03,.06,0,.07-4.35,1.22-8.93,1.88-13.67,1.88-1.52,0-3.02-.08-4.51-.21-.04,0-.05,.04-.02,.06,4.32,3.38,9.06,6.25,14.13,8.5,0,0,.01,0,.02,0,21.35-3.25,38.76-18.45,45.23-38.55,.01-.03,.06-.03,.07,0,1.08,4.22,1.67,8.63,1.67,13.18,0,11.3-3.56,21.77-9.6,30.36-.02,.03,0,.06,.03,.06,6.47-.97,12.63-2.87,18.36-5.54,0,0,.02-.01,.02-.02,.93-3.45,1.54-7.03,1.8-10.71,0-.01,0-.02,.02-.03,.66-.34,1.31-.69,1.95-1.06,.02-.01,.05,0,.05,.03,.52,3.04,.81,6.15,.82,9.34,0,.03,.03,.04,.05,.03,4.31-2.44,8.32-5.34,11.97-8.64,0,0,.01-.02,.01-.03-.48-3.09-1.13-6.13-1.93-9.1,0-.01,0-.02,0-.03,.5-.5,.98-1.01,1.46-1.54,.02-.02,.05-.01,.06,0,1.39,2.36,2.67,4.79,3.83,7.3,.01,.02,.04,.03,.06,0,3.32-3.47,6.28-7.29,8.81-11.4,0-.01,0-.03,0-.05-2.02-1.73-3.96-3.53-5.85-5.4-.01-.01-.01-.03,0-.04,.22-.4,.45-.81,.66-1.22,0-.02,.03-.02,.05-.01,2.22,1.34,4.5,2.6,6.82,3.78,.02,0,.04,0,.05-.02,1.72-3.16,3.21-6.47,4.42-9.9,0-.02,0-.04-.02-.04-9.52-4.19-17.57-11.1-23.16-19.75l-.31-.48h0c-.72-1.11-1.5-2.19-2.3-3.25-.01-.02,0-.04,.02-.05,10.56-4.12,19.58-11.34,25.94-20.53,0,0,0-.02,0-.03-1.85-5.4-4.38-10.49-7.47-15.18-.02-.02-.05-.02-.06,0-1.23,3.15-2.78,6.13-4.58,8.94-.25-.52-.51-1.03-.79-1.54,0,0,0-.02,0-.03,1.36-3.46,2.37-7.1,2.95-10.89,0,0,0-.02,0-.03-4.34-5.74-9.57-10.77-15.49-14.87-.03-.02-.06,0-.06,.04,.57,2.86,.87,5.82,.87,8.84,0,.89-.04,1.77-.09,2.64,0,.03-.03,.04-.06,.03-.62-.5-1.26-.97-1.91-1.44,0,0-.01-.01-.01-.02-.55-4.64-1.79-9.06-3.63-13.17,0,0,0-.01-.02-.02-7.62-4.36-16.18-7.27-25.3-8.36-.03,0-.05,.04-.03,.06,4.2,3.72,7.6,8.31,9.94,13.48,.01,.03-.01,.05-.04,.05-.99-.17-1.99-.3-3.01-.4,0,0-.02,0-.02-.01C77.97,7.66,72.12,2.91,65.29,0c0,0-.01,0-.02,0-10.85,.33-21.05,3.22-30.02,8.09,1.58-.22,3.2-.33,4.84-.33,17.58,0,32.18,12.72,35.13,29.46,.08,.48,.16,.97,.23,1.46,0,.06,.02,.12,.02,.18,.06,.44,.11,.88,.15,1.32,.02,.19,.03,.38,.04,.57,.03,.34,.05,.67,.07,1.01,.03,.55,.04,1.11,.04,1.67h0Z"/>
</svg>