<?xml version="1.0" encoding="UTF-8"?>
<svg id="Layer_1" data-name="Layer 1" title="Feather Trace" xmlns="http://www.w3.org/2000/svg" viewBox="0 0 140 140">
  <path class="cls-1" fill="currentColor" d="M14.34,108.82c-.15-.2-.3-.39-.45-.59-.44-.58-.88-1.16-1.31-1.75-.2-.28-.39-.56-.58-.84-.37-.53-.73-1.05-1.08-1.59-.29-.44-.56-.89-.83-1.33-.25-.41-.51-.8-.76-1.22,0,0,0,0,0,0,5.7,3.44,12.17,5.73,19.11,6.51-.82-.88-1.61-1.79-2.36-2.73-7.78-1.97-14.8-5.88-20.51-11.17-.8-1.83-1.51-3.71-2.15-5.62-.03-.1-.07-.2-.1-.3-.6-1.85-1.13-3.73-1.57-5.65-.04-.18-.08-.37-.13-.55-.28-1.27-.53-2.54-.74-3.83,4.53,5.86,10.58,10.48,17.56,13.25-.32-.92-.6-1.85-.86-2.79C9.93,84.37,3.77,77.76,.06,69.78,.03,68.96,0,68.14,0,67.32c0,0,0-.02,0-.03,0-.56,.03-1.1,.04-1.66H.04c.2-7.85,1.72-15.36,4.38-22.32,0,.04,0,.08,0,.13,0,19.7,15.97,35.68,35.68,35.68,10.66,0,20.21-4.68,26.75-12.08,.85-.96,1.64-1.98,2.39-3.03-8.21-7.3-18.71-12.09-30.29-13.14,7.2-3.68,15.35-5.76,23.99-5.76,4.38,0,8.62,.55,12.69,1.55,.03-.28,.05-.56,.06-.85,.01-.2,.03-.4,.04-.6,.03-.58,.04-1.17,.04-1.76s-.02-1.12-.04-1.67c-.02-.34-.04-.67-.07-1.01-.01-.19-.03-.38-.04-.57-.04-.44-.09-.88-.15-1.32,0-.06-.02-.12-.02-.18-.07-.49-.14-.98-.23-1.46-2.94-16.74-17.54-29.46-35.13-29.46-1.64,0-3.26,.12-4.84,.33C43.76,3.48,53.37,.65,63.59,.09c0,0,0,0,.01,0,.56-.03,1.12-.06,1.68-.08,.02,0,.04,.02,.05,.03,.42-.01,.85-.02,1.27-.04,9.29,2.1,17.15,7.97,21.87,15.93,.98,.23,1.95,.48,2.91,.76-2.04-6.05-5.73-11.33-10.53-15.33,.37,.08,.75,.14,1.12,.22,.03,0,.05,.01,.08,.02,1.07,.24,2.13,.51,3.19,.8,.09,.03,.19,.05,.28,.08,.94,.26,1.87,.55,2.79,.85,.14,.05,.28,.09,.42,.14,2.02,.68,4,1.45,5.94,2.31,.1,.05,.2,.09,.31,.14,.9,.41,1.8,.83,2.68,1.28,.07,.03,.13,.07,.2,.1,2.57,1.31,5.02,2.79,7.39,4.41,3.5,4.86,5.7,10.72,6.08,17.07,.8,.82,1.57,1.66,2.3,2.53,.51-2.29,.79-4.68,.79-7.13,0-1.84-.16-3.64-.45-5.39,2.57,2.48,4.96,5.14,7.12,8,0,0,0,.01,.01,.02,0,0,0,0,0,0,1.9,2.51,3.6,5.18,5.14,7.95-.2,14.05-9.92,25.79-23,29.07,.69,.81,1.35,1.64,1.98,2.48,.75,1,1.49,2.02,2.17,3.08h0s.31,.47,.31,.47c5.59,8.66,13.66,15.57,23.19,19.76-1.21,3.46-2.71,6.78-4.44,9.96-2.48-1.26-4.91-2.6-7.27-4.04-.2,.41-.41,.81-.61,1.22,1.99,1.99,4.06,3.9,6.19,5.72-2.67,4.34-5.8,8.36-9.35,11.98-1.07-2.23-2.22-4.41-3.47-6.53-.47,.53-.95,1.04-1.45,1.54,.72,2.62,1.31,5.29,1.78,8-3.61,3.24-7.57,6.1-11.82,8.5-.01-3.35-.32-6.62-.89-9.8-.63,.34-1.27,.67-1.92,.98-.24,3.86-.87,7.61-1.83,11.22-5.75,2.69-11.95,4.59-18.45,5.56,5.66-8.02,9.15-17.67,9.6-28.12,0,0,0,0,0,0,.08-1.79,.05-3.59-.06-5.41-.01-.2-.02-.39-.04-.59-.07-1-.16-2-.29-3-.02-.15-.05-.29-.07-.44-.11-.79-.24-1.59-.38-2.38-.07-.38-.14-.75-.22-1.12-.11-.54-.24-1.09-.37-1.63-.08-.34-.15-.69-.23-1.04,0,0,0,.02,0,.02-.2-.77-.42-1.53-.66-2.3-.04-.12-.08-.23-.11-.34-8.52,17.61-26.56,29.76-47.44,29.76-6.35,0-12.45-1.13-18.09-3.19-1.11-1.15-2.18-2.35-3.21-3.58-.48-.57-.96-1.15-1.42-1.74Z"/>
</svg>