<?xml version="1.0" encoding="UTF-8"?>
<svg id="Layer_1" data-name="Layer 1" xmlns="http://www.w3.org/2000/svg" viewBox="0 0 261.09 300">
  <defs>
    <style>
      .cls-1 {
        fill: #fff;
      }
    </style>
  </defs>
  <path class="cls-1" d="M105.98,204.18c-18.98,7.08-38.07,12.74-57.08,17.02,33.47,37.73,81.13,55.33,133.44,29.01l.42-1.88c4.16-30.18,3.75-42.8,.75-62.45-3-19.65-36.63-116.66-56.45-149.81C112.85,12.3,64.73-10.65,23.29,5.29c-2.5,.97-4.57,2.81-5.8,5.19C-7.91,59.79-4.01,122.9,18.69,173.66c26.43,14.11,55.88,24.4,87.29,30.51h0Z"/>
  <path class="cls-1" d="M130.77,181.35l-16.97,8.14c31.45,65.55,99.01,88.85,134.09,96.73l13.2-16.54c-27.66-4.94-99.33-23.76-130.32-88.34Z"/>
</svg>