<?xml version="1.0" encoding="utf-8"?>
<!-- Generator: Adobe Illustrator 27.0.0, SVG Export Plug-In . SVG Version: 6.00 Build 0)  -->
<svg version="1.1" id="Layer_1" xmlns="http://www.w3.org/2000/svg" xmlns:xlink="http://www.w3.org/1999/xlink" x="0px" y="0px"
	 viewBox="0 0 261.1 300" style="enable-background:new 0 0 261.1 286.2;" xml:space="preserve">
<style type="text/css">
	.st0{fill:#C63347;}
	.st1{fill:#682145;}
</style>
<path class="st0" d="M106,204.2c-19,7.1-38.1,12.7-57.1,17c33.5,37.7,81.1,55.3,133.4,29l0.4-1.9c4.2-30.2,3.7-42.8,0.7-62.5
	S146.9,69.2,127.1,36.1C112.9,12.3,64.7-10.7,23.3,5.3c-2.5,1-4.6,2.8-5.8,5.2C-7.9,59.8-4,122.9,18.7,173.7
	C45.1,187.8,74.6,198.1,106,204.2L106,204.2z"/>
<path class="st1" d="M130.8,181.4l-17,8.1c31.5,65.5,99,88.9,134.1,96.7l13.2-16.5C233.4,264.8,161.8,245.9,130.8,181.4z"/>
</svg>
