<?xml version="1.0" encoding="UTF-8"?>
<svg id="Layer_1" data-name="Layer 1" xmlns="http://www.w3.org/2000/svg" xmlns:xlink="http://www.w3.org/1999/xlink" viewBox="0 0 413.62 335.64">
  <defs>
    <style>
      .cls-1 {
        fill: url(#linear-gradient-2);
      }

      .cls-2 {
        fill: #fff;
      }

      .cls-3 {
        clip-path: url(#clippath-1);
      }

      .cls-4 {
        fill: url(#radial-gradient);
      }

      .cls-5 {
        clip-path: url(#clippath);
      }

      .cls-6 {
        fill: none;
      }

      .cls-7 {
        mask: url(#mask);
      }

      .cls-8 {
        fill: url(#linear-gradient);
      }

      .cls-9 {
        fill: #a2cacc;
      }

      .cls-10 {
        fill: #e72e3c;
      }

      .cls-11 {
        fill: #e7ca4c;
      }
    </style>
    <clipPath id="clippath">
      <rect class="cls-6" x="29.87" width="351.32" height="254.67"/>
    </clipPath>
    <linearGradient id="linear-gradient" x1="189.25" y1="107.61" x2="189.25" y2="56.2" gradientUnits="userSpaceOnUse">
      <stop offset="0" stop-color="#a2c2d1"/>
      <stop offset="1" stop-color="#e0eaee"/>
    </linearGradient>
    <linearGradient id="linear-gradient-2" x1="198.34" y1="66.37" x2="198.34" y2="107.41" gradientUnits="userSpaceOnUse">
      <stop offset="0" stop-color="#83cdb6"/>
      <stop offset=".99" stop-color="#fff"/>
    </linearGradient>
    <clipPath id="clippath-1">
      <rect class="cls-6" y="81.01" width="413.62" height="254.64"/>
    </clipPath>
    <radialGradient id="radial-gradient" cx="217.96" cy="163.35" fx="217.96" fy="163.35" r="194.89" gradientTransform="translate(-66.45 31.04) scale(1.25 .81)" gradientUnits="userSpaceOnUse">
      <stop offset=".6" stop-color="#fff"/>
      <stop offset=".64" stop-color="#f9f9f9"/>
      <stop offset=".69" stop-color="#eaeaea"/>
      <stop offset=".74" stop-color="#d0d0d0"/>
      <stop offset=".8" stop-color="#adadad"/>
      <stop offset=".86" stop-color="#7f7f7f"/>
      <stop offset=".93" stop-color="#474747"/>
      <stop offset=".99" stop-color="#060606"/>
      <stop offset="1" stop-color="#000"/>
    </radialGradient>
    <mask id="mask" x="3.71" y="254.67" width="404.43" height="69.53" maskUnits="userSpaceOnUse">
      <polygon class="cls-4" points="3.71 254.67 407.69 254.67 408.14 324.2 3.71 324.2 3.71 254.67"/>
    </mask>
  </defs>
  <g class="cls-5">
    <g>
      <path class="cls-2" d="M102.81,188.16l-15.1-18.41c-2.31,1.97-4.52,4.01-6.64,6.09l14.79,18.02,5.35,6.52,6.85-4.91,5.96-4.27-5.85-6.88-5.35,3.83Z"/>
      <path d="M260.85,129.07h-28.26v158.38c8.81,3.25,18.32,5.02,28.26,5.02,45.12,0,81.7-36.58,81.7-81.7s-36.58-81.7-81.7-81.7Z"/>
      <ellipse class="cls-2" cx="187.69" cy="216.24" rx="120.03" ry="73.66"/>
      <path d="M84.04,212.6l7.16-3.89,7.61-18.64-14.86-17c-5.52,5.09-10.46,10.51-14.77,16.23v.03c-6.17,8.67-9.81,19.28-9.81,30.74,0,29.29,23.75,53.04,53.04,53.04l-28.37-60.51Z"/>
      <polygon points="245.74 132.5 282.17 96.07 289.7 136.24 245.74 132.5"/>
      <circle class="cls-2" cx="117.24" cy="226.11" r="39.29"/>
      <path d="M87.7,169.75l15.1,18.41,63.14-45.22,7.61-11.48c-34.06,5.85-63.95,19.53-85.86,38.28Z"/>
      <polygon class="cls-2" points="225.45 50.59 180.32 53.14 162.39 84.08 156.96 81.27 143.81 106.66 151.96 110.88 152.6 109.64 172.94 121.61 148.85 165.05 242.94 177.56 242.94 119.52 225.45 50.59"/>
      <g>
        <circle class="cls-2" cx="241.37" cy="221.13" r="50.33"/>
        <path class="cls-2" d="M239.74,148.46l35.07,35.07c-9.37-5.96-24.44,3.14-37.28,3.14l2.21-38.21Z"/>
      </g>
      <path class="cls-2" d="M160.34,220.36c-31.85-10.98-56.96-30.42-70.12-52.68-.26,.22-.54,.43-.8,.64v-.02c-.48,.39-.94,.78-1.4,1.18-.1,.09-.21,.17-.31,.26h0c-.95,.82-1.9,1.64-2.82,2.48l.02,.03c-.31,.28-.63,.56-.94,.84v-.02c-.23,.2-.45,.41-.66,.61,3.43,5.56,7.57,11,12.39,16.25,16.24,17.66,38.82,31.51,64.65,39.9v-9.47Z"/>
      <path class="cls-2" d="M317.24,151.69c-.14,2.33-.51,4.68-1.12,7.03-4.24,16.25-18.8,27.04-34.69,27.04-2.95,0-5.95-.37-8.94-1.15-5.16-1.34-9.74-3.77-13.6-6.97v10.97c3.5,2.06,7.3,3.65,11.33,4.7,3.67,.96,7.44,1.44,11.21,1.44,20.36,0,38.21-13.89,43.4-33.77,.07-.25,.12-.51,.18-.76-2.39-3.03-4.98-5.88-7.77-8.54Z"/>
      <path class="cls-8" d="M209.45,16.73h-.02c-.09-.01-.19,0-.29,0-.09,0-.18,0-.26,0-.88,0-1.75,.03-2.62,.07-3.86,.15-7.93,.57-12.29,1.29l-38.87,7.73-13.9,2.77h0s-2.35,.47-2.35,.47c-2.09,.42-4.07,1.05-5.95,1.85v-.05c-4.88,2.05-9.02,5.31-12.13,9.35v4.41h12.13v-9.93l52.21,21.18h33.1V125.99h24.78l12.41-45.44c1.52-4.72,2.34-9.75,2.34-14.98,0-26.79-21.57-48.53-48.28-48.84Z"/>
      <circle cx="201.34" cy="56.01" r="7.15"/>
      <g>
        <g>
          <path class="cls-11" d="M118.88,83.35l-.62-3.13-.66-3.32-2.5-12.53c-1.53-7.69,.03-15.27,3.81-21.48,.07-.12,.14-.24,.22-.36,.09-.15,.19-.3,.28-.44,.21-.32,.42-.63,.64-.94,.02-.03,.04-.06,.06-.08h0c4.8-6.72,12.66-11.11,21.56-11.11,5.95,0,11.44,1.96,15.87,5.28h.01s27.56,20.62,27.56,20.62l-35.09,46.91-3.21,4.29-27.93-23.71Z"/>
          <path d="M119.48,86.35c-.99-5.02-2.82-14.12-3.81-19.12-2.35-8.87-1.02-18.65,4.44-26.15,6.11-8.72,17.63-13.01,27.94-10.33,3.43,.84,6.66,2.41,9.49,4.5,.02,0,27.55,20.61,27.56,20.62,0,0-34.84,46.58-34.84,46.58-1.23,1.68-2,3.66-1.86,5.8,.03,.03-1.24,1.74-1.24,1.77,0,0-1.66-1.42-1.66-1.42l-26.03-22.24h0Zm.19-3.85s.28,.23,.28,.23l28.15,22.82-2.9,.33s.76-3.04,.77-3.05c.21-.82,.5-2.03,.71-2.84,.01-.05,.03-.12,.04-.17,2.4,1.8,.67,.5,1.2,.9,5.04-8.33,10.16-16.61,15.46-24.78,4.69-7.14,10.96-17.59,16.56-23.93,0,0,1.3,9.01,1.3,9.01-4.44-3.65-8.83-7.37-13.17-11.14-4.33-3.78-8.69-7.52-12.98-11.37-.01,0,3.12,.77,3.07,.76,0,0-2.01,.15-2.01,.15l-1.07-.91c-7.05-6.08-17.82-6.97-25.92-2.32-3.08,1.69-5.75,4.17-7.89,7.01,0,0-.83,.09-.83,.09,0,0,1.48-.91,1.48-.91-2.05,2.67-3.7,5.75-4.7,9.03-1.65,5.01-1.48,10.43-.34,15.57,.85,4.92,2.05,10.56,2.79,15.51h0Z"/>
        </g>
        <path d="M171.7,63.08c2.24-3.56,1.7-8.2-1.27-11.15l.28-1.34,7.74,5.83-2.92,4.4-2.65,2.66-1.19-.4Z"/>
      </g>
      <polygon class="cls-1" points="187.59 64.47 209.09 64.47 209.09 104.58 187.59 64.47"/>
      <polygon class="cls-10" points="117.82 77.99 105.42 100.29 76.6 113.05 76.6 125.99 181.92 125.99 117.82 77.99"/>
    </g>
  </g>
  <g class="cls-3">
    <g class="cls-7">
      <rect class="cls-9" x="3.71" y="254.67" width="404.43" height="69.53"/>
    </g>
  </g>
</svg>