<?xml version="1.0" encoding="UTF-8"?>
<svg id="Layer_1" data-name="Layer 1" xmlns="http://www.w3.org/2000/svg" viewBox="0 0 282.38 140.7">
  <defs>
    <style>
      .cls-1 {
        fill: #e4f4eb;
      }

      .cls-2 {
        fill: #fff;
      }

      .cls-3 {
        fill: #c2c4d8;
      }

      .cls-4 {
        fill: #746b89;
      }

      .cls-5 {
        fill: #d9e6ea;
      }

      .cls-6 {
        fill: #b4a7c5;
      }

      .cls-7 {
        fill: #444463;
      }

      .cls-8 {
        fill: #2a2a44;
      }
    </style>
  </defs>
  <g>
    <rect class="cls-8" x="0" y="0" width="77.22" height="41.14" rx="20.57" ry="20.57"/>
    <g>
      <path class="cls-2" d="M11.77,13.14l.96-.16V6.26l-.96-.16v-.74h3.06v.74l-.96,.16v2.87h.88l2.38-2.95-.64-.08v-.74h2.71v.74l-.8,.15-2.61,3.23,2.85,3.52,.8,.15v.74h-2.8v-.74l.65-.08-2.43-3.03h-1v2.95l.96,.16v.74h-3.06v-.74Z"/>
      <path class="cls-2" d="M20.39,13.14l.96-.16v-4.53l-.96-.16v-.74h2.11v5.44l.96,.16v.74h-3.06v-.74Zm2.11-7.22h-1.15v-1.18h1.15v1.18Z"/>
      <path class="cls-2" d="M24.16,13.14l.96-.16v-4.53l-.96-.16v-.74h1.99l.08,.94c.21-.34,.48-.6,.79-.78s.68-.28,1.09-.28c.68,0,1.21,.2,1.59,.6s.56,1.02,.56,1.85v3.1l.96,.16v.74h-3.06v-.74l.96-.16v-3.08c0-.56-.11-.96-.33-1.19s-.56-.35-1.01-.35c-.33,0-.63,.08-.88,.24s-.46,.38-.61,.66v3.72l.96,.16v.74h-3.06v-.74Z"/>
      <path class="cls-2" d="M32,10.83c0-1.02,.22-1.84,.67-2.47s1.06-.94,1.85-.94c.4,0,.75,.08,1.05,.23s.55,.38,.76,.68l.11-.8h.97v6.26c0,.82-.23,1.47-.69,1.94s-1.11,.71-1.95,.71c-.3,0-.63-.04-.99-.13s-.67-.2-.94-.34l.3-.9c.21,.11,.47,.21,.76,.28s.58,.11,.86,.11c.52,0,.89-.14,1.13-.43s.36-.7,.36-1.24v-.6c-.21,.27-.46,.47-.74,.6s-.62,.21-1,.21c-.78,0-1.39-.28-1.83-.84s-.67-1.3-.67-2.21v-.12Zm1.15,.12c0,.64,.13,1.15,.4,1.54s.68,.58,1.23,.58c.35,0,.64-.08,.87-.24s.43-.38,.58-.67v-2.92c-.15-.27-.34-.48-.58-.64s-.53-.24-.86-.24c-.55,0-.96,.23-1.24,.69s-.41,1.05-.41,1.78v.12Z"/>
      <path class="cls-2" d="M43.06,13.12c-.21,.29-.46,.51-.76,.66s-.65,.22-1.04,.22c-.77,0-1.38-.28-1.81-.84s-.65-1.3-.65-2.21v-.12c0-1.02,.22-1.84,.65-2.47s1.04-.94,1.83-.94c.38,0,.71,.07,.99,.21s.53,.34,.74,.6v-2.58l-.96-.16v-.74h2.11V12.98l.96,.16v.74h-1.96l-.09-.76Zm-3.11-2.17c0,.64,.13,1.15,.39,1.54s.67,.58,1.21,.58c.34,0,.63-.08,.87-.23s.43-.38,.58-.66v-2.94c-.15-.27-.34-.48-.58-.63s-.52-.23-.86-.23c-.55,0-.96,.23-1.22,.69s-.4,1.05-.4,1.78v.12Z"/>
      <path class="cls-2" d="M45.99,10.65c0-.94,.25-1.71,.76-2.32s1.2-.91,2.07-.91,1.57,.3,2.08,.91,.76,1.38,.76,2.32v.13c0,.95-.25,1.72-.76,2.32s-1.2,.9-2.07,.9-1.57-.3-2.08-.91-.76-1.38-.76-2.32v-.13Zm1.15,.13c0,.67,.14,1.23,.42,1.66s.7,.66,1.26,.66,.96-.22,1.25-.66,.43-.99,.43-1.66v-.13c0-.66-.14-1.22-.43-1.66s-.71-.66-1.26-.66-.97,.22-1.25,.66-.42,.99-.42,1.66v.13Z"/>
      <path class="cls-2" d="M52.49,13.14l.96-.16v-4.53l-.96-.16v-.74h1.99l.08,.83c.2-.3,.46-.53,.79-.7s.69-.25,1.11-.25,.78,.1,1.09,.29,.53,.49,.68,.88c.2-.36,.46-.64,.79-.86s.71-.32,1.15-.32c.65,0,1.16,.22,1.54,.67s.56,1.11,.56,2v2.89l.96,.16v.74h-3.07v-.74l.96-.16v-2.9c0-.62-.11-1.07-.32-1.33s-.53-.39-.96-.39-.73,.14-.97,.42-.39,.64-.42,1.07v3.12l.96,.16v.74h-3.06v-.74l.96-.16v-2.9c0-.59-.11-1.03-.33-1.3s-.54-.41-.96-.41c-.35,0-.64,.07-.87,.22s-.4,.35-.52,.61v3.79l.96,.16v.74h-3.06v-.74Z"/>
      <path class="cls-2" d="M65.54,8.72h-1.15v-1.18h1.15v1.18Zm0,5.16h-1.15v-1.18h1.15v1.18Z"/>
      <path class="cls-2" d="M11.68,27.54l.63-.09,2.98-7.71h.99l2.93,7.71,.63,.09v.74h-2.45v-.74l.64-.11-.56-1.57h-3.42l-.58,1.57,.64,.11v.74h-2.44v-.74Zm2.74-2.65h2.71l-1.32-3.66h-.04l-1.35,3.66Z"/>
      <path class="cls-2" d="M20.5,27.54l.96-.16v-4.53l-.96-.16v-.74h1.99l.08,.94c.21-.34,.48-.6,.79-.78s.68-.28,1.09-.28c.68,0,1.21,.2,1.59,.6s.56,1.02,.56,1.85v3.1l.96,.16v.74h-3.06v-.74l.96-.16v-3.08c0-.56-.11-.96-.33-1.19s-.56-.35-1.01-.35c-.33,0-.63,.08-.88,.24s-.46,.38-.61,.66v3.72l.96,.16v.74h-3.06v-.74Z"/>
      <path class="cls-2" d="M28.39,27.54l.96-.16v-4.53l-.96-.16v-.74h2.11v5.44l.96,.16v.74h-3.06v-.74Zm2.11-7.22h-1.15v-1.18h1.15v1.18Z"/>
      <path class="cls-2" d="M32.1,27.54l.96-.16v-4.53l-.96-.16v-.74h1.99l.08,.83c.2-.3,.46-.53,.79-.7s.69-.25,1.11-.25,.78,.1,1.09,.29,.53,.49,.68,.88c.2-.36,.46-.64,.79-.86s.71-.32,1.15-.32c.65,0,1.16,.22,1.54,.67s.56,1.11,.56,2v2.89l.96,.16v.74h-3.07v-.74l.96-.16v-2.9c0-.62-.11-1.07-.32-1.33s-.53-.39-.96-.39-.73,.14-.97,.42-.39,.64-.42,1.07v3.12l.96,.16v.74h-3.06v-.74l.96-.16v-2.9c0-.59-.11-1.03-.33-1.3s-.54-.41-.96-.41c-.35,0-.64,.07-.87,.22s-.4,.35-.52,.61v3.79l.96,.16v.74h-3.06v-.74Z"/>
      <path class="cls-2" d="M47.81,28.28c-.04-.17-.06-.33-.08-.46s-.03-.27-.04-.41c-.22,.29-.5,.52-.83,.71s-.69,.28-1.07,.28c-.66,0-1.16-.16-1.51-.48s-.52-.78-.52-1.36,.24-1.07,.73-1.39,1.15-.49,2-.49h1.19v-.74c0-.37-.12-.67-.35-.88s-.56-.33-.98-.33c-.29,0-.54,.04-.76,.11s-.4,.18-.54,.3l-.12,.67h-.89v-1.23c.29-.23,.64-.42,1.05-.55s.86-.21,1.34-.21c.72,0,1.3,.18,1.75,.55s.67,.89,.67,1.58v3.05c0,.08,0,.16,0,.24s0,.16,.01,.23l.47,.06v.74h-1.51Zm-1.86-.84c.38,0,.73-.09,1.05-.28s.54-.4,.68-.66v-1.04h-1.23c-.47,0-.85,.11-1.12,.33s-.41,.48-.41,.8c0,.28,.09,.49,.26,.64s.43,.22,.78,.22Z"/>
      <path class="cls-2" d="M50.12,19.88v-.74h2.11v8.24l.96,.16v.74h-3.06v-.74l.96-.16v-7.33l-.96-.16Z"/>
      <path class="cls-2" d="M54.06,27.54l.96-.16v-4.53l-.96-.16v-.74h2.11v5.44l.96,.16v.74h-3.06v-.74Zm2.11-7.22h-1.15v-1.18h1.15v1.18Z"/>
      <path class="cls-2" d="M62.14,28.28c-.04-.17-.06-.33-.08-.46s-.03-.27-.04-.41c-.22,.29-.5,.52-.83,.71s-.69,.28-1.07,.28c-.66,0-1.16-.16-1.51-.48s-.52-.78-.52-1.36,.24-1.07,.73-1.39,1.15-.49,2-.49h1.19v-.74c0-.37-.12-.67-.35-.88s-.56-.33-.98-.33c-.29,0-.54,.04-.76,.11s-.4,.18-.54,.3l-.12,.67h-.89v-1.23c.29-.23,.64-.42,1.05-.55s.86-.21,1.34-.21c.72,0,1.3,.18,1.75,.55s.67,.89,.67,1.58v3.05c0,.08,0,.16,0,.24s0,.16,.01,.23l.47,.06v.74h-1.51Zm-1.86-.84c.38,0,.73-.09,1.05-.28s.54-.4,.68-.66v-1.04h-1.23c-.47,0-.85,.11-1.12,.33s-.41,.48-.41,.8c0,.28,.09,.49,.26,.64s.43,.22,.78,.22Z"/>
    </g>
  </g>
  <g>
    <rect class="cls-7" x="24.51" y="33.78" width="71.7" height="41.14" rx="20.57" ry="20.57"/>
    <g>
      <path class="cls-2" d="M38.8,39.13c.91,0,1.62,.23,2.12,.7s.76,1.09,.76,1.85-.25,1.39-.76,1.86-1.21,.7-2.12,.7h-1.81v2.52l.96,.16v.74h-3.06v-.74l.96-.16v-6.72l-.96-.16v-.74h3.92Zm-1.81,4.21h1.81c.58,0,1.01-.16,1.3-.47s.43-.7,.43-1.17-.14-.87-.43-1.18-.72-.47-1.3-.47h-1.81v3.3Z"/>
      <path class="cls-2" d="M42.45,46.92l.96-.16v-7.33l-.96-.16v-.74h2.11v3.64c.22-.3,.49-.54,.8-.71s.67-.25,1.05-.25c.68,0,1.21,.2,1.58,.61s.56,1.03,.56,1.88v3.07l.96,.16v.74h-3.06v-.74l.96-.16v-3.08c0-.52-.11-.91-.34-1.16s-.56-.38-1-.38c-.32,0-.6,.08-.86,.23s-.47,.35-.64,.61v3.78l.96,.16v.74h-3.06v-.74Z"/>
      <path class="cls-2" d="M56.38,42.06l-.57,.09-2.41,6.48c-.16,.43-.39,.8-.69,1.11s-.71,.47-1.21,.47c-.09,0-.21-.01-.35-.03s-.26-.04-.33-.06l.12-.91s.05,0,.21,.01,.26,.02,.31,.02c.25,0,.45-.11,.6-.32s.29-.46,.4-.74l.28-.66-2.09-5.38-.58-.09v-.74h2.56v.74l-.71,.12,1.1,3.13,.21,.81h.04l1.32-3.94-.72-.12v-.74h2.55v.74Z"/>
      <path class="cls-2" d="M57,39.26v-.74h2.11v8.24l.96,.16v.74h-3.06v-.74l.96-.16v-7.33l-.96-.16Z"/>
      <path class="cls-2" d="M65.48,46.72c-.2,.34-.46,.6-.77,.79s-.68,.28-1.09,.28c-.69,0-1.22-.22-1.61-.66s-.58-1.13-.58-2.06v-2.83l-.73-.16v-.74h1.88v3.75c0,.68,.1,1.14,.3,1.39s.51,.38,.93,.38,.75-.08,1.02-.25,.47-.4,.61-.71v-3.66l-.85-.16v-.74h2v5.44l.73,.16v.74h-1.76l-.08-.94Z"/>
      <path class="cls-2" d="M68,46.92l.96-.16v-4.53l-.96-.16v-.74h1.99l.08,.83c.2-.3,.46-.53,.79-.7s.69-.25,1.11-.25,.78,.1,1.09,.29,.53,.49,.68,.88c.2-.36,.46-.64,.79-.86s.71-.32,1.15-.32c.65,0,1.16,.22,1.54,.67s.56,1.11,.56,2v2.89l.96,.16v.74h-3.07v-.74l.96-.16v-2.9c0-.62-.11-1.07-.32-1.33s-.53-.39-.96-.39-.73,.14-.97,.42-.39,.64-.42,1.07v3.12l.96,.16v.74h-3.06v-.74l.96-.16v-2.9c0-.59-.11-1.03-.33-1.3s-.54-.41-.96-.41c-.35,0-.64,.07-.87,.22s-.4,.35-.52,.61v3.79l.96,.16v.74h-3.06v-.74Z"/>
      <path class="cls-2" d="M81.05,42.5h-1.15v-1.18h1.15v1.18Zm0,5.16h-1.15v-1.18h1.15v1.18Z"/>
      <path class="cls-2" d="M41.49,56.15h-.81l-.22-1.21c-.19-.18-.42-.33-.69-.45s-.6-.18-.98-.18c-.89,0-1.57,.32-2.04,.96s-.71,1.46-.71,2.45v.13c0,.99,.23,1.81,.7,2.45s1.11,.97,1.94,.97c.39,0,.74-.06,1.05-.18s.56-.27,.73-.45l.22-1.21h.81v1.52c-.25,.32-.62,.6-1.11,.85s-1.06,.37-1.71,.37c-1.11,0-2.02-.41-2.73-1.23s-1.07-1.85-1.07-3.09v-.12c0-1.25,.35-2.28,1.05-3.1s1.62-1.23,2.75-1.23c.65,0,1.22,.13,1.71,.38s.86,.53,1.11,.85v1.52Z"/>
      <path class="cls-2" d="M42.57,61.32l.96-.16v-7.33l-.96-.16v-.74h2.11v3.64c.22-.3,.49-.54,.8-.71s.67-.25,1.05-.25c.68,0,1.21,.2,1.58,.61s.56,1.03,.56,1.88v3.07l.96,.16v.74h-3.06v-.74l.96-.16v-3.08c0-.52-.11-.91-.34-1.16s-.56-.38-1-.38c-.32,0-.6,.08-.86,.23s-.47,.35-.64,.61v3.78l.96,.16v.74h-3.06v-.74Z"/>
      <path class="cls-2" d="M50.42,58.83c0-.94,.25-1.71,.76-2.32s1.2-.91,2.07-.91,1.57,.3,2.08,.91,.76,1.38,.76,2.32v.13c0,.95-.25,1.72-.76,2.32s-1.2,.9-2.07,.9-1.57-.3-2.08-.91-.76-1.38-.76-2.32v-.13Zm1.15,.13c0,.67,.14,1.23,.42,1.66s.7,.66,1.26,.66,.96-.22,1.25-.66,.43-.99,.43-1.66v-.13c0-.66-.14-1.22-.43-1.66s-.71-.66-1.26-.66-.97,.22-1.25,.66-.42,.99-.42,1.66v.13Z"/>
      <path class="cls-2" d="M57.14,56.46v-.74h1.99l.11,.92c.18-.32,.4-.58,.67-.76s.57-.28,.91-.28c.09,0,.18,0,.28,.02s.17,.03,.22,.04l-.15,1.07-.66-.04c-.3,0-.56,.07-.77,.21s-.37,.34-.48,.6v3.64l.96,.16v.74h-3.06v-.74l.96-.16v-4.53l-.96-.16Z"/>
      <path class="cls-2" d="M66.27,61.3c-.21,.29-.46,.51-.76,.66s-.65,.22-1.04,.22c-.77,0-1.38-.28-1.81-.84s-.65-1.3-.65-2.21v-.12c0-1.02,.22-1.84,.65-2.47s1.04-.94,1.83-.94c.38,0,.71,.07,.99,.21s.53,.34,.74,.6v-2.58l-.96-.16v-.74h2.11v8.24l.96,.16v.74h-1.96l-.09-.76Zm-3.11-2.17c0,.64,.13,1.15,.39,1.54s.67,.58,1.21,.58c.34,0,.63-.08,.87-.23s.43-.38,.58-.66v-2.94c-.15-.27-.34-.48-.58-.63s-.52-.23-.86-.23c-.55,0-.96,.23-1.22,.69s-.4,1.05-.4,1.78v.12Z"/>
      <path class="cls-2" d="M73.33,62.06c-.04-.17-.06-.33-.08-.46s-.03-.27-.04-.41c-.22,.29-.5,.52-.83,.71s-.69,.28-1.07,.28c-.66,0-1.16-.16-1.51-.48s-.52-.78-.52-1.36,.24-1.07,.73-1.39,1.15-.49,2-.49h1.19v-.74c0-.37-.12-.67-.35-.88s-.56-.33-.98-.33c-.29,0-.54,.04-.76,.11s-.4,.18-.54,.3l-.12,.67h-.89v-1.23c.29-.23,.64-.42,1.05-.55s.86-.21,1.34-.21c.72,0,1.3,.18,1.75,.55s.67,.89,.67,1.58v3.05c0,.08,0,.16,0,.24s0,.16,.01,.23l.47,.06v.74h-1.51Zm-1.86-.84c.38,0,.73-.09,1.05-.28s.54-.4,.68-.66v-1.04h-1.23c-.47,0-.85,.11-1.12,.33s-.41,.48-.41,.8c0,.28,.09,.49,.26,.64s.43,.22,.78,.22Z"/>
      <path class="cls-2" d="M77.82,54.19v1.53h1.2v.86h-1.2v3.85c0,.3,.06,.51,.18,.63s.29,.18,.49,.18c.1,0,.22,0,.34-.03s.23-.04,.32-.06l.16,.79c-.11,.07-.27,.13-.48,.17s-.42,.07-.63,.07c-.47,0-.84-.14-1.12-.42s-.42-.73-.42-1.33v-3.85h-1v-.86h1v-1.53h1.15Z"/>
      <path class="cls-2" d="M84.34,62.06c-.04-.17-.06-.33-.08-.46s-.03-.27-.04-.41c-.22,.29-.5,.52-.83,.71s-.69,.28-1.07,.28c-.66,0-1.16-.16-1.51-.48s-.52-.78-.52-1.36,.24-1.07,.73-1.39,1.15-.49,2-.49h1.19v-.74c0-.37-.12-.67-.35-.88s-.56-.33-.98-.33c-.29,0-.54,.04-.76,.11s-.4,.18-.54,.3l-.12,.67h-.89v-1.23c.29-.23,.64-.42,1.05-.55s.86-.21,1.34-.21c.72,0,1.3,.18,1.75,.55s.67,.89,.67,1.58v3.05c0,.08,0,.16,0,.24s0,.16,.01,.23l.47,.06v.74h-1.51Zm-1.86-.84c.38,0,.73-.09,1.05-.28s.54-.4,.68-.66v-1.04h-1.23c-.47,0-.85,.11-1.12,.33s-.41,.48-.41,.8c0,.28,.09,.49,.26,.64s.43,.22,.78,.22Z"/>
    </g>
  </g>
  <g>
    <rect class="cls-4" x="54.77" y="67.56" width="60.45" height="41.14" rx="20.57" ry="20.57"/>
    <g>
      <path class="cls-2" d="M75.68,75.52h-.81l-.22-1.21c-.19-.18-.42-.33-.69-.45s-.6-.18-.98-.18c-.89,0-1.57,.32-2.04,.96s-.71,1.46-.71,2.45v.13c0,.99,.23,1.81,.7,2.45s1.11,.97,1.94,.97c.39,0,.74-.06,1.05-.18s.56-.27,.73-.45l.22-1.21h.81v1.52c-.25,.32-.62,.6-1.11,.85s-1.06,.37-1.71,.37c-1.11,0-2.02-.41-2.73-1.23s-1.07-1.85-1.07-3.09v-.12c0-1.25,.35-2.28,1.05-3.1s1.62-1.23,2.75-1.23c.65,0,1.22,.13,1.71,.38s.86,.53,1.11,.85v1.52Z"/>
      <path class="cls-2" d="M76.75,73.04v-.74h2.11v8.24l.96,.16v.74h-3.06v-.74l.96-.16v-7.33l-.96-.16Z"/>
      <path class="cls-2" d="M84.83,81.44c-.04-.17-.06-.33-.08-.46s-.03-.27-.04-.41c-.22,.29-.5,.52-.83,.71s-.69,.28-1.07,.28c-.66,0-1.16-.16-1.51-.48s-.52-.78-.52-1.36,.24-1.07,.73-1.39,1.15-.49,2-.49h1.19v-.74c0-.37-.12-.67-.35-.88s-.56-.33-.98-.33c-.29,0-.54,.04-.76,.11s-.4,.18-.54,.3l-.12,.67h-.89v-1.23c.29-.23,.64-.42,1.05-.55s.86-.21,1.34-.21c.72,0,1.3,.18,1.75,.55s.67,.89,.67,1.58v3.05c0,.08,0,.16,0,.24s0,.16,.01,.23l.47,.06v.74h-1.51Zm-1.86-.84c.38,0,.73-.09,1.05-.28s.54-.4,.68-.66v-1.04h-1.23c-.47,0-.85,.11-1.12,.33s-.41,.48-.41,.8c0,.28,.09,.49,.26,.64s.43,.22,.78,.22Z"/>
      <path class="cls-2" d="M92.15,77.09h-.87l-.19-.76c-.14-.13-.32-.24-.53-.32s-.45-.12-.72-.12c-.41,0-.71,.09-.91,.27s-.3,.4-.3,.65,.09,.45,.26,.59,.53,.27,1.07,.39c.8,.17,1.4,.41,1.79,.7s.59,.69,.59,1.19c0,.56-.23,1.02-.68,1.37s-1.05,.52-1.78,.52c-.48,0-.91-.06-1.29-.17s-.72-.27-1.03-.48v-1.45s.86,0,.86,0l.22,.85c.13,.12,.31,.21,.54,.26s.46,.08,.7,.08c.41,0,.73-.08,.96-.25s.35-.38,.35-.65c0-.25-.1-.46-.29-.63s-.56-.31-1.1-.43c-.77-.17-1.35-.4-1.74-.69s-.59-.68-.59-1.17,.22-.96,.66-1.32,1.01-.54,1.71-.54c.48,0,.91,.06,1.29,.19s.7,.3,.96,.52l.06,1.4Z"/>
      <path class="cls-2" d="M98.27,77.09h-.87l-.19-.76c-.14-.13-.32-.24-.53-.32s-.45-.12-.72-.12c-.41,0-.71,.09-.91,.27s-.3,.4-.3,.65,.09,.45,.26,.59,.53,.27,1.07,.39c.8,.17,1.4,.41,1.79,.7s.59,.69,.59,1.19c0,.56-.23,1.02-.68,1.37s-1.05,.52-1.78,.52c-.48,0-.91-.06-1.29-.17s-.72-.27-1.03-.48v-1.45s.86,0,.86,0l.22,.85c.13,.12,.31,.21,.54,.26s.46,.08,.7,.08c.41,0,.73-.08,.96-.25s.35-.38,.35-.65c0-.25-.1-.46-.29-.63s-.56-.31-1.1-.43c-.77-.17-1.35-.4-1.74-.69s-.59-.68-.59-1.17,.22-.96,.66-1.32,1.01-.54,1.71-.54c.48,0,.91,.06,1.29,.19s.7,.3,.96,.52l.06,1.4Z"/>
      <path class="cls-2" d="M101.02,76.28h-1.15v-1.18h1.15v1.18Zm0,5.16h-1.15v-1.18h1.15v1.18Z"/>
      <path class="cls-2" d="M68.97,95.1l.63-.09,2.98-7.71h.99l2.93,7.71,.63,.09v.74h-2.45v-.74l.64-.11-.56-1.57h-3.42l-.58,1.57,.64,.11v.74h-2.44v-.74Zm2.74-2.65h2.71l-1.32-3.66h-.04l-1.35,3.66Z"/>
      <path class="cls-2" d="M79.43,90.24l-.76,.12,1.31,3.61,.11,.46h.04l.11-.46,1.27-3.61-.77-.12v-.74h2.45v.74l-.52,.09-2.13,5.51h-.87l-2.15-5.51-.52-.09v-.74h2.45v.74Z"/>
      <path class="cls-2" d="M86.77,95.96c-.88,0-1.58-.29-2.11-.88s-.78-1.35-.78-2.29v-.26c0-.9,.27-1.65,.81-2.25s1.17-.9,1.91-.9c.85,0,1.5,.26,1.94,.77s.66,1.2,.66,2.06v.72h-4.11l-.02,.03c.01,.61,.17,1.11,.46,1.5s.71,.59,1.25,.59c.39,0,.73-.06,1.03-.17s.55-.26,.76-.46l.45,.75c-.23,.22-.53,.4-.9,.55s-.82,.23-1.34,.23Zm-.18-5.67c-.39,0-.72,.16-.99,.49s-.44,.74-.5,1.23v.03h2.94v-.15c0-.45-.12-.83-.36-1.14s-.6-.46-1.08-.46Z"/>
      <path class="cls-2" d="M95.18,91.49h-.87l-.19-.76c-.14-.13-.32-.24-.53-.32s-.45-.12-.72-.12c-.41,0-.71,.09-.91,.27s-.3,.4-.3,.65,.09,.45,.26,.59,.53,.27,1.07,.39c.8,.17,1.4,.41,1.79,.7s.59,.69,.59,1.19c0,.56-.23,1.02-.68,1.37s-1.05,.52-1.78,.52c-.48,0-.91-.06-1.29-.17s-.72-.27-1.03-.48v-1.45s.86,0,.86,0l.22,.85c.13,.12,.31,.21,.54,.26s.46,.08,.7,.08c.41,0,.73-.08,.96-.25s.35-.38,.35-.65c0-.25-.1-.46-.29-.63s-.56-.31-1.1-.43c-.77-.17-1.35-.4-1.74-.69s-.59-.68-.59-1.17,.22-.96,.66-1.32,1.01-.54,1.71-.54c.48,0,.91,.06,1.29,.19s.7,.3,.96,.52l.06,1.4Z"/>
    </g>
  </g>
  <g>
    <rect class="cls-6" x="73.77" y="99.56" width="55.11" height="41.14" rx="20.57" ry="20.57"/>
    <g>
      <path d="M92.47,113.3c0,1.24-.36,2.27-1.07,3.09s-1.64,1.23-2.77,1.23-2-.41-2.68-1.23-1.03-1.85-1.03-3.09v-.12c0-1.24,.34-2.27,1.03-3.09s1.58-1.24,2.68-1.24,2.06,.41,2.77,1.24,1.07,1.86,1.07,3.09v.12Zm-1.15-.13c0-.99-.24-1.8-.71-2.43s-1.13-.94-1.97-.94-1.43,.31-1.88,.94-.68,1.44-.68,2.43v.13c0,1,.23,1.81,.68,2.44s1.08,.94,1.88,.94c.85,0,1.51-.31,1.98-.94s.7-1.44,.7-2.44v-.13Z"/>
      <path d="M93.44,111.9v-.74h1.99l.11,.92c.18-.32,.4-.58,.67-.76s.57-.28,.91-.28c.09,0,.18,0,.28,.02s.17,.03,.22,.04l-.15,1.07-.66-.04c-.3,0-.56,.07-.77,.21s-.37,.34-.48,.6v3.64l.96,.16v.74h-3.06v-.74l.96-.16v-4.53l-.96-.16Z"/>
      <path d="M102.56,116.74c-.21,.29-.46,.51-.76,.66s-.65,.22-1.04,.22c-.77,0-1.38-.28-1.81-.84s-.65-1.3-.65-2.21v-.12c0-1.02,.22-1.84,.65-2.47s1.04-.94,1.83-.94c.38,0,.71,.07,.99,.21s.53,.34,.74,.6v-2.58l-.96-.16v-.74h2.11v8.24l.96,.16v.74h-1.96l-.09-.76Zm-3.11-2.17c0,.64,.13,1.15,.39,1.54s.67,.58,1.21,.58c.34,0,.63-.08,.87-.23s.43-.38,.58-.66v-2.94c-.15-.27-.34-.48-.58-.63s-.52-.23-.86-.23c-.55,0-.96,.23-1.22,.69s-.4,1.05-.4,1.78v.12Z"/>
      <path d="M108.39,117.62c-.88,0-1.58-.29-2.11-.88s-.78-1.35-.78-2.29v-.26c0-.9,.27-1.65,.81-2.25s1.17-.9,1.91-.9c.85,0,1.5,.26,1.94,.77s.66,1.2,.66,2.06v.72h-4.11l-.02,.03c.01,.61,.17,1.11,.46,1.5s.71,.59,1.25,.59c.39,0,.73-.06,1.03-.17s.55-.26,.76-.46l.45,.75c-.23,.22-.53,.4-.9,.55s-.82,.23-1.34,.23Zm-.18-5.67c-.39,0-.72,.16-.99,.49s-.44,.74-.5,1.23v.03h2.94v-.15c0-.45-.12-.83-.36-1.14s-.6-.46-1.08-.46Z"/>
      <path d="M111.95,111.9v-.74h1.99l.11,.92c.18-.32,.4-.58,.67-.76s.57-.28,.91-.28c.09,0,.18,0,.28,.02s.17,.03,.22,.04l-.15,1.07-.66-.04c-.3,0-.56,.07-.77,.21s-.37,.34-.48,.6v3.64l.96,.16v.74h-3.06v-.74l.96-.16v-4.53l-.96-.16Z"/>
      <path d="M118.39,112.34h-1.15v-1.18h1.15v1.18Zm0,5.16h-1.15v-1.18h1.15v1.18Z"/>
      <path d="M98.17,129.5c0-.57,.05-.96,.14-1.18s.34-.5,.74-.86c.39-.46,.66-.81,.83-1.05s.25-.54,.25-.89c0-.41-.11-.73-.33-.96s-.54-.33-.95-.33c-.36,0-.66,.1-.91,.29s-.37,.48-.37,.85h-1.1l-.02-.04c-.01-.63,.21-1.13,.66-1.51s1.03-.57,1.73-.57c.77,0,1.37,.2,1.79,.59s.64,.94,.64,1.64c0,.5-.14,.96-.41,1.38s-.64,.85-1.09,1.28c-.21,.21-.33,.4-.38,.57s-.07,.43-.07,.79h-1.15Zm1.19,2.4h-1.2v-1.22h1.2v1.22Z"/>
      <path d="M103.76,129.5c0-.57,.05-.96,.14-1.18s.34-.5,.74-.86c.39-.46,.66-.81,.83-1.05s.25-.54,.25-.89c0-.41-.11-.73-.33-.96s-.54-.33-.95-.33c-.36,0-.66,.1-.91,.29s-.37,.48-.37,.85h-1.1l-.02-.04c-.01-.63,.21-1.13,.66-1.51s1.03-.57,1.73-.57c.77,0,1.37,.2,1.79,.59s.64,.94,.64,1.64c0,.5-.14,.96-.41,1.38s-.64,.85-1.09,1.28c-.21,.21-.33,.4-.38,.57s-.07,.43-.07,.79h-1.15Zm1.19,2.4h-1.2v-1.22h1.2v1.22Z"/>
    </g>
  </g>
  <g>
    <rect class="cls-3" x="120.11" y="99.56" width="62.49" height="41.14" rx="20.57" ry="20.57"/>
    <g>
      <path d="M130.69,116.76l.96-.16v-6.72l-.96-.16v-.74h6.59v2.05h-.98l-.09-1.14h-3.4v2.94h3.3v.91h-3.3v2.87l.96,.16v.74h-3.06v-.74Z"/>
      <path d="M142.19,117.5c-.04-.17-.06-.33-.08-.46s-.03-.27-.04-.41c-.22,.29-.5,.52-.83,.71s-.69,.28-1.07,.28c-.66,0-1.16-.16-1.51-.48s-.52-.78-.52-1.36,.24-1.07,.73-1.39,1.15-.49,2-.49h1.19v-.74c0-.37-.12-.67-.35-.88-.23-.22-.56-.33-.98-.33-.29,0-.54,.04-.76,.11s-.4,.18-.54,.3l-.12,.67h-.89v-1.23c.29-.23,.64-.42,1.05-.55s.86-.21,1.34-.21c.72,0,1.3,.18,1.75,.55s.67,.89,.67,1.58v3.05c0,.08,0,.16,0,.24s0,.16,.01,.23l.47,.06v.74h-1.51Zm-1.86-.84c.38,0,.73-.09,1.05-.28s.54-.4,.68-.66v-1.04h-1.23c-.47,0-.85,.11-1.12,.33s-.41,.48-.41,.8c0,.28,.09,.49,.26,.64s.43,.22,.78,.22Z"/>
      <path d="M144.44,116.76l.96-.16v-4.53l-.96-.16v-.74h1.99l.08,.83c.2-.3,.46-.53,.79-.7s.69-.25,1.11-.25,.78,.1,1.09,.29,.53,.49,.68,.88c.2-.36,.46-.64,.79-.86s.71-.32,1.15-.32c.65,0,1.16,.22,1.54,.67s.56,1.11,.56,2v2.89l.96,.16v.74h-3.07v-.74l.96-.16v-2.9c0-.62-.11-1.07-.32-1.33s-.53-.39-.96-.39-.73,.14-.97,.42-.39,.64-.42,1.07v3.12l.96,.16v.74h-3.06v-.74l.96-.16v-2.9c0-.59-.11-1.03-.33-1.3s-.54-.41-.96-.41c-.35,0-.64,.07-.87,.22s-.4,.35-.52,.61v3.79l.96,.16v.74h-3.06v-.74Z"/>
      <path d="M156,116.76l.96-.16v-4.53l-.96-.16v-.74h2.11v5.44l.96,.16v.74h-3.06v-.74Zm2.11-7.22h-1.15v-1.18h1.15v1.18Z"/>
      <path d="M159.79,109.1v-.74h2.11v8.24l.96,.16v.74h-3.06v-.74l.96-.16v-7.33l-.96-.16Z"/>
      <path d="M169.75,111.9l-.57,.09-2.41,6.48c-.16,.43-.39,.8-.69,1.11s-.71,.47-1.21,.47c-.09,0-.21-.01-.35-.03s-.26-.04-.33-.06l.12-.91s.05,0,.21,.01,.26,.02,.31,.02c.25,0,.45-.11,.6-.32s.29-.46,.4-.74l.28-.66-2.09-5.38-.58-.09v-.74h2.56v.74l-.71,.12,1.1,3.13,.21,.81h.04l1.32-3.94-.72-.12v-.74h2.55v.74Z"/>
      <path d="M172.02,112.34h-1.15v-1.18h1.15v1.18Zm0,5.16h-1.15v-1.18h1.15v1.18Z"/>
      <path d="M147.9,129.5c0-.57,.05-.96,.14-1.18s.34-.5,.74-.86c.39-.46,.66-.81,.83-1.05s.25-.54,.25-.89c0-.41-.11-.73-.33-.96s-.54-.33-.95-.33c-.36,0-.66,.1-.91,.29s-.37,.48-.37,.85h-1.1l-.02-.04c-.01-.63,.21-1.13,.66-1.51s1.03-.57,1.73-.57c.77,0,1.37,.2,1.79,.59s.64,.94,.64,1.64c0,.5-.14,.96-.41,1.38s-.64,.85-1.09,1.28c-.21,.21-.33,.4-.38,.57s-.07,.43-.07,.79h-1.15Zm1.19,2.4h-1.2v-1.22h1.2v1.22Z"/>
      <path d="M153.48,129.5c0-.57,.05-.96,.14-1.18s.34-.5,.74-.86c.39-.46,.66-.81,.83-1.05s.25-.54,.25-.89c0-.41-.11-.73-.33-.96s-.54-.33-.95-.33c-.36,0-.66,.1-.91,.29s-.37,.48-.37,.85h-1.1l-.02-.04c-.01-.63,.21-1.13,.66-1.51s1.03-.57,1.73-.57c.77,0,1.37,.2,1.79,.59s.64,.94,.64,1.64c0,.5-.14,.96-.41,1.38s-.64,.85-1.09,1.28c-.21,.21-.33,.4-.38,.57s-.07,.43-.07,.79h-1.15Zm1.19,2.4h-1.2v-1.22h1.2v1.22Z"/>
    </g>
  </g>
  <g>
    <rect class="cls-5" x="174.12" y="99.56" width="55.87" height="41.14" rx="20.57" ry="20.57"/>
    <g>
      <path d="M190.12,116.29c-.25,.26-.62,.51-1.11,.74s-1.12,.35-1.9,.35c-1.14,0-2.07-.4-2.79-1.2s-1.08-1.84-1.08-3.12v-.14c0-1.29,.36-2.33,1.07-3.12s1.66-1.2,2.84-1.2c.63,0,1.19,.1,1.67,.3s.88,.46,1.21,.78v1.55h-.81l-.28-1.18c-.19-.16-.42-.29-.69-.39s-.6-.15-.98-.15c-.92,0-1.63,.32-2.13,.95s-.75,1.45-.75,2.45v.15c0,1.02,.24,1.84,.72,2.47s1.15,.94,2,.94c.46,0,.85-.05,1.14-.15s.54-.21,.71-.32v-1.87l-1.4-.06v-.85h2.55v3.06Z"/>
      <path d="M194.46,117.38c-.88,0-1.58-.29-2.11-.88s-.78-1.35-.78-2.29v-.26c0-.9,.27-1.65,.81-2.25s1.17-.9,1.91-.9c.85,0,1.5,.26,1.94,.77s.66,1.2,.66,2.06v.72h-4.11l-.02,.03c.01,.61,.17,1.11,.46,1.5s.71,.59,1.25,.59c.39,0,.73-.06,1.03-.17s.55-.26,.76-.46l.45,.75c-.23,.22-.53,.4-.9,.55s-.82,.23-1.34,.23Zm-.18-5.67c-.39,0-.72,.16-.99,.49s-.44,.74-.5,1.23v.03h2.94v-.15c0-.45-.12-.83-.36-1.14s-.6-.46-1.08-.46Z"/>
      <path d="M197.84,116.52l.96-.16v-4.53l-.96-.16v-.74h1.99l.08,.94c.21-.34,.48-.6,.79-.78s.68-.28,1.09-.28c.68,0,1.21,.2,1.59,.6s.56,1.02,.56,1.85v3.1l.96,.16v.74h-3.06v-.74l.96-.16v-3.08c0-.56-.11-.96-.33-1.19s-.56-.35-1.01-.35c-.33,0-.63,.08-.88,.24s-.46,.38-.61,.66v3.72l.96,.16v.74h-3.06v-.74Z"/>
      <path d="M210.27,116.32c-.2,.34-.46,.6-.77,.79s-.68,.28-1.09,.28c-.69,0-1.22-.22-1.61-.66s-.58-1.13-.58-2.06v-2.83l-.73-.16v-.74h1.88v3.75c0,.68,.1,1.14,.3,1.39s.51,.38,.93,.38,.75-.08,1.02-.25,.47-.4,.61-.71v-3.66l-.85-.16v-.74h2v5.44l.73,.16v.74h-1.76l-.08-.94Z"/>
      <path d="M217.88,112.91h-.87l-.19-.76c-.14-.13-.32-.24-.53-.32s-.45-.12-.72-.12c-.41,0-.71,.09-.91,.27s-.3,.4-.3,.65,.09,.45,.26,.59,.53,.27,1.07,.39c.8,.17,1.4,.41,1.79,.7s.59,.69,.59,1.19c0,.56-.23,1.02-.68,1.37s-1.05,.52-1.78,.52c-.48,0-.91-.06-1.29-.17s-.72-.27-1.03-.48v-1.45s.86,0,.86,0l.22,.85c.13,.12,.31,.21,.54,.26s.46,.08,.7,.08c.41,0,.73-.08,.96-.25s.35-.38,.35-.65c0-.25-.1-.46-.29-.63s-.56-.31-1.1-.43c-.77-.17-1.35-.4-1.74-.69s-.59-.68-.59-1.17,.22-.96,.66-1.32,1.01-.54,1.71-.54c.48,0,.91,.06,1.29,.19s.7,.3,.96,.52l.06,1.4Z"/>
      <path d="M220.63,112.1h-1.15v-1.18h1.15v1.18Zm0,5.16h-1.15v-1.18h1.15v1.18Z"/>
      <path d="M198.52,129.25c0-.57,.05-.96,.14-1.18s.34-.5,.74-.86c.39-.46,.66-.81,.83-1.05s.25-.54,.25-.89c0-.41-.11-.73-.33-.96s-.54-.33-.95-.33c-.36,0-.66,.1-.91,.29s-.37,.48-.37,.85h-1.1l-.02-.04c-.01-.63,.21-1.13,.66-1.51s1.03-.57,1.73-.57c.77,0,1.37,.2,1.79,.59s.64,.94,.64,1.64c0,.5-.14,.96-.41,1.38s-.64,.85-1.09,1.28c-.21,.21-.33,.4-.38,.57s-.07,.43-.07,.79h-1.15Zm1.19,2.4h-1.2v-1.22h1.2v1.22Z"/>
      <path d="M204.1,129.25c0-.57,.05-.96,.14-1.18s.34-.5,.74-.86c.39-.46,.66-.81,.83-1.05s.25-.54,.25-.89c0-.41-.11-.73-.33-.96s-.54-.33-.95-.33c-.36,0-.66,.1-.91,.29s-.37,.48-.37,.85h-1.1l-.02-.04c-.01-.63,.21-1.13,.66-1.51s1.03-.57,1.73-.57c.77,0,1.37,.2,1.79,.59s.64,.94,.64,1.64c0,.5-.14,.96-.41,1.38s-.64,.85-1.09,1.28c-.21,.21-.33,.4-.38,.57s-.07,.43-.07,.79h-1.15Zm1.19,2.4h-1.2v-1.22h1.2v1.22Z"/>
    </g>
  </g>
  <g>
    <rect class="cls-1" x="221.93" y="99.56" width="60.45" height="41.14" rx="20.57" ry="20.57"/>
    <g>
      <path d="M234.55,113.15h-.87l-.19-.76c-.14-.13-.32-.24-.53-.32s-.45-.12-.72-.12c-.41,0-.71,.09-.91,.27s-.3,.4-.3,.65,.09,.45,.26,.59,.53,.27,1.07,.39c.8,.17,1.4,.41,1.79,.7s.59,.69,.59,1.19c0,.56-.23,1.02-.68,1.37s-1.05,.52-1.78,.52c-.48,0-.91-.06-1.29-.17s-.72-.27-1.03-.48v-1.45s.86,0,.86,0l.22,.85c.13,.12,.31,.21,.54,.26s.46,.08,.7,.08c.41,0,.73-.08,.96-.25s.35-.38,.35-.65c0-.25-.1-.46-.29-.63s-.56-.31-1.1-.43c-.77-.17-1.35-.4-1.74-.69s-.59-.68-.59-1.17,.22-.96,.66-1.32,1.01-.54,1.71-.54c.48,0,.91,.06,1.29,.19s.7,.3,.96,.52l.06,1.4Z"/>
      <path d="M235.67,119.19l.96-.16v-6.96l-.96-.16v-.74h1.95l.11,.77c.21-.29,.47-.51,.77-.66s.65-.23,1.05-.23c.79,0,1.4,.31,1.83,.93s.65,1.45,.65,2.47v.12c0,.91-.22,1.65-.66,2.21s-1.04,.84-1.81,.84c-.39,0-.73-.07-1.03-.2s-.55-.33-.75-.58v2.19l.96,.16v.74h-3.06v-.74Zm5.2-4.75c0-.72-.14-1.31-.42-1.78s-.7-.69-1.25-.69c-.33,0-.61,.07-.84,.22s-.42,.35-.57,.61v3.09c.14,.26,.33,.46,.57,.61s.52,.21,.86,.21c.55,0,.96-.2,1.24-.6s.42-.92,.42-1.55v-.12Z"/>
      <path d="M245.97,117.62c-.88,0-1.58-.29-2.11-.88s-.78-1.35-.78-2.29v-.26c0-.9,.27-1.65,.81-2.25s1.17-.9,1.91-.9c.85,0,1.5,.26,1.94,.77s.66,1.2,.66,2.06v.72h-4.11l-.02,.03c.01,.61,.17,1.11,.46,1.5s.71,.59,1.25,.59c.39,0,.73-.06,1.03-.17s.55-.26,.76-.46l.45,.75c-.23,.22-.53,.4-.9,.55s-.82,.23-1.34,.23Zm-.18-5.67c-.39,0-.72,.16-.99,.49s-.44,.74-.5,1.23v.03h2.94v-.15c0-.45-.12-.83-.36-1.14s-.6-.46-1.08-.46Z"/>
      <path d="M252.38,116.72c.38,0,.72-.12,1.01-.35s.44-.53,.44-.87h1.04v.04c.03,.55-.21,1.03-.72,1.46s-1.09,.64-1.77,.64c-.92,0-1.63-.3-2.11-.9s-.73-1.36-.73-2.27v-.25c0-.9,.24-1.66,.73-2.26s1.19-.91,2.11-.91c.51,0,.96,.08,1.37,.25s.74,.4,1,.69l.05,1.41h-.92l-.25-1c-.14-.13-.31-.24-.53-.32s-.46-.12-.73-.12c-.61,0-1.04,.22-1.3,.65s-.39,.97-.39,1.6v.25c0,.65,.13,1.19,.39,1.62s.69,.65,1.3,.65Z"/>
      <path d="M256,116.76l.96-.16v-4.53l-.96-.16v-.74h2.11v5.44l.96,.16v.74h-3.06v-.74Zm2.11-7.22h-1.15v-1.18h1.15v1.18Z"/>
      <path d="M262.84,117.62c-.88,0-1.58-.29-2.11-.88s-.78-1.35-.78-2.29v-.26c0-.9,.27-1.65,.81-2.25s1.17-.9,1.91-.9c.85,0,1.5,.26,1.94,.77s.66,1.2,.66,2.06v.72h-4.11l-.02,.03c.01,.61,.17,1.11,.46,1.5s.71,.59,1.25,.59c.39,0,.73-.06,1.03-.17s.55-.26,.76-.46l.45,.75c-.23,.22-.53,.4-.9,.55s-.82,.23-1.34,.23Zm-.18-5.67c-.39,0-.72,.16-.99,.49s-.44,.74-.5,1.23v.03h2.94v-.15c0-.45-.12-.83-.36-1.14s-.6-.46-1.08-.46Z"/>
      <path d="M271.25,113.15h-.87l-.19-.76c-.14-.13-.32-.24-.53-.32s-.45-.12-.72-.12c-.41,0-.71,.09-.91,.27s-.3,.4-.3,.65,.09,.45,.26,.59,.53,.27,1.07,.39c.8,.17,1.4,.41,1.79,.7s.59,.69,.59,1.19c0,.56-.23,1.02-.68,1.37s-1.05,.52-1.78,.52c-.48,0-.91-.06-1.29-.17s-.72-.27-1.03-.48v-1.45s.86,0,.86,0l.22,.85c.13,.12,.31,.21,.54,.26s.46,.08,.7,.08c.41,0,.73-.08,.96-.25s.35-.38,.35-.65c0-.25-.1-.46-.29-.63s-.56-.31-1.1-.43c-.77-.17-1.35-.4-1.74-.69s-.59-.68-.59-1.17,.22-.96,.66-1.32,1.01-.54,1.71-.54c.48,0,.91,.06,1.29,.19s.7,.3,.96,.52l.06,1.4Z"/>
      <path d="M273.99,112.34h-1.15v-1.18h1.15v1.18Zm0,5.16h-1.15v-1.18h1.15v1.18Z"/>
      <path d="M248.34,129.5c0-.57,.05-.96,.14-1.18s.34-.5,.74-.86c.39-.46,.66-.81,.83-1.05s.25-.54,.25-.89c0-.41-.11-.73-.33-.96s-.54-.33-.95-.33c-.36,0-.66,.1-.91,.29s-.37,.48-.37,.85h-1.1l-.02-.04c-.01-.63,.21-1.13,.66-1.51s1.03-.57,1.73-.57c.77,0,1.37,.2,1.79,.59s.64,.94,.64,1.64c0,.5-.14,.96-.41,1.38s-.64,.85-1.09,1.28c-.21,.21-.33,.4-.38,.57s-.07,.43-.07,.79h-1.15Zm1.19,2.4h-1.2v-1.22h1.2v1.22Z"/>
      <path d="M253.92,129.5c0-.57,.05-.96,.14-1.18s.34-.5,.74-.86c.39-.46,.66-.81,.83-1.05s.25-.54,.25-.89c0-.41-.11-.73-.33-.96s-.54-.33-.95-.33c-.36,0-.66,.1-.91,.29s-.37,.48-.37,.85h-1.1l-.02-.04c-.01-.63,.21-1.13,.66-1.51s1.03-.57,1.73-.57c.77,0,1.37,.2,1.79,.59s.64,.94,.64,1.64c0,.5-.14,.96-.41,1.38s-.64,.85-1.09,1.28c-.21,.21-.33,.4-.38,.57s-.07,.43-.07,.79h-1.15Zm1.19,2.4h-1.2v-1.22h1.2v1.22Z"/>
    </g>
  </g>
</svg>