<?xml version="1.0" encoding="UTF-8"?>
<svg id="Layer_1" data-name="Layer 1" xmlns="http://www.w3.org/2000/svg" viewBox="0 0 382.41 68.14">
  <defs>
    <style>
      .cls-1 {
        fill: #fff;
      }

      .cls-2 {
        fill: #c2c4d8;
      }

      .cls-3 {
        font-family: RobotoSlab-Regular, 'Roboto Slab';
        font-size: 19.35px;
      }

      .cls-4 {
        letter-spacing: 0em;
      }

      .cls-5 {
        letter-spacing: -.02em;
      }

      .cls-6 {
        fill: #b4a7c5;
      }
    </style>
  </defs>
  <g>
    <path class="cls-6" d="M60.6,34.07c0-10.4,4.09-19.85,10.74-26.86H30.47C13.64,7.21,0,20.85,0,37.68H0c0,16.83,13.64,30.47,30.47,30.47h42.8c2.13,0,4.21-.22,6.22-.64-11.31-6.85-18.88-19.28-18.88-33.44Z"/>
    <path class="cls-1" d="M18.06,50.42V31.39l12.69-9.52,12.69,9.52v19.03h-9.52v-11.1h-6.34v11.1h-9.52Z"/>
  </g>
  <g>
    <rect class="cls-6" x="65.6" y="0" width="194.03" height="68.14" rx="34.07" ry="34.07"/>
    <text class="cls-3" transform="translate(86.93 40.13)"><tspan class="cls-5" x="0" y="0">F</tspan><tspan x="11.7" y="0">alconifor</tspan><tspan class="cls-4" x="94.27" y="0">m</tspan><tspan x="112.46" y="0">es</tspan></text>
  </g>
  <g>
    <rect class="cls-2" x="228.76" y="0" width="153.65" height="68.14" rx="34.07" ry="34.07"/>
    <text class="cls-3" transform="translate(247.84 40.13)"><tspan class="cls-5" x="0" y="0">F</tspan><tspan x="11.7" y="0">alconidae</tspan></text>
  </g>
</svg>