<?xml version="1.0" encoding="UTF-8"?>
<svg id="Layer_1" data-name="Layer 1" xmlns="http://www.w3.org/2000/svg" viewBox="0 0 382.41 68.14">
  <defs>
    <style>
      .cls-1 {
        fill: #fff;
      }

      .cls-2 {
        fill: #1c2231;
      }

      .cls-3 {
        fill: #1d1b22;
      }
    </style>
  </defs>
  <g>
    <path class="cls-3" d="M60.6,34.07c0-10.4,4.09-19.85,10.74-26.86H30.47C13.64,7.21,0,20.85,0,37.68H0c0,16.83,13.64,30.47,30.47,30.47h42.8c2.13,0,4.21-.22,6.22-.64-11.31-6.85-18.88-19.28-18.88-33.44Z"/>
    <path class="cls-1" d="M18.06,50.42V31.39l12.69-9.52,12.69,9.52v19.03h-9.52v-11.1h-6.34v11.1h-9.52Z"/>
  </g>
  <g>
    <rect class="cls-3" x="65.6" y="0" width="194.03" height="68.14" rx="34.07" ry="34.07"/>
    <g>
      <path class="cls-1" d="M87.6,38.94l1.54-.26v-10.83l-1.54-.26v-1.2h10.63v3.31h-1.59l-.15-1.84h-5.49v4.74h5.32v1.46h-5.32v4.63l1.54,.26v1.19h-4.94v-1.19Z"/>
      <path class="cls-1" d="M106.14,40.13c-.06-.28-.1-.53-.13-.75-.03-.22-.05-.44-.07-.66-.36,.46-.81,.84-1.35,1.15-.54,.31-1.11,.46-1.72,.46-1.06,0-1.87-.26-2.43-.78-.55-.52-.83-1.25-.83-2.2s.39-1.72,1.18-2.24,1.86-.79,3.23-.79h1.92v-1.19c0-.6-.19-1.07-.57-1.42s-.9-.52-1.58-.52c-.47,0-.88,.06-1.23,.18s-.64,.28-.86,.49l-.2,1.08h-1.44v-1.98c.47-.37,1.03-.67,1.69-.89,.66-.22,1.38-.33,2.15-.33,1.16,0,2.1,.3,2.81,.89,.72,.59,1.08,1.44,1.08,2.54v4.92c0,.13,0,.26,0,.39,0,.13,.01,.25,.02,.38l.76,.1v1.19h-2.44Zm-2.99-1.36c.62,0,1.18-.15,1.69-.44,.51-.3,.88-.65,1.1-1.07v-1.68h-1.98c-.76,0-1.37,.18-1.81,.53-.44,.35-.67,.78-.67,1.28,0,.45,.14,.79,.42,1.02,.28,.24,.7,.35,1.26,.35Z"/>
      <path class="cls-1" d="M109.87,26.59v-1.2h3.4v13.28l1.54,.26v1.19h-4.94v-1.19l1.54-.26v-11.82l-1.54-.26Z"/>
      <path class="cls-1" d="M120.81,38.87c.62,0,1.16-.19,1.63-.57,.47-.38,.7-.85,.7-1.4h1.67l.02,.06c.03,.88-.36,1.66-1.18,2.35-.82,.68-1.76,1.02-2.85,1.02-1.49,0-2.62-.48-3.41-1.45s-1.18-2.19-1.18-3.66v-.4c0-1.45,.39-2.67,1.18-3.64,.79-.97,1.92-1.46,3.4-1.46,.82,0,1.55,.14,2.21,.41,.65,.27,1.19,.64,1.62,1.11l.08,2.27h-1.48l-.41-1.61c-.22-.21-.5-.39-.85-.52-.35-.13-.74-.2-1.17-.2-.98,0-1.67,.35-2.09,1.05-.42,.7-.63,1.56-.63,2.58v.4c0,1.05,.21,1.92,.62,2.61,.42,.7,1.11,1.04,2.1,1.04Z"/>
      <path class="cls-1" d="M126.66,34.92c0-1.51,.41-2.76,1.23-3.74,.82-.98,1.93-1.47,3.33-1.47s2.53,.49,3.35,1.46c.82,.98,1.23,2.22,1.23,3.74v.21c0,1.52-.41,2.77-1.23,3.74-.82,.97-1.93,1.45-3.33,1.45s-2.54-.49-3.35-1.46c-.82-.97-1.23-2.22-1.23-3.74v-.21Zm1.86,.21c0,1.08,.23,1.98,.68,2.68,.46,.71,1.14,1.06,2.04,1.06s1.55-.35,2.01-1.06c.46-.71,.69-1.6,.69-2.68v-.21c0-1.07-.23-1.96-.69-2.67-.46-.71-1.14-1.07-2.03-1.07s-1.57,.36-2.02,1.07c-.45,.71-.68,1.6-.68,2.67v.21Z"/>
      <path class="cls-1" d="M137.23,38.94l1.54-.26v-7.3l-1.54-.26v-1.2h3.2l.13,1.52c.34-.54,.77-.96,1.28-1.26,.51-.3,1.1-.45,1.75-.45,1.1,0,1.96,.32,2.56,.97,.61,.65,.91,1.64,.91,2.99v5l1.54,.26v1.19h-4.94v-1.19l1.54-.26v-4.96c0-.9-.18-1.54-.53-1.92s-.9-.57-1.63-.57c-.54,0-1.01,.13-1.42,.39-.41,.26-.74,.61-.99,1.06v6l1.54,.26v1.19h-4.94v-1.19Z"/>
      <path class="cls-1" d="M149.96,38.94l1.54-.26v-7.3l-1.54-.26v-1.2h3.4v8.77l1.54,.26v1.19h-4.94v-1.19Zm3.4-11.65h-1.86v-1.9h1.86v1.9Z"/>
      <path class="cls-1" d="M156.13,31.29v-1.38h1.6v-1.29c0-1.09,.29-1.93,.85-2.53,.57-.6,1.37-.89,2.39-.89,.21,0,.43,.02,.65,.05,.22,.03,.46,.08,.72,.15l-.23,1.42c-.11-.02-.25-.05-.41-.07-.16-.02-.33-.03-.5-.03-.55,0-.95,.16-1.22,.49s-.4,.79-.4,1.41v1.29h2.14v1.38h-2.14v7.39l1.54,.26v1.19h-4.94v-1.19l1.54-.26v-7.39h-1.6Z"/>
      <path class="cls-1" d="M163.2,34.92c0-1.51,.41-2.76,1.23-3.74,.82-.98,1.93-1.47,3.33-1.47s2.53,.49,3.35,1.46c.82,.98,1.23,2.22,1.23,3.74v.21c0,1.52-.41,2.77-1.23,3.74-.82,.97-1.93,1.45-3.33,1.45s-2.54-.49-3.35-1.46c-.82-.97-1.23-2.22-1.23-3.74v-.21Zm1.86,.21c0,1.08,.23,1.98,.68,2.68,.46,.71,1.14,1.06,2.04,1.06s1.55-.35,2.01-1.06c.46-.71,.69-1.6,.69-2.68v-.21c0-1.07-.23-1.96-.69-2.67-.46-.71-1.14-1.07-2.03-1.07s-1.57,.36-2.02,1.07c-.45,.71-.68,1.6-.68,2.67v.21Z"/>
      <path class="cls-1" d="M174.04,31.11v-1.2h3.2l.18,1.48c.29-.52,.65-.93,1.07-1.23,.42-.3,.91-.44,1.46-.44,.15,0,.29,.01,.45,.03,.15,.02,.27,.05,.35,.07l-.25,1.73-1.06-.06c-.49,0-.9,.11-1.24,.34-.33,.23-.59,.55-.77,.97v5.87l1.54,.26v1.19h-4.94v-1.19l1.54-.26v-7.3l-1.54-.26Z"/>
      <path class="cls-1" d="M181.68,38.94l1.54-.26v-7.3l-1.54-.26v-1.2h3.21l.12,1.33c.33-.48,.75-.86,1.27-1.12,.52-.26,1.12-.4,1.79-.4s1.26,.16,1.75,.47c.49,.31,.85,.79,1.1,1.42,.32-.58,.75-1.04,1.27-1.38,.53-.34,1.15-.51,1.85-.51,1.05,0,1.87,.36,2.48,1.07,.6,.71,.91,1.79,.91,3.23v4.66l1.54,.26v1.19h-4.95v-1.19l1.54-.26v-4.68c0-1.01-.17-1.72-.52-2.14-.35-.42-.86-.63-1.54-.63s-1.17,.23-1.56,.69-.62,1.03-.68,1.72v5.04l1.54,.26v1.19h-4.94v-1.19l1.54-.26v-4.68c0-.96-.18-1.66-.53-2.1s-.87-.67-1.54-.67c-.57,0-1.03,.12-1.4,.35s-.65,.56-.84,.98v6.11l1.54,.26v1.19h-4.94v-1.19Z"/>
      <path class="cls-1" d="M204.9,40.33c-1.42,0-2.55-.47-3.4-1.42s-1.26-2.18-1.26-3.69v-.42c0-1.46,.43-2.67,1.3-3.63,.87-.97,1.89-1.45,3.07-1.45,1.37,0,2.41,.42,3.12,1.25,.71,.83,1.06,1.94,1.06,3.33v1.16h-6.63l-.03,.05c.02,.98,.27,1.79,.75,2.42,.48,.63,1.15,.95,2.01,.95,.63,0,1.18-.09,1.66-.27,.48-.18,.89-.43,1.23-.74l.73,1.21c-.37,.35-.85,.65-1.45,.89-.6,.24-1.32,.36-2.17,.36Zm-.28-9.14c-.62,0-1.16,.26-1.6,.79-.44,.53-.71,1.19-.81,1.98l.02,.05h4.71v-.25c0-.73-.2-1.34-.59-1.83s-.97-.74-1.74-.74Z"/>
      <path class="cls-1" d="M218.45,33.12h-1.4l-.3-1.23c-.23-.21-.51-.39-.85-.51-.34-.13-.73-.19-1.17-.19-.66,0-1.15,.15-1.47,.43-.32,.29-.48,.64-.48,1.05s.14,.72,.42,.95,.86,.44,1.73,.62c1.29,.28,2.25,.65,2.88,1.13,.63,.48,.95,1.11,.95,1.91,0,.91-.37,1.64-1.1,2.2-.73,.56-1.69,.84-2.88,.84-.77,0-1.47-.09-2.09-.27-.62-.18-1.17-.44-1.65-.78v-2.33s1.39,0,1.39,0l.35,1.37c.21,.19,.5,.34,.87,.42,.37,.09,.75,.13,1.13,.13,.66,0,1.18-.13,1.55-.4,.37-.27,.56-.62,.56-1.05,0-.41-.16-.75-.47-1.01-.31-.26-.9-.49-1.77-.69-1.24-.27-2.18-.64-2.81-1.1-.63-.47-.95-1.1-.95-1.89s.35-1.54,1.06-2.13c.71-.59,1.63-.88,2.76-.88,.77,0,1.47,.1,2.09,.3s1.13,.48,1.54,.84l.09,2.26Z"/>
    </g>
  </g>
  <g>
    <rect class="cls-2" x="228.76" y="0" width="153.65" height="68.14" rx="34.07" ry="34.07"/>
    <g>
      <path class="cls-1" d="M248.51,38.94l1.54-.26v-10.83l-1.54-.26v-1.2h10.63v3.31h-1.59l-.15-1.84h-5.49v4.74h5.32v1.46h-5.32v4.63l1.54,.26v1.19h-4.94v-1.19Z"/>
      <path class="cls-1" d="M267.05,40.13c-.06-.28-.1-.53-.13-.75-.03-.22-.05-.44-.07-.66-.36,.46-.81,.84-1.35,1.15-.54,.31-1.11,.46-1.72,.46-1.06,0-1.87-.26-2.43-.78-.55-.52-.83-1.25-.83-2.2s.39-1.72,1.18-2.24,1.86-.79,3.23-.79h1.92v-1.19c0-.6-.19-1.07-.57-1.42s-.9-.52-1.58-.52c-.47,0-.88,.06-1.23,.18s-.64,.28-.86,.49l-.2,1.08h-1.44v-1.98c.47-.37,1.03-.67,1.69-.89,.66-.22,1.38-.33,2.15-.33,1.16,0,2.1,.3,2.81,.89,.72,.59,1.08,1.44,1.08,2.54v4.92c0,.13,0,.26,0,.39,0,.13,.01,.25,.02,.38l.76,.1v1.19h-2.44Zm-2.99-1.36c.62,0,1.18-.15,1.69-.44,.51-.3,.88-.65,1.1-1.07v-1.68h-1.98c-.76,0-1.37,.18-1.81,.53-.44,.35-.67,.78-.67,1.28,0,.45,.14,.79,.42,1.02,.28,.24,.7,.35,1.26,.35Z"/>
      <path class="cls-1" d="M270.78,26.59v-1.2h3.4v13.28l1.54,.26v1.19h-4.94v-1.19l1.54-.26v-11.82l-1.54-.26Z"/>
      <path class="cls-1" d="M281.72,38.87c.62,0,1.16-.19,1.63-.57,.47-.38,.7-.85,.7-1.4h1.67l.02,.06c.03,.88-.36,1.66-1.18,2.35-.82,.68-1.76,1.02-2.85,1.02-1.49,0-2.62-.48-3.41-1.45s-1.18-2.19-1.18-3.66v-.4c0-1.45,.39-2.67,1.18-3.64,.79-.97,1.92-1.46,3.4-1.46,.82,0,1.55,.14,2.21,.41,.65,.27,1.19,.64,1.62,1.11l.08,2.27h-1.48l-.41-1.61c-.22-.21-.5-.39-.85-.52-.35-.13-.74-.2-1.17-.2-.98,0-1.67,.35-2.09,1.05-.42,.7-.63,1.56-.63,2.58v.4c0,1.05,.21,1.92,.62,2.61,.42,.7,1.11,1.04,2.1,1.04Z"/>
      <path class="cls-1" d="M287.57,34.92c0-1.51,.41-2.76,1.23-3.74,.82-.98,1.93-1.47,3.33-1.47s2.53,.49,3.35,1.46c.82,.98,1.23,2.22,1.23,3.74v.21c0,1.52-.41,2.77-1.23,3.74-.82,.97-1.93,1.45-3.33,1.45s-2.54-.49-3.35-1.46c-.82-.97-1.23-2.22-1.23-3.74v-.21Zm1.86,.21c0,1.08,.23,1.98,.68,2.68,.46,.71,1.14,1.06,2.04,1.06s1.55-.35,2.01-1.06c.46-.71,.69-1.6,.69-2.68v-.21c0-1.07-.23-1.96-.69-2.67-.46-.71-1.14-1.07-2.03-1.07s-1.57,.36-2.02,1.07c-.45,.71-.68,1.6-.68,2.67v.21Z"/>
      <path class="cls-1" d="M298.14,38.94l1.54-.26v-7.3l-1.54-.26v-1.2h3.2l.13,1.52c.34-.54,.77-.96,1.28-1.26,.51-.3,1.1-.45,1.75-.45,1.1,0,1.96,.32,2.56,.97,.61,.65,.91,1.64,.91,2.99v5l1.54,.26v1.19h-4.94v-1.19l1.54-.26v-4.96c0-.9-.18-1.54-.53-1.92s-.9-.57-1.63-.57c-.54,0-1.01,.13-1.42,.39-.41,.26-.74,.61-.99,1.06v6l1.54,.26v1.19h-4.94v-1.19Z"/>
      <path class="cls-1" d="M310.86,38.94l1.54-.26v-7.3l-1.54-.26v-1.2h3.4v8.77l1.54,.26v1.19h-4.94v-1.19Zm3.4-11.65h-1.86v-1.9h1.86v1.9Z"/>
      <path class="cls-1" d="M324.11,38.91c-.33,.47-.74,.82-1.22,1.06s-1.04,.36-1.68,.36c-1.25,0-2.22-.45-2.92-1.36-.7-.9-1.05-2.09-1.05-3.57v-.2c0-1.64,.35-2.97,1.05-3.98,.7-1.01,1.68-1.51,2.94-1.51,.6,0,1.14,.11,1.6,.33,.46,.22,.86,.55,1.19,.97v-4.17l-1.54-.26v-1.2h3.4v13.28l1.54,.26v1.19h-3.16l-.15-1.22Zm-5.02-3.5c0,1.03,.21,1.85,.63,2.48,.42,.62,1.07,.94,1.96,.94,.55,0,1.02-.13,1.4-.38s.69-.61,.94-1.07v-4.74c-.24-.43-.55-.77-.94-1.02s-.84-.38-1.38-.38c-.89,0-1.54,.37-1.97,1.1s-.64,1.69-.64,2.87v.2Z"/>
      <path class="cls-1" d="M335.5,40.13c-.06-.28-.1-.53-.13-.75-.03-.22-.05-.44-.07-.66-.36,.46-.81,.84-1.35,1.15-.54,.31-1.11,.46-1.72,.46-1.06,0-1.87-.26-2.43-.78-.55-.52-.83-1.25-.83-2.2s.39-1.72,1.18-2.24,1.86-.79,3.23-.79h1.92v-1.19c0-.6-.19-1.07-.57-1.42s-.9-.52-1.58-.52c-.47,0-.88,.06-1.23,.18s-.64,.28-.86,.49l-.2,1.08h-1.44v-1.98c.47-.37,1.03-.67,1.69-.89,.66-.22,1.38-.33,2.15-.33,1.16,0,2.1,.3,2.81,.89,.72,.59,1.08,1.44,1.08,2.54v4.92c0,.13,0,.26,0,.39,0,.13,.01,.25,.02,.38l.76,.1v1.19h-2.44Zm-2.99-1.36c.62,0,1.18-.15,1.69-.44,.51-.3,.88-.65,1.1-1.07v-1.68h-1.98c-.76,0-1.37,.18-1.81,.53-.44,.35-.67,.78-.67,1.28,0,.45,.14,.79,.42,1.02,.28,.24,.7,.35,1.26,.35Z"/>
      <path class="cls-1" d="M344.15,40.33c-1.42,0-2.55-.47-3.4-1.42s-1.26-2.18-1.26-3.69v-.42c0-1.46,.43-2.67,1.3-3.63,.87-.97,1.89-1.45,3.07-1.45,1.37,0,2.41,.42,3.12,1.25,.71,.83,1.06,1.94,1.06,3.33v1.16h-6.63l-.03,.05c.02,.98,.27,1.79,.75,2.42,.48,.63,1.15,.95,2.01,.95,.63,0,1.18-.09,1.66-.27,.48-.18,.89-.43,1.23-.74l.73,1.21c-.37,.35-.85,.65-1.45,.89-.6,.24-1.32,.36-2.17,.36Zm-.28-9.14c-.62,0-1.16,.26-1.6,.79-.44,.53-.71,1.19-.81,1.98l.02,.05h4.71v-.25c0-.73-.2-1.34-.59-1.83s-.97-.74-1.74-.74Z"/>
    </g>
  </g>
</svg>